<?xml version="1.0" encoding="UTF-8" standalone="no"?>
<svg
   width="933.33331"
   height="766.33331"
   version="1.1"
   viewBox="0 0 700 574.75"
   id="svg375"
   sodipodi:docname="bug.svg"
   inkscape:version="1.1.2 (b8e25be8, 2022-02-05)"
   xmlns:inkscape="http://www.inkscape.org/namespaces/inkscape"
   xmlns:sodipodi="http://sodipodi.sourceforge.net/DTD/sodipodi-0.dtd"
   xmlns="http://www.w3.org/2000/svg"
   xmlns:svg="http://www.w3.org/2000/svg">
  <defs
     id="defs379" />
  <sodipodi:namedview
     id="namedview377"
     pagecolor="#ffffff"
     bordercolor="#666666"
     borderopacity="1.0"
     inkscape:pageshadow="2"
     inkscape:pageopacity="0.0"
     inkscape:pagecheckerboard="0"
     inkscape:document-units="pt"
     showgrid="false"
     units="px"
     inkscape:zoom="0.58392857"
     inkscape:cx="466.66667"
     inkscape:cy="466.66667"
     inkscape:window-width="1920"
     inkscape:window-height="1093"
     inkscape:window-x="45"
     inkscape:window-y="62"
     inkscape:window-maximized="0"
     inkscape:current-layer="svg375"
     height="766.33331px" />
  <g
     id="g373">
    <path
       d="m 452.68,102.65 c 0,2.0156 -0.0547,4.0312 -0.16797,5.9922 -66.785,-20.609 -138.23,-20.609 -205.02,0 -0.11328,-1.9609 -0.16797,-3.9766 -0.16797,-5.9922 0.0781,-36.633 19.664,-70.449 51.398,-88.742 31.738,-18.293 70.816,-18.293 102.55,0 31.734,18.293 51.324,52.109 51.398,88.742 z"
       id="path369" />
    <path
       d="m 617.4,297.41 c -6.9766,-6.6953 -14.633,-12.645 -22.848,-17.75 -26.543,-15.902 -50.512,-12.207 -72.352,-4.0898 v -82.934 c 19.207,-10.191 37.855,-23.969 45.023,-52.414 1.5664,-6.2734 2.6328,-12.656 3.6406,-18.871 v -0.004 c 0.96094,-10.109 3.6523,-19.977 7.9531,-29.175997 1.5898,-2.6992 2.4414,-5.7695 2.4648,-8.9023 -0.0273,-4.875 -2.1641,-9.4961 -5.8633,-12.664 -3.6992,-3.1719 -8.5938,-4.5781 -13.414,-3.8555 -4.8164,0.71875 -9.082,3.5 -11.691,7.6133 -6.8359,12.934 -11.113,27.058997 -12.602,41.608997 -0.95313,5.7109 -1.8477,11.145 -3.0781,16.07 -2.9688,11.836 -10.941,21.793 -21.84,27.273 -49.484,-28.641 -105.65,-43.723 -162.82,-43.723 -57.176,0 -113.34,15.082 -162.82,43.723 -10.871,-5.5039 -18.82,-15.453 -21.785,-27.273 -1.2305,-4.9297 -2.1289,-10.359 -3.0781,-16.07 -1.4883,-14.551 -5.7695,-28.675997 -12.602,-41.608997 -2.9688,-4.9141 -8.3125,-7.8984 -14.055,-7.8398 -4.0195,-0.01172 -7.9102,1.4062 -10.973,4.0078 -3.0625,2.6016 -5.0977,6.2109 -5.7344,10.18 -0.6367,3.9691 0.16406,8.0312 2.2578,11.461 4.3008,9.199197 6.9922,19.065997 7.9531,29.175997 1.0078,6.2148 2.0703,12.602 3.6406,18.871 7.168,28.449 25.816,42.223 45.023,52.414 v 82.938 c -21.84,-8.1211 -45.809,-11.816 -72.297,4.0898 -8.2422,5.0898 -15.918,11.043 -22.902,17.75 -3.3086,3.0273 -5.2695,7.25 -5.4492,11.727 -0.17578,4.4805 1.4414,8.8438 4.4961,12.121 3.0547,3.2812 7.2969,5.2031 11.773,5.3438 4.4805,0.13672 8.832,-1.5195 12.082,-4.6055 5.2695,-5.1055 11.07,-9.6289 17.305,-13.496 17.754,-10.695 32.145,-6.7773 55.273,3.5859 0.30078,32.176 5.0508,64.156 14.109,95.031 -0.33594,0.16797 -0.73047,0.33594 -1.0625,0.50391 -23.184,11.199 -49.504,23.969 -58.352,59.023 -1.5664,6.3281 -2.6328,12.711 -3.6406,18.871 -0.95312,10.129 -3.6445,20.016 -7.9531,29.234 -2.0938,3.4258 -2.8945,7.4922 -2.2578,11.461 0.63672,3.9648 2.6719,7.5742 5.7344,10.176 3.0625,2.6018 6.9531,4.0234 10.973,4.0078 5.7578,0.0625 11.113,-2.9453 14.055,-7.8945 6.8281,-12.914 11.105,-27.02 12.602,-41.551 0.95313,-5.7695 1.8477,-11.199 3.0781,-16.07 4.7031,-18.816 17.582,-25.93 39.816,-36.734 20.945,38.977 51.129,56.336 80.754,73.305 v -0.004 c 18.98,9.7969 36.543,22.137 52.191,36.68 l 11.871,11.871 11.871,-11.871 c 15.648,-14.543 33.211,-26.883 52.191,-36.68 29.625,-16.969 59.809,-34.328 80.754,-73.305 22.234,10.809 35.113,17.922 39.816,36.734 1.2305,4.8711 2.1289,10.305 3.0781,16.07 v 0.004 c 1.5,14.527 5.7773,28.637 12.602,41.551 2.9492,4.7617 8.0898,7.7305 13.691,7.8984 5.5977,0.16797 10.91,-2.4805 14.141,-7.0586 1.9062,-2.6992 2.9883,-5.8945 3.1094,-9.1953 0.11719,-3.3008 -0.73047,-6.5664 -2.4375,-9.3945 -4.3008,-9.1992 -6.9922,-19.07 -7.9531,-29.18 -1.0078,-6.2148 -2.0703,-12.602 -3.6406,-18.93 -8.8477,-35.051 -35.168,-47.82 -58.406,-59.02 L 507.807,407.116 c 9.0586,-30.875 13.809,-62.855 14.113,-95.031 23.129,-10.305 37.52,-14.281 55.273,-3.5859 h -0.004 c 6.2344,3.8672 12.035,8.3906 17.305,13.496 3.25,3.0859 7.6016,4.7461 12.082,4.6094 4.4844,-0.13672 8.7227,-2.0586 11.781,-5.3398 3.0547,-3.2812 4.6719,-7.6445 4.4922,-12.125 -0.17969,-4.4805 -2.1406,-8.7031 -5.4531,-11.73 z m -202.66,56.844 c 4.2383,4.2383 5.8945,10.422 4.3438,16.215 -1.5508,5.793 -6.0781,10.32 -11.871,11.871 -5.7969,1.5547 -11.977,-0.10156 -16.219,-4.3438 l -40.992,-40.992 -40.992,40.992 c -4.2422,4.2422 -10.422,5.8984 -16.219,4.3438 -5.793,-1.5508 -10.32,-6.0781 -11.871,-11.871 -1.5508,-5.793 0.10547,-11.977 4.3438,-16.215 l 40.996,-40.992 -40.992,-40.992 h -0.004 c -4.2383,-4.2422 -5.8945,-10.426 -4.3438,-16.219 1.5508,-5.793 6.0781,-10.32 11.871,-11.871 5.7969,-1.5547 11.977,0.10156 16.219,4.3438 l 40.992,40.992 40.992,-40.992 c 4.2422,-4.2422 10.422,-5.8984 16.219,-4.3438 5.793,1.5508 10.32,6.0781 11.871,11.871 1.5508,5.793 -0.10547,11.977 -4.3438,16.219 l -40.996,40.992 z"
       id="path371" />
  </g>
</svg>
