<?xml version="1.0" encoding="UTF-8" standalone="no"?>
<svg
   width="480pt"
   height="479.36069pt"
   version="1.1"
   viewBox="0 0 480 479.36069"
   id="svg18"
   sodipodi:docname="build.svg"
   inkscape:version="1.1.2 (b8e25be8, 2022-02-05)"
   xmlns:inkscape="http://www.inkscape.org/namespaces/inkscape"
   xmlns:sodipodi="http://sodipodi.sourceforge.net/DTD/sodipodi-0.dtd"
   xmlns="http://www.w3.org/2000/svg"
   xmlns:svg="http://www.w3.org/2000/svg">
  <defs
     id="defs22" />
  <sodipodi:namedview
     id="namedview20"
     pagecolor="#ffffff"
     bordercolor="#666666"
     borderopacity="1.0"
     inkscape:pageshadow="2"
     inkscape:pageopacity="0.0"
     inkscape:pagecheckerboard="0"
     inkscape:document-units="pt"
     showgrid="false"
     fit-margin-top="0"
     fit-margin-left="0"
     fit-margin-right="0"
     fit-margin-bottom="0"
     inkscape:zoom="0.77035714"
     inkscape:cx="-68.150209"
     inkscape:cy="429.02179"
     inkscape:window-width="1296"
     inkscape:window-height="969"
     inkscape:window-x="57"
     inkscape:window-y="25"
     inkscape:window-maximized="0"
     inkscape:current-layer="svg18" />
  <g
     id="g16"
     transform="translate(-110,-40.319324)">
    <path
       d="M 110,252.52 H 274.26 V 373.36 H 110 Z"
       id="path2" />
    <path
       d="M 110,398.84 H 212.88 V 519.68 H 110 Z"
       id="path4" />
    <path
       d="M 487.12,398.84 H 590 V 519.68 H 487.12 Z"
       id="path6" />
    <path
       d="m 236.54,398.84 h 222.9 v 120.84 h -222.9 z"
       id="path8" />
    <path
       d="m 456,292.34 57.059,-59.461 c 5.832,-5.9492 9.0312,-13.988 8.8828,-22.316 -0.15234,-8.3281 -3.6406,-16.25 -9.6797,-21.984 l -10.781,-10.379 -53.82,55.801 -13.359,-12.781 53.879,-56 15.559,-16.16 12.379,-12.762 0.004,0.004 c 3.5938,2.6133 8.0117,3.8477 12.441,3.4805 4.4293,-0.3672 8.582,-2.3125 11.699,-5.4805 l 40.68,-42.301004 c 5.5508,-5.8516 8.5781,-13.648 8.4258,-21.715 -0.14844,-8.0625 -3.4609,-15.746 -9.2266,-21.387 -5.8086,-5.6367 -13.625,-8.7266 -21.719,-8.5742 -8.0898,0.14844 -15.789,3.5234 -21.383,9.375 l -40.699,42.301 c -3.2539,3.3008 -5.125,7.7188 -5.2383,12.352004 -0.10937,4.6328 1.5469,9.1367 4.6367,12.59 l -27.738,28.938 -24.738,-23.738 c -6.0234,-5.8242 -14.133,-8.9766 -22.504,-8.75 -8.3711,0.22656 -16.301,3.8125 -21.996,9.9492 l -56,59.66 c -30.32,31.32 -17.559,131.9 -17.559,131.9 -0.004,0 100.8,8.7617 130.8,-22.559 z M 547.82,64.66 c 4.5781,-4.5977 11.969,-4.7734 16.758,-0.39844 4.6055,4.6055 4.6953,12.043 0.20312,16.758 -2.168,2.2305 -5.1328,3.5039 -8.2383,3.543 -3.1094,0.03906 -6.1055,-1.1641 -8.3242,-3.3438 -4.6016,-4.4961 -4.7812,-11.844 -0.39844,-16.559 z m -174.4,192.76 c 3.9141,-0.008 7.6719,1.5469 10.441,4.3164 2.7691,2.7695 4.3203,6.5273 4.3164,10.441 0.0156,3.9375 -1.5273,7.7227 -4.293,10.527 -2.7656,2.8008 -6.5273,4.3945 -10.465,4.4336 -3.9609,-0.0312 -7.7461,-1.6172 -10.547,-4.418 -2.7969,-2.7969 -4.3828,-6.5859 -4.4141,-10.543 0.0352,-3.9375 1.6289,-7.6992 4.4336,-10.465 2.8047,-2.7656 6.5859,-4.3125 10.527,-4.293 z"
       id="path10" />
    <path
       d="m 342.08,354 c 0,8.207 -6.6523,14.859 -14.859,14.859 -8.2067,0 -14.859,-6.6523 -14.859,-14.859 0,-8.2067 6.6523,-14.859 14.859,-14.859 8.2067,0 14.859,6.6523 14.859,14.859"
       id="path12" />
    <path
       d="m 417.48,354 c 0,8.207 -6.6523,14.859 -14.859,14.859 -8.207,0 -14.859,-6.6523 -14.859,-14.859 0,-8.2067 6.6523,-14.859 14.859,-14.859 8.207,0 14.859,6.6523 14.859,14.859"
       id="path14" />
  </g>
</svg>
