<?xml version="1.0" encoding="UTF-8"?>
<svg width="247.99pt" height="420pt" fill="white" version="1.1" viewBox="0 0 247.99 420" xmlns="http://www.w3.org/2000/svg">
 <path d="m214.34 420h-180.7c-10.457-0.77344-20.07-6.0312-26.363-14.414-6.2969-8.3828-8.6641-19.078-6.4922-29.336h246.41c2.1758 10.258-0.19141 20.953-6.4883 29.34-6.2969 8.3828-15.91 13.637-26.367 14.41zm32.848-61.25h-246.4v-323.75c-0.26172-9 3.0547-17.734 9.2227-24.297 6.1641-6.5586 14.68-10.41 23.68-10.703h180.59c9 0.29688 17.516 4.1445 23.684 10.703 6.1641 6.5625 9.4805 15.297 9.2188 24.297zm-98.527-179.38 35.875-35.875c4.4102-4.4141 6.1367-10.84 4.5352-16.867-1.6016-6.0273-6.2891-10.75-12.309-12.395-6.0156-1.6445-12.453 0.0352-16.898 4.4102l-35.875 36.051-35.875-36.051c-4.4375-4.4062-10.891-6.1094-16.93-4.4688-6.0352 1.6367-10.738 6.375-12.336 12.422-1.5977 6.0508 0.15234 12.492 4.5898 16.898l35.875 35.875-35.875 35.875c-3.3555 3.2617-5.25 7.7422-5.25 12.426 0 4.6797 1.8945 9.1602 5.25 12.426 3.2891 3.2383 7.7227 5.0547 12.336 5.0547 4.6172 0 9.0508-1.8164 12.34-5.0547l35.875-36.051 35.875 36.051c3.2891 3.2383 7.7188 5.0547 12.336 5.0547s9.0508-1.8164 12.336-5.0547c3.3594-3.2656 5.2539-7.7461 5.2539-12.426 0-4.6836-1.8945-9.1641-5.2539-12.426z"/>
</svg>
