<?xml version="1.0" encoding="UTF-8" standalone="no"?>
<svg
   width="933.33331"
   height="766.33331"
   version="1.1"
   viewBox="0 0 700 574.75"
   id="svg375"
   sodipodi:docname="donate.svg"
   inkscape:version="1.1.2 (b8e25be8, 2022-02-05)"
   xmlns:inkscape="http://www.inkscape.org/namespaces/inkscape"
   xmlns:sodipodi="http://sodipodi.sourceforge.net/DTD/sodipodi-0.dtd"
   xmlns="http://www.w3.org/2000/svg"
   xmlns:svg="http://www.w3.org/2000/svg">
  <defs
     id="defs379" />
  <sodipodi:namedview
     id="namedview377"
     pagecolor="#ffffff"
     bordercolor="#666666"
     borderopacity="1.0"
     inkscape:pageshadow="2"
     inkscape:pageopacity="0.0"
     inkscape:pagecheckerboard="0"
     inkscape:document-units="pt"
     showgrid="false"
     units="px"
     inkscape:zoom="0.58392857"
     inkscape:cx="466.66667"
     inkscape:cy="466.66667"
     inkscape:window-width="1920"
     inkscape:window-height="1093"
     inkscape:window-x="0"
     inkscape:window-y="25"
     inkscape:window-maximized="0"
     inkscape:current-layer="svg375"
     height="766.33331px" />
  <g
     id="g12"
     transform="matrix(1.308969,0,0,1.2959839,-110.07529,-74.501495)">
    <path
       d="m 450.97,330.62 -19.992,8.625 c 7.5586,2.0156 14.672,5.2656 20.777,9.6875 0.95312,0.67188 2.3516,1.7344 3.9766,3.0781 13.215,-5.7109 23.688,-11.031 32.312,-16.465 -10.309,-8.6211 -24.645,-10.75 -37.074,-4.9258 z"
       id="path2" fill="#444" />
    <path
       d="m 470.18,373.3 c 0.11328,0.67188 0.11328,1.1758 0.16797,1.8477 22.625,-6.4961 42.785,-16.52 60.145,-29.793 -2.2383,-2.8008 -5.9922,-6.4961 -11.762,-8.625 -11.031,-3.8633 -21.055,1.457 -22.902,2.5195 l -0.11328,0.11328 c -9.1289,6.1055 -20.273,11.93 -34.441,18.145 3.5859,3.9766 7.0586,9.1836 8.9062,15.793 z"
       id="path4" fill="#444" />
    <path
       d="m 430.81,432.88 c 96.602,-23.07 132.5,-56.672 134.85,-69.383 0.39062,-2.1289 1.5664,-8.8477 -1.8477,-13.105 -3.9766,-5.0391 -12.824,-4.8711 -14.559,-4.8711 -5.4336,0.28125 -9.6875,2.4062 -11.762,3.8086 -19.207,15.23 -41.887,26.488 -67.312,33.488 -0.11328,0.28125 -0.11328,0.67188 -0.16797,0.95312 -4.0898,7.9531 -16.406,8.0625 -23.016,8.1758 l -16.297,0.0547 c -18.031,0.16797 -43.062,0.39062 -73.527,0.67188 -2.0156,0 -3.6953,-1.625 -3.6953,-3.5859 0,-2.0156 1.5664,-3.6953 3.5859,-3.6953 30.465,-0.28125 55.609,-0.50391 73.641,-0.67188 l 16.184,-0.11328 c 3.9766,-0.11328 14.559,-0.16797 16.465,-4.1445 0.16797,-0.28125 0.78516,-1.457 -0.28125,-5.2656 -1.8477,-6.8867 -6.2148,-12.207 -9.9102,-15.734 -0.28125,-0.16797 -0.50391,-0.50391 -0.78516,-0.67188 -2.0156,-1.8477 -3.8633,-3.1914 -4.9297,-3.9766 -10.191,-7.3906 -21.055,-9.8008 -28.504,-10.586 -23.688,3.3047 -48.215,4.2578 -72.855,2.8008 -12.434,-0.89453 -23.969,-2.0156 -35.113,-3.8633 -2.9102,-0.50391 -5.7109,-0.78516 -8.5117,-1.0625 -36.68,-2.9102 -73.359,15.512 -95.648,48.105 l -5.7109,8.457 c 31.137,11.816 59.754,28.727 85.344,50.344 49.391,0.33594 97.887,-5.0977 144.37,-16.129 z"
       id="path6" fill="#444" />
    <path
       d="M 297.02,468.38 C 262.188,434.501 220.973,410.646 174.61,397.372 l -40.77,101.75 h 153.83 z"
       id="path8" fill="#444" />
    <path
       d="m 349.11,317.97 96.938,-96.938 c 56.336,-54.824 45.695,-100.91 38.527,-118.16 -10.754,-25.594 -35.391,-42.895 -60.93,-42 -30.238,0.55859 -56.168,24.137 -71.121,64.512 l -3.4141,9.2383 -3.4141,-9.2383 c -14.953,-40.375 -40.824,-63.953 -71.121,-64.512 h -1.1758 c -25.312,0 -49.168,16.801 -59.754,42 -7.168,17.246 -17.863,63.336 38.527,118.05 z"
       id="path10" fill="#444" />
  </g>
</svg>
