<?xml version="1.0" encoding="UTF-8" standalone="no"?>
<svg
   width="531.99628pt"
   height="500.08231pt"
   version="1.1"
   viewBox="0 0 531.99628 500.08231"
   id="svg373"
   sodipodi:docname="integrate.svg"
   inkscape:version="1.1.2 (b8e25be8, 2022-02-05)"
   xmlns:inkscape="http://www.inkscape.org/namespaces/inkscape"
   xmlns:sodipodi="http://sodipodi.sourceforge.net/DTD/sodipodi-0.dtd"
   xmlns="http://www.w3.org/2000/svg"
   xmlns:svg="http://www.w3.org/2000/svg">
  <sodipodi:namedview
     id="namedview375"
     pagecolor="#ffffff"
     bordercolor="#666666"
     borderopacity="1.0"
     inkscape:pageshadow="2"
     inkscape:pageopacity="0.0"
     inkscape:pagecheckerboard="0"
     inkscape:document-units="pt"
     showgrid="false"
     inkscape:zoom="0.79607143"
     inkscape:cx="-20.726783"
     inkscape:cy="426.46927"
     inkscape:window-width="1312"
     inkscape:window-height="969"
     inkscape:window-x="57"
     inkscape:window-y="25"
     inkscape:window-maximized="0"
     inkscape:current-layer="g371"
     fit-margin-top="0"
     fit-margin-left="0"
     fit-margin-right="0"
     fit-margin-bottom="0" />
  
  <g
     id="g371"
     transform="translate(-84.0047,-29.681)">
    <path
      fill="white"
       d="M 599.2,225.68 H 560.559 C 556.0785,210 549.918,194.321 541.52,180.321 l 27.441,-27.441 c 6.1602,-6.7188 6.1602,-17.359 0,-24.078 L 516.883,76.724 c -6.7188,-6.7188 -17.359,-6.7188 -24.078,0 l -27.441,27.441 c -14,-7.8398 -29.68,-14 -45.922,-18.48 V 46.482 c 0,-9.5195 -7.2812,-16.801 -16.801,-16.801 h -74.48 c -9.5195,0 -16.801,7.2812 -16.801,16.801 v 38.641 c -16.238,4.4805 -31.359,10.641 -45.922,19.039 L 238.559,77.283 c -6.7188,-6.7188 -17.359,-6.7188 -24.078,0 l -52.078,52.078 c -6.1602,6.1602 -6.1602,17.359 0,24.078 l 24.078,24.078 c 4.4805,-7.8398 11.762,-14 20.719,-18.48 6.7188,-3.3594 14.559,-5.6016 22.398,-5.6016 11.199,0 22.398,3.9219 31.359,10.641 l 43.121,33.039 c 17.359,-12.879 38.078,-20.719 61.039,-20.719 57.121,0 103.6,46.48 103.6,103.6 0,57.125 -45.918,103.61 -103.6,103.61 -22.961,0 -44.238,-7.8398 -61.039,-20.719 l -43.121,33.039 c -8.9609,6.7188 -20.16,10.641 -31.359,10.641 -7.8398,0 -15.68,-1.6797 -22.398,-5.0391 -8.3984,-3.9219 -15.68,-10.078 -20.719,-17.922 l -23.52,23.52 c -6.7188,6.1602 -6.7188,17.359 0,24.078 l 52.078,52.078 c 6.7188,6.7188 17.359,6.7188 24.078,0 l 27.441,-27.441 c 14,7.8398 29.68,14 45.922,18.48 v 38.641 c 0,9.5195 7.2812,16.801 16.801,16.801 h 73.922 c 9.5195,0 16.801,-7.2812 16.801,-16.801 v -38.641 c 16.238,-4.4805 31.359,-10.641 45.922,-19.039 l 26.879,26.879 c 6.7188,6.7188 17.359,6.7188 24.078,0 l 52.078,-52.078 c 6.7188,-6.1602 6.7188,-17.359 0,-24.078 l -27.441,-27.441 c 7.8398,-14 14.559,-29.68 19.039,-45.922 H 599.2 c 8.9609,0 16.801,-7.2812 16.801,-16.801 l -0.004,-73.355 c 0,-8.9609 -7.8398,-16.801 -16.801,-16.801 z"
       id="path289" />
    <path
      fill="white"
       d="m 214.48,355.04 c 0,5.6016 3.3594,11.199 8.3984,14 5.0391,2.8008 11.762,2.2383 16.238,-1.6797 l 98,-75.039 c 3.9219,-2.8008 6.1602,-7.2812 6.1602,-12.32 0,-5.0388 -2.2383,-9.5195 -6.1602,-12.32 l -97.996,-75.039 c -2.8008,-2.2383 -6.1602,-3.3594 -9.5195,-3.3594 -2.2383,0 -4.4805,0.55859 -6.7188,1.6797 -5.0391,2.8008 -8.3984,7.8398 -8.3984,14 v 34.16 h -117.6 c -6.7188,0 -12.879,5.6016 -12.879,12.879 v 57.121 c 0,6.7188 5.6016,12.879 12.879,12.879 h 117.6 z"
       id="path291" />
  </g>
</svg>
