<?xml version="1.0" encoding="UTF-8" standalone="no"?>
<svg
   width="933.33331"
   height="749.33331"
   version="1.1"
   viewBox="0 0 700 562"
   id="svg320"
   sodipodi:docname="question.svg"
   inkscape:version="1.1.2 (b8e25be8, 2022-02-05)"
   xmlns:inkscape="http://www.inkscape.org/namespaces/inkscape"
   xmlns:sodipodi="http://sodipodi.sourceforge.net/DTD/sodipodi-0.dtd"
   xmlns="http://www.w3.org/2000/svg"
   xmlns:svg="http://www.w3.org/2000/svg">
  <defs
     id="defs324" />
  <sodipodi:namedview
     id="namedview322"
     pagecolor="#ffffff"
     bordercolor="#666666"
     borderopacity="1.0"
     inkscape:pageshadow="2"
     inkscape:pageopacity="0.0"
     inkscape:pagecheckerboard="0"
     inkscape:document-units="pt"
     showgrid="false"
     units="px"
     inkscape:zoom="0.77035714"
     inkscape:cx="78.535002"
     inkscape:cy="378.39592"
     inkscape:window-width="1698"
     inkscape:window-height="969"
     inkscape:window-x="0"
     inkscape:window-y="25"
     inkscape:window-maximized="0"
     inkscape:current-layer="svg320" />
  <g
     id="g318">
    <path
       d="m 418.13,491.87 c 0,37.625 -30.5,68.129 -68.129,68.129 -37.629,0 -68.129,-30.504 -68.129,-68.129 0,-37.629 30.5,-68.133 68.129,-68.133 37.629,0 68.129,30.504 68.129,68.133"
       fill-rule="evenodd"
       fill="#444"
       id="path314" />
    <path
       d="m 162.23,157.86 6.6484,-21.602 c 21.602,-83.086 94.719,-136.26 179.46,-136.26 101.36,0 189.44,79.762 189.44,182.79 0,83.086 -56.5,152.88 -134.6,174.48 v 36.559 h -108.01 v -64.809 c 0,-36.559 26.586,-68.129 63.145,-71.453 39.883,-4.9844 73.117,-34.895 73.117,-74.777 0,-44.867 -39.883,-74.777 -83.086,-74.777 -36.559,0 -66.469,19.941 -76.438,56.5 l -6.6484,21.602 -103.03,-28.25 z"
       fill="#444"
       id="path316" />
  </g>
</svg>
