<?xml version="1.0" encoding="UTF-8"?>
<svg class="svg-icon" width="670.59" height="717.72" fill="white" overflow="hidden" version="1.1" viewBox="0 0 670.59 717.72" xmlns="http://www.w3.org/2000/svg">
 <path d="m583.25 4.0381a8.5333 8.5333 0 0 0-14.507 0l-26.667 42.88a8.5333 8.5333 0 0 1-5.2053 3.7973l-48.981 12.075a8.5333 8.5333 0 0 0-4.48 13.781l32.555 38.613a8.5333 8.5333 0 0 1 1.9627 6.1013l-3.6267 50.347a8.5333 8.5333 0 0 0 11.691 8.5333l46.805-18.987a8.5333 8.5333 0 0 1 6.4 0l46.805 18.987a8.5333 8.5333 0 0 0 11.691-8.5333l-3.6267-50.347a8.5333 8.5333 0 0 1 1.9627-6.1013l32.555-38.613a8.5333 8.5333 0 0 0-4.48-13.781l-48.981-12.075a8.5333 8.5333 0 0 1-5.2053-3.7973zm-156.59 137.69a64 64 0 0 0-128 0c0 82.475-76.416 149.33-170.67 149.33v384a42.667 42.667 0 0 0 42.667 42.667h314.03a85.333 85.333 0 0 0 83.669-68.608l51.2-256a85.333 85.333 0 0 0-83.627-102.06h-152.83a276.14 276.14 0 0 0 43.563-149.33zm-426.67 170.67a21.333 21.333 0 0 1 21.333-21.333h42.667a21.333 21.333 0 0 1 21.333 21.333v384a21.333 21.333 0 0 1-21.333 21.333h-42.667a21.333 21.333 0 0 1-21.333-21.333z"/>
</svg>
