<?xml version="1.0" encoding="UTF-8"?>
<svg width="547.52pt" height="560pt" fill="white" version="1.1" viewBox="0 0 547.52 560" xmlns="http://www.w3.org/2000/svg">
 <g transform="translate(-69.992)">
  <path d="m538.45 334.16c-1.1406-23.918-11.379-43.508-28.094-53.73-53.508-32.781-48.781-98.75-20.355-149.59 21.621-38.691 12.5-80.551-22.199-101.8-31.445-19.273-66.844-29.039-105.2-29.039-93.211 0-186.34 57.52-243.05 150.11-39.008 63.688-56.219 141.86-47.219 214.48 9.1797 74.039 44.75 135.07 97.598 167.44 30.301 18.547 64.438 27.965 101.46 27.965h4e-3c92.438 0 189.31-60.637 246.79-154.48 14.164-23.117 21.359-48.469 20.266-71.367zm-158.7-264.86c21.074 0 38.152 17.078 38.152 38.152 0 21.066-17.078 38.152-38.152 38.152-21.066 0-38.152-17.086-38.152-38.152 0-21.074 17.086-38.152 38.152-38.152zm-205.1 356.3c-21.066 0-38.152-17.086-38.152-38.152s17.086-38.152 38.152-38.152c21.074 0 38.152 17.086 38.152 38.152s-17.086 38.152-38.152 38.152zm4.9023-128.1c-21.066 0-38.152-17.086-38.152-38.152s17.086-38.152 38.152-38.152c21.074 0 38.152 17.078 38.152 38.152-8e-3 21.066-17.086 38.152-38.152 38.152zm37.445-144.55c0-21.066 17.086-38.152 38.152-38.152 21.074 0 38.152 17.078 38.152 38.152s-17.078 38.152-38.152 38.152c-21.066-4e-3 -38.152-17.086-38.152-38.152zm66.152 344.75c-21.066 0-38.152-17.086-38.152-38.152s17.086-38.152 38.152-38.152c21.074 0 38.152 17.086 38.152 38.152s-17.086 38.152-38.152 38.152zm129.89-129.95c-31.465 24.383-73.168 23.25-93.141-2.5273-19.965-25.777-10.648-66.445 20.824-90.828 31.465-24.383 73.168-23.246 93.145 2.5352 19.965 25.781 10.645 66.441-20.828 90.82z"/>
  <path d="m552.54 106.11c0-17.938 14.551-106.11 32.488-106.11 17.941 0 32.484 88.176 32.484 106.11s-14.543 32.484-32.484 32.484c-17.938 4e-3 -32.488-14.547-32.488-32.484z"/>
  <path d="m608.47 220.15c0 122.75-10.5 339.85-23.453 339.85s-23.453-217.11-23.453-339.85 10.5-104.65 23.453-104.65 23.453-18.094 23.453 104.65z"/>
 </g>
</svg>
