<?xml version="1.0" standalone="no"?>
<svg focusable="false" width="20" height="20" viewBox="0 0 20 20"
     xmlns="http://www.w3.org/2000/svg" version="1.1">
  <!-- Original icon path -->
  <path fill="#fff"
    d="M17.623 3.57h-1.555c1.754 1.736 2.763 4.106 2.763 6.572 0 2.191-0.788 4.286-2.189 5.943h1.484c1.247-1.704 1.945-3.792 1.945-5.943-0-2.418-0.886-4.754-2.447-6.572v0zM14.449 3.57h-1.55c1.749 1.736 2.757 4.106 2.757 6.572 0 2.191-0.788 4.286-2.187 5.943h1.476c1.258-1.704 1.951-3.792 1.951-5.943-0-2.418-0.884-4.754-2.447-6.572v0zM11.269 3.57h-1.542c1.752 1.736 2.752 4.106 2.752 6.572 0 2.191-0.791 4.286-2.181 5.943h1.473c1.258-1.704 1.945-3.792 1.945-5.943 0-2.418-0.876-4.754-2.447-6.572v0zM10.24 9.857c0 3.459-2.826 6.265-6.303 6.265v0.011h-3.867v-12.555h3.896c3.477 0 6.274 2.806 6.274 6.279v0zM6.944 9.857c0-1.842-1.492-3.338-3.349-3.338h-0.876v6.686h0.876c1.858 0 3.349-1.498 3.349-3.348v0z">
  </path>

  <!-- Diagonal line overlay -->
  <line x1="1" y1="1" x2="19" y2="19"
        stroke="#fff" stroke-width="2" stroke-linecap="round" />
</svg>
