<?xml version="1.0" encoding="UTF-8" standalone="no"?>
<svg
   xmlns:dc="http://purl.org/dc/elements/1.1/"
   xmlns:cc="http://creativecommons.org/ns#"
   xmlns:rdf="http://www.w3.org/1999/02/22-rdf-syntax-ns#"
   xmlns:svg="http://www.w3.org/2000/svg"
   xmlns="http://www.w3.org/2000/svg"
   xmlns:sodipodi="http://sodipodi.sourceforge.net/DTD/sodipodi-0.dtd"
   xmlns:inkscape="http://www.inkscape.org/namespaces/inkscape"
   version="1.1"
   id="svg156"
   width="360"
   height="384"
   viewBox="0 0 360 384"
   sodipodi:docname="ENABLE.svg"
   inkscape:version="0.92.4 (5da689c313, 2019-01-14)">
  <sodipodi:namedview
     pagecolor="#ffffff"
     bordercolor="#666666"
     borderopacity="1"
     objecttolerance="10"
     gridtolerance="10"
     guidetolerance="10"
     inkscape:pageopacity="0"
     inkscape:pageshadow="2"
     inkscape:window-width="1520"
     inkscape:window-height="1101"
     id="namedview14"
     showgrid="false"
     inkscape:zoom="2.4244792"
     inkscape:cx="141.36782"
     inkscape:cy="182.80241"
     inkscape:window-x="0"
     inkscape:window-y="0"
     inkscape:window-maximized="0"
     inkscape:current-layer="svg156" />
  <metadata
     id="metadata162">
    <rdf:RDF>
      <cc:Work
         rdf:about="">
        <dc:format>image/svg+xml</dc:format>
        <dc:type
           rdf:resource="http://purl.org/dc/dcmitype/StillImage" />
        <dc:title />
      </cc:Work>
    </rdf:RDF>
  </metadata>
  <defs
     id="defs160" />
  <path
     style="fill:#000;stroke-width:0.31999999"
     d="m 118.56,366.11878 c -1.5718,-0.72105 -2.89024,-2.0191 -3.77285,-3.71459 -0.55525,-1.06662 -0.67178,-1.88198 -0.68783,-4.81254 -0.0174,-3.17703 0.0621,-3.6865 0.79815,-5.11703 0.92004,-1.78803 2.92865,-3.48515 4.71061,-3.98003 0.72618,-0.20166 6.03721,-0.33171 13.59192,-0.3328 l 12.4,-0.002 v -13.90426 c 0,-9.12438 0.12434,-14.48719 0.36169,-15.59999 0.45356,-2.12649 2.33822,-4.17025 4.34353,-4.71023 0.95056,-0.25596 9.33747,-0.33428 29.16708,-0.27239 l 27.83287,0.0869 1.38742,0.96428 c 0.81103,0.56368 1.68653,1.55567 2.10741,2.3878 0.7158,1.41522 0.72,1.51005 0.72,16.23573 V 348.16 h 12.43977 c 13.46355,0 13.93152,0.0513 16.18969,1.77366 0.60459,0.46112 1.46629,1.57498 1.9149,2.4752 0.70967,1.42413 0.81564,2.04999 0.81564,4.81684 0,1.74902 -0.16712,3.73785 -0.37138,4.41961 -0.49729,1.65981 -2.19973,3.58807 -3.89051,4.40656 l -1.38017,0.66813 -58.69897,-0.007 c -56.25194,-0.007 -58.75233,-0.0314 -59.97897,-0.59418 z"
     id="path4549" />
  <path
     style="fill:#000;stroke-width:0.31999999"
     d="M 32.21112,300.14476 C 24.202786,298.80063 16.497757,293.96819 11.746307,287.30963 9.760457,284.52671 7.5627571,279.84577 6.6552566,276.46606 L 5.9286381,273.76 l -0.096027,-96 C 5.7665402,111.70693 5.8419555,80.950157 6.0743664,79.16391 7.0396784,71.744816 10.225265,65.302544 15.409535,60.285229 20.45948,55.39791 26.33208,52.547091 33.44,51.532435 36.985347,51.026339 91.63609,51.090029 91.41527,51.6 c -0.09526,0.22 -0.892528,1.984 -1.771702,3.92 -0.879174,1.936 -2.147974,5.14 -2.819555,7.12 l -1.221059,3.6 H 60.14871 c -21.530432,0 -25.736745,0.07358 -27.286854,0.477334 -5.172155,1.347175 -9.139983,5.048311 -10.895597,10.163261 L 21.28,78.88 l -0.09261,83.2 c -0.06319,56.76688 0.0141,84.01333 0.243259,85.76 0.869266,6.6255 5.698866,11.91044 12.105105,13.24637 1.223533,0.25516 41.501604,0.35231 144.639996,0.3489 155.62748,-0.005 144.84179,0.12092 148.50575,-1.73576 3.57287,-1.81051 6.73396,-5.77764 7.77184,-9.75353 0.51268,-1.96393 0.55101,-7.75289 0.56823,-85.8223 0.0122,-54.45966 -0.0933,-84.318707 -0.30119,-85.440003 -1.03481,-5.580864 -5.65587,-10.491504 -11.28227,-11.989344 -1.33753,-0.356074 -5.24996,-0.448301 -19.27811,-0.454439 l -17.6,-0.0077 -1.23174,-3.436099 c -0.67746,-1.889853 -2.08146,-5.220761 -3.12,-7.402016 -1.03854,-2.181245 -1.88826,-4.024515 -1.88826,-4.09615 0,-0.07163 9.972,-0.0824 22.16,-0.02394 l 22.16,0.106317 3.15898,0.861302 c 13.08476,3.56759 22.16233,14.27807 23.54835,27.784346 0.43875,4.275664 0.44678,187.270636 0.008,191.778806 -0.76464,7.8633 -4.06551,14.58849 -9.85024,20.06881 -4.41427,4.18198 -9.38925,6.79075 -15.26135,8.00274 -2.78851,0.57554 -7.68555,0.59417 -147.68416,0.56185 -79.639992,-0.0184 -145.496987,-0.15042 -146.348872,-0.2934 z"
     id="path4547" />
  <path
     stroke="black"
     style="fill:#ffa500;stroke-width:5"
     d="m 97.169664,234.8 c 0.324835,-1.56181 0.835517,-3.66898 1.221469,-5.04 0.222953,-0.792 0.579843,-2.232 0.793088,-3.2 0.213245,-0.968 0.574848,-2.408 0.803565,-3.2 0.743494,-2.57457 2.671074,-10.06651 3.046294,-11.84 0.13033,-0.616 0.54605,-2.01865 0.92383,-3.117 2.61367,-7.59896 7.03219,-24.08351 8.34221,-31.123 0.37666,-2.024 0.8146,-4.33763 0.9732,-5.1414 0.39161,-1.98466 -0.1339,-7.21879 -1.09623,-10.91849 -1.19333,-4.58782 -2.65953,-8.12842 -7.84546,-18.94535 -5.198606,-10.84336 -6.566219,-14.47689 -7.840382,-20.83064 -1.84775,-9.21401 -2.429382,-14.91858 -2.438563,-23.917189 -0.01274,-12.494534 1.739273,-22.66016 5.654377,-32.807971 10.882448,-28.206941 36.379148,-46.366231 69.936808,-49.810476 16.87091,-1.731574 34.92513,-0.122108 50.04684,4.461488 14.44967,4.379891 27.83864,12.325465 37.26929,22.117142 11.59427,12.038128 18.26535,26.054406 20.15797,42.352886 0.19416,1.672 0.43385,8.296 0.53266,14.72 l 0.17965,11.68 1.13745,2.08 c 0.6256,1.144 3.37227,5.896 6.1037,10.56 12.3374,21.06644 14.04148,26.75219 9.05384,30.20863 -1.85472,1.28532 -7.12183,3.06942 -9.09832,3.08184 -3.41361,0.0214 -6.0375,0.53462 -6.84081,1.33793 -0.48241,0.48242 -1.63845,3.20049 -3.17502,7.46512 -1.32901,3.68856 -3.70726,10.23448 -5.28499,14.54648 -3.40809,9.31442 -11.5089,31.59599 -13.78641,37.92 -0.88737,2.464 -1.88483,4.77728 -2.21656,5.14062 -0.33174,0.36335 -0.60316,0.8209 -0.60316,1.01678 0,0.60245 -1.58972,1.64665 -3.35316,2.20253 -1.66679,0.52541 -1.77327,0.51551 -15.24268,-1.4169 -17.51788,-2.51324 -16.70868,-2.42378 -18.01702,-1.99199 -1.67751,0.55363 -2.64805,1.90026 -5.60153,7.77216 l -2.6944,5.3568 H 152.61556 97.019917 Z"
     id="head" />
  <path
     stroke="black"
     style="fill:white;stroke-width:5"
     d="m 207.04286,150.8 c 0.002,-0.132 -0.36093,-1.896 -0.80556,-3.92 -0.44464,-2.024 -1.10847,-5.12 -1.47519,-6.88 -0.36672,-1.76 -1.00451,-4.784 -1.4173,-6.72 -1.84965,-8.67471 -2.42364,-11.40582 -3.02642,-14.4 -0.35431,-1.76 -0.96199,-4.6257 -1.35039,-6.36821 l -0.70618,-3.16822 0.78909,-0.49099 c 2.05881,-1.28104 4.99858,-4.74294 6.34473,-7.47159 3.07577,-6.234638 2.46542,-14.185796 -1.50011,-19.542209 -2.45772,-3.319744 -5.16142,-5.3856 -9.10298,-6.955427 -2.28012,-0.908122 -2.80169,-0.991364 -6.25775,-0.998743 -4.18549,-0.0089 -4.81487,0.09337 -7.5567,1.228333 -4.90502,2.0304 -8.82576,6.020358 -10.8134,11.004294 -1.59081,3.988903 -1.4873,10.276967 0.23322,14.167362 1.53173,3.46352 4.25448,6.85 6.87294,8.54836 l 0.79086,0.51296 -0.73728,3.48704 c -0.40551,1.91787 -1.01032,4.78304 -1.34403,6.36704 -0.33371,1.584 -0.9592,4.536 -1.38998,6.56 -1.37944,6.48127 -2.38182,11.27196 -3.07993,14.72 -0.37416,1.848 -1.02909,4.83162 -1.45539,6.63026 -0.42631,1.79864 -0.77511,3.41864 -0.77511,3.6 0,0.22259 6.13484,0.32974 18.88,0.32974 10.384,0 18.88129,-0.108 18.88286,-0.24 z"
     id="keyhole" />
</svg>
