<svg xmlns="http://www.w3.org/2000/svg" width="128" height="128" overflow="visible" xml:space="preserve"><path opacity=".2" d="M4 64c0 33.636 27.364 61 61 61s61-27.364 61-61S98.636 3 65 3 4 30.364 4 64z"/><path opacity=".2" d="M3 64c0 34.188 27.813 62 62 62 34.188 0 62-27.813 62-62S99.187 2 65 2 3 29.813 3 64z"/><linearGradient id="a" gradientUnits="userSpaceOnUse" x1="60.49" y1="1.742" x2="69.656" y2="126.241"><stop offset="0" style="stop-color:#a70000"/><stop offset="1" style="stop-color:#a70000"/></linearGradient><path fill="url(#a)" d="M4 63c0 33.636 27.364 61 61 61s61-27.364 61-61S98.636 2 65 2 4 29.364 4 63z"/><linearGradient id="b" gradientUnits="userSpaceOnUse" x1="57.765" y1="1.689" x2="72.515" y2="126.69"><stop offset="0" style="stop-color:#bd0000"/><stop offset=".352" style="stop-color:#c40000"/><stop offset=".869" style="stop-color:#d80000"/><stop offset="1" style="stop-color:#de0000"/></linearGradient><circle fill="url(#b)" cx="65" cy="63" r="60"/><linearGradient id="c" gradientUnits="userSpaceOnUse" x1="23.375" y1="14.566" x2="71.625" y2="67.816"><stop offset="0" style="stop-color:#e05e5e"/><stop offset="1" style="stop-color:#d81818"/></linearGradient><path fill="url(#c)" d="M57.75 56.5c24.934-8.476 65.898-6.226 65.898-6.226C117.811 23.25 93.771 3 65 3 31.863 3 5 29.863 5 63a59.81 59.81 0 0 0 4.715 23.354S32.817 64.976 57.75 56.5z"/><linearGradient id="d" gradientUnits="userSpaceOnUse" x1="63.818" y1="54.581" x2="72.118" y2="124.92"><stop offset="0" style="stop-color:#bd0000"/><stop offset=".043" style="stop-color:#c10606"/><stop offset=".294" style="stop-color:#d62424"/><stop offset=".541" style="stop-color:#e63a3a"/><stop offset=".78" style="stop-color:#ef4747"/><stop offset="1" style="stop-color:#f24b4b"/></linearGradient><path fill="url(#d)" d="M65 122C32.03 122 5.283 95.406 5.013 62.5c-.002.167-.013.333-.013.5 0 33.137 26.863 60 60 60s60-26.863 60-60c0-.167-.012-.333-.013-.5C124.717 95.406 97.97 122 65 122z"/><linearGradient id="e" gradientUnits="userSpaceOnUse" x1="-68.751" y1="-319.85" x2="-194.001" y2="-319.85" gradientTransform="rotate(180 -33 -143.25)"><stop offset="0" style="stop-color:#e57373"/><stop offset=".118" style="stop-color:#ec9393"/><stop offset=".266" style="stop-color:#f4b4b4"/><stop offset=".39" style="stop-color:#f9c9c9"/><stop offset=".472" style="stop-color:#fbd0d0"/><stop offset=".548" style="stop-color:#f9c8c8"/><stop offset=".67" style="stop-color:#f5b1b1"/><stop offset=".821" style="stop-color:#ed8b8b"/><stop offset=".994" style="stop-color:#e35858"/><stop offset="1" style="stop-color:#e35656"/></linearGradient><path fill="url(#e)" d="M65 4.101c32.97 0 59.717 26.594 59.987 59.5.001-.167.013-.333.013-.5 0-33.137-26.863-60-60-60s-60 26.863-60 60c0 .167.011.333.013.5.27-32.906 27.017-59.5 59.987-59.5z"/><linearGradient id="f" gradientUnits="userSpaceOnUse" x1="61.692" y1="46.315" x2="69.442" y2="83.065"><stop offset="0" style="stop-color:#bd0000"/><stop offset=".167" style="stop-color:#c10907"/><stop offset=".445" style="stop-color:#cd2319"/><stop offset=".796" style="stop-color:#e04c36"/><stop offset="1" style="stop-color:#ed6749"/></linearGradient><path fill="url(#f)" d="M26 49a1 1 0 0 0-1 1v24a1 1 0 0 0 1 1h78a1 1 0 0 0 1-1V50a1 1 0 0 0-1-1H26z"/><path fill="#FFF" d="M26 50h78v24H26z"/><path fill="#CCC" d="M27 51h77v-1H26v24h1z"/></svg>