<?xml version="1.0" encoding="UTF-8" standalone="no"?>
<svg xmlns:dc="http://purl.org/dc/elements/1.1/" xmlns:cc="http://creativecommons.org/ns#" xmlns:rdf="http://www.w3.org/1999/02/22-rdf-syntax-ns#" xmlns:svg="http://www.w3.org/2000/svg" xmlns="http://www.w3.org/2000/svg" xmlns:xlink="http://www.w3.org/1999/xlink" version="1.1" width="72pt" height="72pt" id="svg604">
  <metadata id="metadata45">
    <rdf:RDF>
      <cc:Work rdf:about="">
        <dc:format>image/svg+xml</dc:format>
        <dc:type rdf:resource="http://purl.org/dc/dcmitype/StillImage"/>
        <dc:title/>
      </cc:Work>
    </rdf:RDF>
  </metadata>
  <defs id="defs606">
    <linearGradient id="linearGradient612">
      <stop id="stop613" style="stop-color:#7fa8e3;stop-opacity:0.74117601" offset="0"/>
      <stop id="stop614" style="stop-color:#ffffff;stop-opacity:0" offset="1"/>
    </linearGradient>
    <linearGradient x1="50.643887" y1="5.3679295" x2="35.752094" y2="68.044357" id="linearGradient615" xlink:href="#linearGradient612" gradientUnits="userSpaceOnUse" spreadMethod="pad"/>
  </defs>
  <path d="M 12.8163,74.753 C 10.3856,73.6481 7.07107,70.1126 8.83884,65.2512 L 78.6656,20.8361 c 1.9888,1.7678 3.5356,3.2041 1.9888,7.0711 -1.1048,1.9887 -14.2527,46.6248 -14.4736,49.4975 -0.8839,3.0936 -3.425,6.8501 -7.6235,6.6291 -4.1984,-0.221 -42.6474,-8.6179 -45.741,-9.2808 z" transform="matrix(1.114903,0,0,1.114903,-5.305332,-3.889256)" id="path794" style="fill-opacity:0.30147125;fill-rule:evenodd"/>
  <path d="M 12.8163,74.753 C 10.3856,73.6481 7.07107,70.1126 8.83884,65.2512 9.72267,59.948 25.6326,13.1021 29.1682,10.8924 31.3778,8.90368 34.582,8.13026 39.1119,9.34561 c 3.7565,0.88389 37.565,9.72279 39.5537,11.49049 1.9888,1.7678 3.5356,3.2041 1.9888,7.0711 -1.1048,1.9887 -14.2527,46.6248 -14.4736,49.4975 -0.8839,3.0936 -3.425,6.8501 -7.6235,6.6291 -4.1984,-0.221 -42.6474,-8.6179 -45.741,-9.2808 z" transform="matrix(1.114903,0,0,1.114903,-8.162471,-8.460684)" id="path609" style="fill:#3d4e67;fill-rule:evenodd"/>
  <path d="M 17.8987,70.9965 C 15.3576,70.3336 11.7114,69.6706 13.0373,65.6932 15.468,55.9705 27.8424,18.6264 33.1456,13.986 c 1.2154,-1.1049 5.3033,-1.5468 13.0373,0.8839 8.8389,2.6516 26.7375,8.6178 28.5053,9.5017 1.7677,0.8839 2.4307,0.8839 1.1048,4.8614 -1.9887,3.9775 -10.8275,38.007 -13.0373,43.7522 -1.5467,4.088 -1.8782,5.9662 -4.5299,5.9662" transform="matrix(1.114903,0,0,1.114903,-8.162471,-8.460684)" id="path608" style="fill:#ffffff;fill-rule:evenodd"/>
  <path d="m 28.75,13.75 c 0,0 3.125,-6.25005 10.9375,-4.37505 C 47.5,11.25 78.125,19.375 77.8125,21.875 77.5,24.375 71.875,39.0625 71.5625,40.3125 71.25,41.5625 42.5,40.9375 31.5625,47.5 20.625,54.0625 12.5,59.6875 12.5,59.6875 c 0,0 11.25,-35 16.25,-45.9375 z" transform="matrix(0.94678,0,0,0.94678,-0.480566,0.409517)" id="path636" style="fill:url(#linearGradient615);fill-rule:evenodd"/>
  <path d="M 29.2429,15.8991 69.8423,26.6877" transform="translate(1.135645,0.851736)" id="path671" style="fill:none;stroke:#42667e;stroke-width:1pt"/>
  <path d="M 27.8233,19.306 67.8549,30.9464" transform="matrix(0.999855,-0.01703691,0.01703691,0.999855,-0.705041,5.077353)" id="path672" style="fill:none;stroke:#42667e;stroke-width:1pt"/>
  <path d="M 29.2429,15.8991 69.8423,26.6877" transform="translate(-5.394323,17.0347)" id="path673" style="fill:none;stroke:#42667e;stroke-width:1pt"/>
  <path d="M 29.2429,15.8991 69.8423,26.6877" transform="translate(-11.35647,34.0694)" id="path675" style="fill:none;stroke:#42667e;stroke-width:1pt"/>
  <path d="M 27.8233,19.306 67.8549,30.9464" transform="matrix(0.999855,-0.01703691,0.01703691,0.999855,-13.19715,38.29502)" id="path676" style="fill:none;stroke:#42667e;stroke-width:1pt"/>
  <path d="M 27.8233,19.306 67.8549,30.9464" transform="matrix(0.999855,-0.01703691,0.01703691,0.999855,-7.235008,21.26032)" id="path674" style="fill:none;stroke:#42667e;stroke-width:1pt"/>
  <g id="g666">
    <path d="m 44.8581,15.0473 c -3.4478,0 -5.1105,-2.5484 -5.1105,-6.38799 0,-3.83962 2.7983,-6.95584 6.2461,-6.95584 3.4478,0 4.5425,1.12884 4.5425,4.96845" transform="matrix(0.948718,0,0,1,4.011168,0.567827)" id="path667" style="fill:none;stroke:#4f4f4f;stroke-width:2.875;stroke-linecap:round"/>
    <path d="m 44.8581,14.7634 c -3.4478,0 -5.3944,-2.2645 -5.3944,-6.10409 0,-3.83962 2.7983,-7.807574 6.2461,-7.807574 3.4478,0 4.8264,1.980574 4.8264,5.820184" transform="matrix(0.948718,0,0,1,4.011168,0.567827)" id="path668" style="fill:none;stroke:#c2c2c2;stroke-width:0.625;stroke-linecap:round"/>
  </g>
  <use transform="translate(10.788642,1.987381)" id="use669" x="0" y="0" width="90" height="90" xlink:href="#g666"/>
  <g transform="matrix(0.69841,0,0,0.69841,31.4038,0.671206)" id="g677">
    <defs id="defs611">
      <linearGradient id="linearGradient626">
        <stop id="stop627" style="stop-color:#b5772d;stop-opacity:1" offset="0"/>
        <stop id="stop628" style="stop-color:#ffffff;stop-opacity:0" offset="1"/>
      </linearGradient>
      <linearGradient id="linearGradient619">
        <stop id="stop620" style="stop-color:#770000;stop-opacity:1" offset="0"/>
        <stop id="stop621" style="stop-color:#ffffff;stop-opacity:0" offset="1"/>
      </linearGradient>
      <linearGradient x1="66.331696" y1="23.212469" x2="63.465496" y2="20.962799" id="linearGradient622" xlink:href="#linearGradient619" gradientUnits="userSpaceOnUse" gradientTransform="scale(1.004516,0.995504)" spreadMethod="pad"/>
      <linearGradient x1="56.327614" y1="43.377247" x2="51.654526" y2="39.762909" id="linearGradient625" xlink:href="#linearGradient626" gradientUnits="userSpaceOnUse" gradientTransform="scale(0.912664,1.095694)" spreadMethod="pad"/>
    </defs>
    <path d="M 9.33685,82.1156 C 17.9129,79.7641 30.9112,77.5637 40.1097,71.8924 56.9851,62.0714 66.0118,41.6332 76.4551,25.5877 77.285,12.3086 64.1128,5.96872 59.1331,8.87345 46.4766,25.4722 37.5548,43.5235 23.4458,55.9725 19.0886,66.5542 9.12934,82.738 9.33685,82.1156 z" transform="translate(3.814559,2.934275)" id="path632" style="fill-opacity:0.28318601;fill-rule:evenodd"/>
    <path d="M 9.33685,82.1156 C 17.9129,79.7641 28.5638,74.9228 37.7623,69.2516 54.6377,59.4306 64.2512,38.4055 74.6945,22.36 75.5244,9.08092 64.1128,5.96872 59.1331,8.87345 46.4766,25.4722 37.5548,43.5235 23.4458,55.9725 19.0886,66.5542 9.12934,82.738 9.33685,82.1156 z" id="path617" style="fill-rule:evenodd"/>
    <path d="m 71.9972,20.9076 c -1.729,2.4898 -3.4581,4.9796 -5.1871,7.4694 -2.2823,-5.3946 -4.9796,-8.0919 -11.8266,-8.7143 2.2132,-2.6973 4.4263,-5.3946 6.6395,-8.0919 5.5329,-0.6225 9.8209,4.1497 10.3742,9.3368 z" id="path613" style="fill:#be6d6d;fill-rule:evenodd"/>
    <path d="m 54.776,20.9076 c 5.3946,-0.3458 9.1293,3.6656 11.2041,8.2994 -8.4377,13.6248 -15.423,27.0422 -29.6703,37.7622 0,0 -3.5272,-10.1668 -8.7143,-8.9218 6.432,-7.262 21.3709,-28.0104 27.1805,-37.1398 z" id="path614" style="fill:#ffbc24;fill-rule:evenodd"/>
    <path d="m 27.0767,58.6698 c 4.6684,-0.2421 8.6106,5.3255 7.5732,8.7144 -2.0057,1.5215 -5.2562,3.0431 -7.2619,4.5646 -0.3458,-2.7664 -2.144,-4.9104 -6.0171,-4.5646 1.729,-2.974 3.9768,-5.7404 5.7058,-8.7144 z" id="path615" style="fill:#e9dbb9;fill-rule:evenodd"/>
    <path d="m 21.7859,66.9692 c 3.5618,-0.8299 5.0488,2.6973 5.8096,4.7722 l -13.2791,6.017 7.4695,-10.7892 z" id="path616" style="fill:#586f93;fill-rule:evenodd"/>
    <path d="m 71.9972,20.9076 c -1.729,2.4898 -3.4581,4.9796 -5.1871,7.4694 -2.2823,-5.3946 -4.9796,-8.0919 -11.8266,-8.7143 2.2132,-2.6973 4.4263,-5.3946 6.6395,-8.0919 5.5329,-0.6225 9.8209,4.1497 10.3742,9.3368 z" id="path618" style="fill:url(#linearGradient622);fill-rule:evenodd"/>
    <path d="m 62.8679,12.1932 -5.3946,6.847 2.9048,1.0374 5.3946,-6.432 -2.9048,-1.4524 z" id="path623" style="fill:#ffffff;fill-rule:evenodd"/>
    <path d="m 54.776,20.9076 c 5.3946,-0.3458 9.1293,3.6656 11.2041,8.2994 -8.4377,13.6248 -15.423,27.0422 -29.6703,37.7622 0,0 -3.5272,-10.1668 -8.7143,-8.9218 6.432,-7.262 21.3709,-28.0104 27.1805,-37.1398 z" id="path624" style="fill:url(#linearGradient625);fill-rule:evenodd"/>
    <path d="m 29.6703,56.18 c 1.2449,0.7608 2.4898,1.5215 3.7347,2.2823 C 42.5344,47.6039 46.6841,36.5381 58.9257,24.6423 57.7499,23.8815 56.5742,23.1208 55.3984,22.36 48.0673,35.0857 39.6987,47.3965 29.6703,56.18 z" id="path630" style="fill:#ffffff;fill-rule:evenodd"/>
    <path d="m 34.7538,67.2805 c 0.2074,-2.1786 -0.3113,-3.7348 -1.4525,-5.4984 -1.5215,3.3889 -3.873,5.8441 -7.1582,6.6395 -0.7262,0.6224 1.2449,1.9711 1.4524,3.216 1.8674,-1.1412 7.1583,-3.7347 7.1583,-4.3571 z" id="path631" style="fill:#9c7850;fill-rule:evenodd"/>
  </g>
<script xmlns=""/></svg>