<svg xmlns="http://www.w3.org/2000/svg" height="332.4" width="382.7"><path d="M317.6.6c-.4.4-1.2.8-1.7 1-3.3 1-9.1 6.5-9.1 8.6 0 1-.3 1.2-2 1.6-2.2.5-4 3-3 4.5.6 1 .4 2.3-.5 4.6-1.2 2.6 0 5.7 2.5 6.6 1.3.5 1.5.7 1.7 1.6.1.9 1 1.8 1.9 2 .8.3 1.2 2 .7 3-.4.8-.6 1-2 1-1.7.3-1.8.4-.6 1.3 1.1.9 2.7.8 1.9 0-.2-.2-.2-.4.2-.7 1.4-1 1.7-4.2.5-5.5-.4-.4-.2-.7.4-.7 1.1 0 2 3.2 1.4 5.6-.3 1.3-.3 1.4.4 2.5.5 1 .7 1.7.8 3 .1 2.3 1 2.2 1.5-.1.3-1.2.7-.7.7.8 0 1-.2 1.5-.6 2.2-.5.6-.6.8-.3 1.1.4.6.8.5.6 0-.1-.4 1-3.3 1.4-3.3.3 0-.1 1.5-.6 2.4-.5 1-.4 1.7.3 2 .7.2 1 1.1.5 1.8-.2.5-.7.7-.7.3 0-.8-1.6-.4-2.2.5-.6.8-1.4.5-2.2-1-.8-1.3-1.4-1.8-2-1.3-.4.4.6 3 1.5 3.6.9.7.3 2.6-1.6 5.4-.3.4-.5 1-.6 1.3a36.7 36.7 0 0 0-2.7 6.4l-1 2.1c-.5 0-.5.3-1.2 3.4a479.5 479.5 0 0 1-.4 2.5c.6-1 1-1.2.8-.2-.2.8-1.1 2.8-1.3 2.8v-.8l.2-.8-.6.8-2.4 4.3c-.2.3-.3 1-.3 1.3 0 1-.5 3-.9 3.4-.3.3-.4 0-.7-1.9a8.5 8.5 0 0 0-1.5-3.8l-1.5-2.5c-.7-1.4-1.7-1.7-4.3-1.7-2.8 0-3.9-.6-2.7-1.6.2-.2.3-.6.3-1l.1-1.5c.2-.3.3-.8.3-1 0-1.1 5.8-3.5 6.5-2.8.3.3.9.4 2.5.5 2.2 0 2.8.2 3.5 1.4.7 1 1.2.8 1.4-.8.1-.7.4-1.5.6-1.7.6-.7-1.2-2.4-3-2.8-.9-.3-1.2-.5-1.6-1.2-.4-.5-.7-.8-1.1-.8-.8 0-1-.3-.5-.8.3-.4.5-1 .5-2.6.1-1.7.3-2.4.7-3.3.4-.6.6-1.3.6-1.6 0-.6 1.2-1.1 3.6-1.5 2.1-.3 3.4-.8 3.4-1.3l.5-1c.3-.3.5-.8.5-1 0-1 1.8-1.5 3.2-.8 1 .5 3.8.3 3.2-.3a2 2 0 0 0-1-.4c-.5 0-1-.2-1.3-.5-1.3-1.2-6.6 1.4-6.6 3.2 0 .6-.6.9-2.3 1.2-3 .5-5.1 2-5.7 3.8a13 13 0 0 0 0 6.4c.9 2.2-.8 4-5.4 5.5-1.9.7-2.7 1.3-3.8 3.3l-1.3 1.8c-.6.5-.6 1.3-.2 4 .4 2.8-.2 3.3-3.6 2.6-.7-.1-2.6-.3-4-.3-2-.1-3.6-.3-5.3-.8l-4.6-1a33.4 33.4 0 0 1-10.2-3c-.4 0-1.3-.5-2-1-1.2-.8-1.5-.9-2-.7a7 7 0 0 1-2.2.2c-2.2-.2-8 .7-9 1.4a51.4 51.4 0 0 0-5.8 3c-.4.3-1 .7-1 1l-1.4 1.1c-6.1 4.2-6.5 4.5-7.1 6.2-.6 1.5-1.2 2-3.5 3l-2.4 1c-1 .9-3.3 2-4.3 2.1-3 .5-4.3 3.5-1.7 4 1 .3 5-.2 6.1-.6 1.2-.5 1.6-.4 1.8.5.2 1.1 3.7 2.4 4.6 1.6.7-.6 1.5-.5 2.6.5 1.2 1.1 1.5 1.1 3-.4l2-1.5c.4-.2 1.7-1.4 3-2.6 2.4-2.3 3.1-2.8 5.2-4a9.4 9.4 0 0 0 3.4-3.2c1-1.6 1.8-1.8 3-1.1l1.6.8c.5.3 1.4 1 1.8 1.5l1.5 1.3 2.6 1.7c1 .8 2 1.4 2.2 1.4l3.6 1.8a59.6 59.6 0 0 0 13.8 6c3.1 1.4 4 1.7 7.1 2l3 .4 1.7-1c2.6-1.7 6.1-4.7 7.7-6.6.4-.5.8-.8.9-.7.2.5-1.2 5.1-2 6-1.5 1.9-2 5-1 6 1.2 1.4 2.3 3.3 2.7 4.7a6 6 0 0 0 2 2.7c1.6 1.5 1.6 1.3.8 4.2-.7 2.6-1.1 4.7-1.1 5.3a113 113 0 0 0-4.2 14c-.3.4-.6 1.5-.7 2.3-.1 1.4-.5 3-1.1 5.4-.2.5-.4 3.7-.7 7.1a60 60 0 0 1-.8 7.8c0 .3 0 1.3-.2 2.4a102.7 102.7 0 0 0-1.2 7.5l-.6 4-.7 5c-.6 4.6-.8 7.4-1 11.3-.2 2.1-.4 4.1-.6 4.6l-.5 3.3a15 15 0 0 1-.8 4.4l-.7 1.7.5 2.1.5 2-.6 1.3a72.8 72.8 0 0 0-3 6.2c-.2.8-1 2.3-1.8 3.4-1.4 2-1.3 1.6-.6 4.9a35.1 35.1 0 0 1-1.9 15.4c-.4.7-.5 1.2-1 3.3a5 5 0 0 1-.8 1.5l-.7 1.7c0 .4-.3 1.2-.5 1.7-.6 1.4-.4 2.5.6 2.8 1.4.4 1.5 1 .4 4l-1.5 6a96.3 96.3 0 0 1-3 13c-.3.4-.5 1.6-.6 2.7-.6 5.3-1.8 9.8-3.5 13a25 25 0 0 1-3.4 5.1c-.3.2-.8 1-1 1.7-1.6 3.3-2 4.1-2.8 5-.4.6-.8 1.3-.8 1.6 0 .6-.3 1.1-2 3.2l-1 1.4c0 .1-.3.4-.6.5-.3.2-.7.6-.8 1 0 .2-1.2 1.7-2.6 3.1a18.8 18.8 0 0 0-4.5 6.7l-2.5 5c-1.8 3.5-1.3 4.4 3.2 5.6l1.5.4 1.2-.7a103.5 103.5 0 0 0 3.6-2.2l2-1c1.6-.7 4.8-1.2 8-1.1.6 0 1.2-.2 1.4-.3.2-.2 1.3-.4 2.5-.5 1.4 0 2.2-.2 2.3-.4 0-.2-.2-.3-1.2-.2-1 .2-1.3.1-1.2-.2.1-.4 3-.9 3.2-.5l.6.5c.3.1.6.5.6.8 0 .3.3.8.4 1.1.6.8 1.4 4.5 1.4 6 0 1.8.3 2.7.7 2.9.7.2.4-2.5-.7-6.2-.3-1-.5-2.3-.5-2.7l-.2-1c-.2 0-.3-.4-.2-.8l-.2-1.1c-.1-.3 0-.4.2-.4.5 0 1 1 1 2 0 .4.2 1.2.7 1.9.4.6.7 1.3.7 1.5 0 .3.2.7.4 1 .5 1 .5 0 0-1.1l-.8-3.1-.7-3c-.6-1.2.6-1.8 1.7-.8.3.3 1.2.4 5.2.5 2.6 0 5.2.1 5.7.3.7.2 1 .2 1.3-.1.2-.3 1.3-.5 3-.6l3-.5c1.4-.8 12.7 0 12.7.8s1.2 3.6 1.9 4.7c.5.6 1.1 1.8 1.4 2.6.4.9 1.1 2 1.8 2.7.6.6 1.2 1.5 1.5 2 1.1 2.4 1.4 3.2 1.6 3.9.2.8.7 1.4 1 1.1.7-.3-2.1-6.6-3.8-8.5a11 11 0 0 1-2.1-4.4c0-.4-.4-1.3-.8-2-1.3-2.4-1.1-2.6 3.5-3 2-.3 4-.5 4.4-.7 1.2-.4 3-.3 3.7.3 1 .7 5.2 1.3 7.7 1 1 0 2.9 0 4.1.2 3.5.5 5.8.7 8.1.9 3.3.2 5.6 1.8 10.3 7.3l4.8 5.3 2.6 3c.8 1.3 3 1.6 2.5.4 0-.2-.4-.5-.7-.6-.9-.3-1.7-1.5-1.7-2.3 0-.5-.4-1-1.8-2.4l-2.7-2.7a21 21 0 0 0-3.9-4.1c-.5 0-3.1-2.7-3.1-3.3 0-.3-.2-.6-.6-.7-1.5-.6-.3-1.6 1.8-1.5 2 .1 2 .8 0 .9-1.8 0-1.8 0-1.5.3.3.4 3 .4 3.4 0 .4-.4 2-.3 2.5.3 1 .8 3.4 1 4.1.2.7-.8 3-1 4-.4 1 .5 1.6.5 1.6 0 0-.4-1.7-1-2.8-1.1-.5 0-.2-.1.8-.3h2c.7.4 3.8.2 3.8-.2 0-.6-20.2-.6-20.7 0-.8 1-2.6 1-2.3 0 .3-1 .5-1 2.6-1.1l2.1-.1.2-.4a84.4 84.4 0 0 1-8.4 0c-2.7 0-4.7.1-5.6.3a21 21 0 0 1-6.5 0c1-.4 4-.8 6.2-.8 1.9 0 2.3 0 1.8-.2-.6-.3-.6-.3.4-.5 1.6-.3 2.8-.2 2.8.1 0 .6.7.7 2 .4 1-.3 9.7-.2 10 .1l-.7.3-.9.2 1 .2c1.2.2 6.2.1 8.8-.2l6.7-.2c4.3 0 5 0 5-.4 0-.2-.3-.3-1.4-.3-1.8 0-2.2-.4-1.5-1.4.6-.8.6-1.8 0-1.3-.4.3-2.4.6-2.4.3 0-.5 6.5-2.2 8.4-2.3 1.6 0 5.7-.5 6-.7.5-.5-1.1-1-2.5-.8-3.6.8-5.6.4-5.3-.9.2-.7 0-.7-2.3-.1-1.3.3-1.7.5-2 1-.2.4-.6.8-.9.8-.4.1-.5.3-.5.6.1.4-.3.9-.7.9-.4 0-.2-.9.3-1.6l.5-1.2c0-1.3 1.8-3.7 3.3-4.5 2-1 6.6-6 7.3-8l.7-1.8-.8-.7c-.4-.4-1-1-1.2-1.5-.2-.4-.9-1-1.5-1.5-.7-.4-1.8-1.4-2.6-2.2-.8-.8-1.3-1.3-1.4-1l-.4.2c-.2 0-.2 0 0-.3.2-.1.3-.9.3-1.6v-1.3l-2.5-2.2a15.7 15.7 0 0 0-2.9-2.3c-.2 0-.3-.3-.3-.7 0-1-1.4-2.3-2.3-2.3a6 6 0 0 1-1.5-2.2l1.2-.6c.7-.3 1.5-.7 1.8-1 .4-.2 1.1-.6 1.7-.7.7-.2 1-.5 1.2-.8 0-.3.7-1.1 1.5-2 1.8-2 2-2.2 1.7-4.4 0-1.1-.2-2-.3-2.2-.2-.3-.6-1.9-1-3.3-.3-2 4-4 6.3-2.9 3.5 1.7 4.5-1.8 1.9-6.6-1-1.7-1.5-3-2.2-6l-1-3.7c-.2-.2-.3-.8-.3-1.2 0-.4-.2-1.2-.5-1.8-.5-1-1.7-5.7-1.7-6.4 0-.3-.2-.6-.5-.7-.3-.2-.4-.6-.4-1.6 0-.8-.4-2-.9-3.4-.7-1.9-.7-2.1-.4-2.6l.8-1.8c.5-1.3.4-1.5-.3-5a27 27 0 0 1-.7-10.7c.3-.7.3-.8 0-1.5-.9-1.7-.1-4.3 1.6-5.7a14 14 0 0 0 3.6-7.3l.6-3.8-.4-1a25 25 0 0 0-2.2-5.1c-1-1.4-2.9-5.7-2.7-6 .1-.3.4-.4 1.5-.2 1.6.2 3.7-.8 3.6-1.6-.2-.7-1.3-.6-2 0-1.2 1-2.4.4-1.8-.9.5-1 .5-1.4 0-2.4-.3-.6-.7-1-1-1.1-.8-.2-.8-.4 0-1.8 1-1.6.4-2-1.5-1-1.6 1-1.7.6-2-11.4-.3-6.4-1-8.7-3.4-11-.7-.7-1-1.2-1-1.4.4-.7 1-6 .9-6.4-.2-.6-.9-1.3-3.1-3.3-1.9-1.7-2.2-1.3 4.8-7.5a57.4 57.4 0 0 0 10.4-12.6 21.7 21.7 0 0 0 4-10c.3-.7.4-2 .5-7v-2.5l.8-.6c.4-.3 1.3-.9 2-1.2 1.2-.6 1.2-.6 1.1-1.6v-1.4c.4-.7-2-4.3-4.3-6.2-2.7-2.4-3.7-4.7-2.8-7 .6-1.2.5-1.7-.2-3-.6-1-.6-1.1-.4-3.5.3-3.4.1-4.4-1.3-6.2-.8-1-1.3-2-1.7-3.3-.7-2.4-2.8-5.6-3.8-5.6-.1 0-.1 0 0-.2.6-1-3.3-5-5.2-5.2a6 6 0 0 1-1.9-.4c-1-.7-2-.7-3.4 0-2.6 1.1-3.6 1-5-.3-.7-.6-1.4-1-1.6-1-.8.3-1.8-1.4-1-1.9.4-.3.5-.6.4-1.6v-1.2l1 .2c1 .1 2-.2 2-.6 0-.2-.4-.3-1-.3s-1.4-.2-1.8-.4c-.6-.3-.9-.3-1.4-.1-.4.2-.7.2-1.3-.1l-1.2-.4c-.4 0-.5-.1-.5-.5 0-.3-.3-.5-.9-.5-.6-.1-.7-.2-.3-.3 1-.4 1.3-.6 1.4-1.4 0-.5.4-1 1.1-1.4 2.8-1.8 3.9-3.5 4-6 0-2.7-1.5-5-3.6-5.5a3 3 0 0 1-1.4-1c-.5-.8-.8-1-1.4-.8-.6.1-1.4-.4-1.4-1 0-.2-.6-1-1.2-1.7l-1.2-1.6c0-.1-.4-.5-1-.9-.6-.5-1-1-1.2-1.7-1.2-5.2-2.7-7.4-5.8-9a16 16 0 0 0-1.8-.7l-1.7-.7-1.6-.8h-4.9c-4.7 0-4.9 0-5.7.6m8.4.8c1 .2 1.2.6.1.6-.6 0-.7.1-.7.4.1.6-.7.5-2.3-.2l-1.2-.6.8-.3 1.6-.2 1.7.3m-3 1.4l2.3.7c.3-.1 1.7.2 4 .9s2.4.7 2.2.4c0-.2-.5-.4-1-.5-3.3-1-4.2-1.7-1.8-1.4 2.5.3 6.2 2.7 6.2 4 0 .3-.1.3-.2.2-.1-.5-1-.9-1.2-.6 0 .1.3.7.8 1.3 1.8 2.3.5 2-2.3-.6-1.2-1.1-1.8-1.5-2.6-1.6-.6-.1-1.9-.6-2.8-1-1-.5-1.8-.8-1.9-.7-.2.2-.2.2 2.3 1.5 1.5.7 2 1 1.5 1-1-.1-3.1-1-3.9-1.4-1.5-1-6.5-1.2-6.8-.3-.1.3-.8.7-1.5 1-1.5.5-2 1.6-.8 1.6.4 0 .6-.2.6-.4 0-.8 1.2-1.2 2.7-1 1.2.1 2-.2 1.2-.5-1.1-.4.1-1 1.6-.6l2.1.4c.7.2 2 .6 2.8 1 .9.5 1.7.8 2 .8 1 0 6.2 4.5 6.5 5.8.3.8.9 1.2 1.7 1 .4 0 .7 0 1 .4l1.1.7c.5.2 1 .6 1.1 1l.6 1.4c.7 1.2.8 3.6.2 4.8-.5 1-.5 2 0 2l.2.4c.1.4.5.7 1.4 1 2.5 1 4 3.8 2.7 5.1-.5.5-1.1 0-1.1-.8 0-.3-.2-.6-.4-.8-.5-.4-.5 0 0 1 .4.7.3 1.5 0 1.5-.2 0-.4-.3-.5-.8a2 2 0 0 0-1-1.2c-1-.5-1.9-1.3-1.9-1.7 0-.1 0-.3-.2-.3-.1 0-.3-.1-.3-.3a607.6 607.6 0 0 1-2.2-2.9l-.6-.8H334c-2.3 0-2.8 0-3-.4 0-.2-.4-.3-.7-.3a1 1 0 0 1-1-.5c0-.3-.4-.5-.6-.5l-1.3-.4-.9-.4.9.1c1.8.4 7 .5 7.3.2.6-.6 1.6-.3 3 1 .7.8 1.2 1.2 1.1 1 0-.3 0-.8.2-1.2.5-.9.5-1.4-.2-3-.5-1-.6-1.5-.4-1.8l.2-.6c0-.3-2.1-1.4-2.5-1.4-.5 0-1.2-.6-3.5-2.9-1-.9-1.7-1.4-2-1.4-.4 0-.8-.2-1-.4-.5-.6-4.5-2.6-5.2-2.6-.8 0-.5.3 1 .9l1.8.9 1 .5c.7 0 1.4.7 1.4 1.3 0 .6 0 .6-2-.7-3.3-2.2-5.2-2.8-6-1.9-.5.5-.7.5-2 .4-1.7-.2-2 .2-.5.6.5 0 1.5.3 2.3.5l2.2.8c1.3.8 1.9.1.8-1-1-1-.5-1.1.7-.3l1.7 1c.5.2 1.5 1 2.1 1.5.7.6 1.3 1 1.5 1l1.4.8c.7.4 1.8 1 2.6 1.1 1.4.4 2.5 1.3 2.5 2 0 .5-1.2.5-2.8 0a8 8 0 0 0-2.8-.2c-1.6.1-1.6.1-2-.5-.1-.4-.4-.7-.5-.7-.4 0-4-1.8-4.1-2l-.5-.2c-.3 0-.6-.3-.7-.6-.2-.4-.8-.8-1.8-1.1-3.1-1.2-4.9-1.4-3.7-.5.5.4.5.4-.3.6-1 .2-.8.6.2.6.8 0 3 .7 3 1 0 .5-.9.7-2.6.8-1.6 0-1.8.1-1.7.5 0 .4 0 .5-1 .3h-1.2c0 .2.8.5 1.9.6 1 .2 1.8.4 1.8.6 0 .1-.2.2-.5.1l-.5.1c0 .2-1 .3-2 .4-1 0-1.8.2-1.9.3-.2.5-2.7.3-3.3-.2l-.6-.5.5-.7c.5-.7.6-.8.1-1.2-.5-.4-.8-.3-.6.3.1.3 0 .4-.3.2-1-.4-2-.4-2.9 0-1 .5-1.4.2-1-.6.3-.5 2.1-1 3.3-.7.6.2.7.1.7-.3 0-.6-.4-1-1.4-1.2-1-.2-1-.6 0-.6.5 0 .7-.1 1-.6 0-.4.5-.6 1.2-.8l2.6-.7 2.5-.4c.9 0 1.1 0 1.1-.4 0-.3-.1-.4-.8-.2l-2 .3c-.5 0-1.6.3-2.4.5-1.5.4-1.9.3-.8-.3 1-.6 1-.8.3-1.1-.7-.4-.6-.8.4-1.8 1.3-1.2 7-4 8.3-4 .5 0 .8-.1.9-.5 0-.5.2-.5.5-.2l2.5 1m7.3-.7c.3.3-.2.5-.8.3-1-.4-1-1 0-.6.4 0 .8.3.8.3m-11.3 3l-.6.2c-.3 0-.5-.2-.5-.3l.6-.2c.4 0 .6 0 .5.2m7.5 2.2l1.6 1 1.8 1c.4.5.6.2.3-.4-.2-.3-.6-.6-1-.7-.4 0-1.1-.4-1.6-.6-1-.5-1.5-.6-1-.3m-3.9.4l.8.4c.1 0 0-.2-.3-.4-.2-.2-.5-.3-.7-.3l.2.3m10.1 1l1 1.2c0 .3-1-.3-1.2-.7a3 3 0 0 0-1-.7c-.8-.4-1-.9-.3-.9.3 0 1 .5 1.5 1M320 12.2c.5.4.5.4-.1.4-.4 0-.8-.2-1-.4-.4-.5.4-.5 1.1 0m5.9.1c0 .8 1 1.4 2.4 1.5 1 0 1.1 0 .5-.2-.4-.1-1-.4-1.3-.7-1-.9-1.6-1.1-1.6-.6m-20.5.6l-.5 1c-.6 1-.7 1.6-.4 2.4.2.7-.3 1.4-1 1.3-.6-.1-1.4-1.5-1-1.7.2 0 .4-.3.4-.5 0-1 .6-2.1 1.3-2.4 1-.5 1.2-.5 1.2-.1m21.3 2.8c1.4.8.4 1-1.1.2a5 5 0 0 0-2.2-.5c-.7 0-1.3-.2-1.4-.3-.4-.6 3.5-.1 4.7.6m-6.3-.3l-.8.2c-.5 0-1 0-1.4.2l-.6-.1c0-.4.6-.5 1.8-.6.6 0 1 .1 1 .3m4 .8c0 .2-.3.3-.7.2-.5 0-1 0-1.2.2-.3.3-.4.3-.7 0l-.6-.2c-.6.1-1 0-.6-.3.5-.3 4-.2 3.9.1m-15.9.8c0 .2.1.4.3.4.1 0 .5.2.7.5.4.3.9.5 1.5.5s1.5.1 2 .3c2.5.8 4.8.6 8.6-.9 2.1-.7 4.1-.4 5 .9.2.5.2.5-.5.3-2.7-.6-3.5-.7-4.7-.1-2 .9-5.4 1.2-8.2.6-1.4-.3-2-.3-2.3-.1-.5.4-1 0-1.7-1-.4-.6-.9-1-1-1.1-.3-.1-.4-.3-.3-.4.2-.4.6-.3.6 0m12 .7c-.3.3-2 .8-3.3.9l-1.7.2-.6.2.6-.4 1.7-.5 2-.5c1-.3 1.5-.3 1.2.1m-12.9.4c.2.2.3.4.2.5-.3.3-1-.1-1-.5 0-.5.4-.5.8 0m22.5 0c.3.3.3.4 0 .5-.5.2-1.3-.3-1-.7.1-.3.7-.2 1 .2m-23.6.3c0 .3.7.8 1.4 1.2.7.3 1.2.8 1 .9 0 .1-.1.2-.2.1a26 26 0 0 0-2.7-1.1c-1.5 0-2.8 4.8-1.5 5.6 1.2.7 1.3.9.4.9-1.9 0-3.6-2.7-2.7-4.3l.6-1.6c.1-.5.4-1 .6-1.1l1.1-.6c1-.5 1.8-.5 2 0m28.2-.1c.5.1 1 .3 1 .5 0 .3-.6.2-1.7-.3-1-.6-.8-.7.7-.2m-.3.8c1.1.6 1 .7-1.1 1.2-1.7.5-2 .5-3 .2-1.5-.5-1.6-.8-.4-1l1.6-.5c1.1-.4 2-.3 3 .1m-9.5.7c.8.7.7 1.2-.1.7-.5-.3-.6-.2-.9.1-.3.5-1.6 0-1.6-.6 0-.2 1.2-.7 1.7-.7l.9.5m3.3.4c0 .6-.6.7-1.4.3-.7-.4-.6-.7.3-.8 1-.1 1.2 0 1.1.5m19.8.7c2 1.1 3.1 4.8 2 6.8-.4 1-2.2 2.6-2.7 2.5-.3 0-.3-.2.2-.6 2.3-2.1 2.1-7.1-.2-7.1-.6 0-.8-.2-1.1-.8-.8-1.4 0-1.7 1.8-.8m-42.3.2c-.2.3-.7-.1-.5-.4 0-.2.2-.2.4 0 .1.1.2.3.1.4m15 .1c0 .2 0 .3-.3.3-.2 0-.4-.1-.4-.3l.4-.2c.2 0 .4 0 .4.2m23.3 1c0 .3-.2.5-.4.5-.4 0-.5-.7-.2-1 .2-.3.6 0 .6.5m-28.8-.2c0 .3-1.1.7-2 .7-1.2 0-1.1-.3.2-.6 1.6-.4 1.8-.4 1.8-.1m8.4 0c.3.5-.1.5-.8.1l-.7-.4h.6c.4 0 .8.1.9.3m2 .1c1 .5 1.1.9.3.9-.6 0-1.5-.7-1.5-1 0-.4.2-.3 1.2.1m20.2.5c-.2.6.1 1.4.5 1.4.5 0 .5 0 0 1.5-.6 1.8-.8 1.7-1.9-.2-.3-.5-.2-.7.1-1 .2-.1.5-.6.6-1.2 0-.5.3-.9.5-.9.3 0 .4.2.2.4m-36.1.2c0 .7 4 1.1 6.2.7 5.8-1.2 5.9-1.2 7-.2.4.3 1 1 1.3 1.5.7 1.2 1.4 1.7 2.4 1.7h.7l-.7-.3c-.9-.2-2-1.2-2-1.7 0-.7 6.4.2 7.2 1 .3.4.5.4 1.4 0 1-.3 2.2 0 1.2.4-.2 0-.3.3-.3.7.2 1-.5 1.8-1.5 2-.6 0-.8.1-.9.7 0 .7.7 1.3 1 .7 0-.1.2-.3.5-.3.2 0 .7-.2 1-.5 1-.7 1.5-.6 1.5.3 0 1.1.5 2.2.5 1.2 0-1.1 1-1.7 1-.6l.4 1c.4.6.4.7-.1.8-.9.2-.6.6.4.6 1.2 0 1.4.2 2.6 2.6.9 1.9 1.3 2.5 2.7 4.5.5.7 1 1.6 1.1 2l.4.8c.3.2.3 1.5 0 1.7l-.2.6c0 .5-1.3 1.8-1.7 1.8l-.9.6c-.3.4-1.1 1-1.8 1.3-.9.5-1.3.9-1.7 1.8-.6 1.2-2.5 2-4.9 2-1.2 0-2.1.7-3 2.3-1.1 2.3-1.9 2.6-4.3 1.7-1.8-.6-2.6-.5-3.3.7-.8 1.2-1 1.2-2.5 0-1.8-1.5-1.8-2 0-6.3 1-2.4 1.9-3.5 3.5-4.3 1.6-.8 1.8-.7 2.8 1 .8 1.4 1.7 1.8 1.4.6l-.6-2.2-.4-1.7.6-.5c.3-.3.5-.6.4-.7-.2-.2-2.7 1-4 2-2.5 2-5.3 1.8-6-.5l-.4-1.4c-.2-.8-.5-1.2-1.3-1.7-1.1-.9-1.5-2-.3-1.3.5.3.7.3 1.3.1l2.2-.5c1.2-.3 1.6-.5 1.7-.8.3-.8-.2-1.1-1.2-.8-3.2 1.3-5.8 1.5-5.8.5 0-.4.2-.5.9-.6.6 0 .9 0 1-.4 0-.3.3-.7.6-1 .4-.3.5-.4.1-.7-.6-.4-1.1-.3-2 .5-1.3 1.3-3.2.7-2.8-.8.3-1.4-.7-6.4-1.4-6.4l-.8-1c-.3-.6-.8-1-1-1-1 0-1.5-1-1.5-2.4s0-1.4.8-1.4c.5 0 .7-.1.7-.4 0-.2.2-.3.4-.3s.4.1.4.3m18.6.3l.6.4c0 .2-.2.2-.5.1l-1-.2c-.3 0-.6-.2-.7-.4 0-.2 0-.3.4-.2l1.2.3m-13.2 1.2c-1.5.5-2.2.9-2.2 1.3 0 .6.5.7 1.2.3a3 3 0 0 1 1.4-.4c.5 0 1-.2 1.3-.4.3-.2.8-.3 1-.2.5 0 .6 0 .6-.3 0-.7-1.6-.8-3.3-.3m28.3.5s-.1.2-.3.2c-.4 0-.5-.6-.2-.9.1-.1.5.3.5.7m-27.1 1.3c-1 .7-.7 1.6.5 2.4 1.6 1 1.6 1 2.5-.4.4-.7 1-1.3 1.3-1.4.3-.2.6-.4.6-.6 0-.3-4.4-.4-4.9 0m31.9.5l-.2.5c-.2 0-.3 0-.3-.4 0-.2.1-.5.3-.5l.2.4m-10.4.2c1.3.3 1.3.4.8 1.7-.3 1-.9 1-.9-.2 0-.3-.2-.7-.7-.9-1.5-.7-1-1.1.8-.6m2.4.6c0 .4.3.6 1.1 1 1.5.5 1.7.3.4-.4-.6-.3-1-.7-1-.8 0-.1-.1-.2-.3-.2l-.2.4m-30.5 1c0 .2-.2.3-.5.3s-.5-.1-.5-.4c0-.2.2-.3.5-.3s.5.1.5.3m-2.4.7c.1.1 0 .4-.1.6-.3.3-.9-.3-.6-.7.2-.3.5-.2.7.1m33.9 1.6c.5.5.5.8.4 2.4 0 2.3-.3 2.3-1.1-.2l-1-2.4c-.2-.7 1-.6 1.7.2m-30 2.2c0 .7-.4 1-.6.3-.3-.7-.2-1.2.1-1 .2 0 .4.3.4.7m32.3 1.6c0 .5-.9.4-1 0-.3-.8-.2-.9.4-.6.4.2.6.4.6.6m-.4 2.2c.3.2 1.6.4 3 .5 2.7.2 3.2.5 3.4 2.1l.1 1.1-1-.2c-4.6-.8-4.3-.7-5.4-2.1-1.2-1.8-1.2-2.1 0-1.4m10.7 2c-.2.2-.8.4-1.1.4-.9 0-1 .4-.2.5.4 0 .6.3.7.7 0 .7.3.7 1 0 1-1.1.7-2.4-.4-1.6m-36.5 2.3c-.2.4.3.9 1 .8.7-.1.7-.8-.2-1l-.8.2m31.1.9c0 .2-.1.4-.6.5-.7.1-1-.1-.7-.7.1-.5 1.2-.4 1.3.2m-33 1.2c0 1 .5 2.2 1.4 3.2 1 1.2-.2 4.5-1.6 4.5-.5 0-.2-1.2.5-1.9.9-.8 1-1.2.2-1.4-.2-.1-.5-.4-.5-.7 0-.7-.3-1.2-.7-1.2-.7 0-.9-.4-.5-1.2l.5-1.4c.3-.9.7-.9.7 0m33.7 1c.6 1 .6 1.1.2 1.4-.2.2-.3.5-.2.8.2.4.7.5 1 .2 0-.2 1-.2 3-.1 1 0 .8.7-.9 2.3-1.7 1.7-1.9 1.8-2 .7-.2-.7-.3-.7-.8-.6-.6.1-.7 0-1-.6-.1-.7-.3-.8-1-.7-1.3.1-1.2 1.4.1 2 .5.2 1 .6 1 .8 0 .2 0 .4.2.4s.3.1.2.3c-.2.4-2.1.3-2.7-.2l-.7-.4c-.8 0-.8-.7 0-2.5.5-1.3.6-1.9.5-2.2-.4-.7 1.2-2.7 2.1-2.8.2 0 .6.5 1 1.2m-32.1 0c.3.4.2.8-.2.8-.2 0-.9-1.1-.9-1.7 0-.1.8.5 1 .9m34.6.3c0 .2-.3.3-.6.3-.2 0-.4-.1-.3-.3l.5-.2.4.2m9.7.6l1.8.6c1 .2 1.5.8 1.4 1.9-.1 1 1.5 3.4 3 4.7 2.2 1.7 4.4 6.5 4 8.4-.7 2.3-.5 3 1.3 6.9a16 16 0 0 1 1 2.4c0 .7-1 2-1.7 2.3-.5.1-.8.4-.9.9-.1.6-.3.7-2.6.7-1.3 0-1.7 1.5-.8 2.8.7.9.4 1.2-1.5 1.6-2.7.5-4.7-.7-2.1-1.3.4 0 .3-.2-.5-.6-1-.5-1-.9.1-1.2.6-.1 1 0 1.3.3.6.5 1.1.1.7-.7-.2-.4-.2-.6 0-.8 1-1-.1-1.2-1.8-.3a6 6 0 0 1-3 .7c-1.7 0-3 1.1-4.2 3.5-1 1.9-2.2 2.5-3 1.6-.4-.6 0-6.7.5-7.2.2-.3.3-.7.2-2-.2-1.7-.1-1.8.4-2.3.9-.7.8-1.2-.3-2.5-1.2-1.6-1.9-1.7-1.2-.3.4.8.6 3 .4 6 0 1-.4 1.2-.6.4 0-.3-.9-1.3-1.8-2.2-2.6-2.7-3.6-11.6-1.3-11.6.5 0 .7-.6.5-1.5-.8-2.7 1.5-6.3 4.1-6.3 1 0 1.9-.5 1.9-1 0-1 2.8-.7 4 .3l1.3 1c.3.1.9.8 1.2 1.3l1.1 1.9c.6 1 1.2 1.5 1.5 1.2v-.6c-.3-.2-.8-1.1-1.3-2l-1.9-2.3c-.5-.5-1-1-1-1.2 0-.6-.8-1-2.7-1-2.7 0-3.3-1-1.4-2.3 1.1-.9 1.8-1 4-.2m-52.6 2.8c0 .4-.1.6-.4.5-.2-.1-.4-.4-.4-.6 0-.3.2-.5.4-.5s.4.2.4.6m11.8-.2c.1.2-.2.8-.6 1.5l-1.3 2.1c-.7 1.2-1.4 2-2 2-.2 0-.5.3-.8.6a2 2 0 0 1-.8.7c-.3.1-.7.6-1 1-.3.6-.5.7-.5.4-.2-.8.4-1.7 1.7-2.6a6 6 0 0 0 1.6-1.7c.9-1.9 3.4-4.5 3.7-4m24.2.3c0 .6-.4 1.3-.7 1.3-.4 0-.4-.4 0-1 .3-.5.7-.7.7-.3m11.5.2c0 .3 0 .4-.4.3-.2 0-.5-.2-.5-.4-.1-.2 0-.3.3-.3.2 0 .5.3.6.4m-42 1c0 .2-.1.3-.2.3a5 5 0 0 0-.8.2l-.5-.1c0-.3.5-.5 1.2-.5.1 0 .3 0 .3.2m29.9 1.2c-.3.2-.5-.2-.3-.6.2-.5.2-.5.3 0v.6m-3.9-.2c0 .3-.2.5-.5.5-.6 0-.6-.3-.2-.7.4-.5.7-.4.7.2m-27.8.5c0 .3-.1.5-.3.5-.3 0-.4-.2-.4-.5s.1-.5.4-.5c.2 0 .3.2.3.5m33 .7c-.2.2-.3.2-.5 0a.5.5 0 0 1 0-.5c0-.2.2-.2.4 0v.5m-29.4.3c-.1.3-.7.8-1.2 1.1-1.5 1-2.4 2.8-1.9 4 .3.6.4.7.4.2 0-.8.1-.7 1.4.5l1 1.3c0 .3-.6.1-1-.3-.3-.3-.7-.6-1-.6-.4-.2-.3 0 .4.8.5.5 1 1.3 1.2 1.8.2.7.4 1 .7.9 1-.2.6-2.5-.6-4-1-1.2-1-1.3-.2-2.1.9-.8 1.3-.8 1.3 0 0 .5 0 .7.4.8.2 0 .7.3 1.1.7l1.2.8c.7.2.7.6.2 2.3-.7 2.5.4 2.3 1.6-.3.4-1 .6-1 1.5-.4.6.4.8.8 1 1.9.4 1.5.5 1.6 1.3 1.4.6-.1 1-1 .8-1.7-.1-.4-.8-.5-.8 0 0 .2-.4-.1-1.5-1.5-.8-1 .3-2.5 1.6-2.3l1.8.3c.6.1 1.3.4 1.6.7.6.6 1.9.6 3 0 .4-.3 1-.6 1.3-.6.8 0 1.3-.3 1.1-.8 0-.2.1-.5.4-.6l.4-.7c0-.2.2-.4.4-.5.7-.2.4-.5-.4-.7-1-.1-2 .3-2.7 1.3-.2.4-.5.6-.6.5-.3-.2.3-1.5.9-2 .6-.5.8-.6 2.7-.8l3.1-.8c2.3-.7 2.7-.7 2.5.3-.3 1.3-.8 2-2 2.6-.6.3-1.1.7-1.1 1l-.6.3c-.7 0-.7 1.1 0 1.5l1 .8c.8.5 1.3.5 1.3 0 0-.1.2-.4.4-.4.2-.1.4-.4.4-.7 0-.5.6-1.1 1-.9.4.3.6-.4.1-.9-1-1 .2-3.3 1.3-2.5.9.6 1.7.8 1.2.2-.8-.7-.4-1.2.8-1 1 0 1.3 0 1.8-.4s.7-.4 1.3-.2c.4.2.9.1 1.6 0 1.1-.5 1.4-.3.8.5l-.4 1.3c0 .8-.7 1.9-1.1 1.9-.2 0-.4-.3-.4-.6 0-.6-.5-1.4-1-1.4-.4 0-.7.5-.5 1 .9 1.6 1 2.3.8 3.2-.3 1.1-.4 4.4-.2 4.8l.2 2c0 1.3.1 2 .4 2.7l.8 2a4 4 0 0 0 1 1.6l.8 1c0 .3.2.6.6 1l.6.6a5 5 0 0 1-1 2c-.4.2-.3 1.3.3 2 .2.3.5 1 .5 1.4 0 .5 0 1 .3 1 .4.2.4 3.3 0 3.4-.2 0-.3 0-.3-.3 0-.4-.5-.6-1.1-.4-.4 0-.5.2-.3 1.5.3 2.9 0 5-.9 5-.5 0-1.1-1.8-.8-2.3.8-1.3.5-3.4-.5-3.4-.9 0-1.2 2.5-.6 4.8v.7c-.5 0-1.9-2.5-2.4-4.3-.5-2-.5-2-.2-2 .1 0 .3.2.3.4 0 .6.3.4 1-.4l.5-.7-.7-1-.6-1.4c0-.6-.6-1-1-.5-.8.7-.4 2.4.6 2.4.2 0 .4.1.4.3 0 1-1.5.2-1.9-1a6 6 0 0 0-.8-1.3c-.9-1.1-1-2.8-.3-3.4.7-.7.6-1-.4-.8h-1l-.4-1.8c-.6-2.4-.6-2.3.2-2.3.6 0 1.2.7 1 1.3-.5 1.2 1.5 2 2 1 .5-.7.2-1-1.2-2-.7-.5-1.3-1-1.4-1.4 0-.3-.3-.4-.7-.3-1 .2-1.3-2.6-.5-4.5.4-.9.4-1 0-1.4-.7-.7-1.1-.4-1.1 1l-.2 1.8-.2.6-.3-.6c-.2-.5-.2-1.3.1-2.9.5-2.6.2-3.3-.6-1.6-.6 1-.6 1.2-.4 7.8.2 8.2 0 9.6-.8 9.3-.5 0-.6 0-.8.6-.3 1.2.2 5.5.8 7.7.3 1 .4 1.8.3 2.5v1.1c.4 0 .5-.2.7-1.3.4-1.8 2.2.2 2.1 2.4 0 1.4-2 3.2-2.9 2.5-.6-.4-.8-.4-.8 0 0 .2-.1.4-.3.4-.1 0-.2-.2-.2-.5.1-.5 0-.6-1.1-.9-.9-.2-1.3-.4-1.2-.6.4-1.3.3-1.5-.3-1.8-1-.4-1.8 0-2.2 1.5-.6 2-3 2-5 0-1.3-1.2-1.8-1.2-2.4 0-.5 1-.6 1-2.1 1.2-1 0-2 .3-2.4.5-1.5.7-3.5.2-4.2-1-.6-1.2-1.2-1.2-2.7.4-1.1 1-2.4 1.6-2.4 1l-.8-.8c-1-.7-1.6-.3-1.3.8.2 1-.5 1.2-1.2.5-.3-.3-.7-.5-.9-.5-.6 0-.4-1.9.3-2.5.3-.4.6-.8.6-1 0-.2.3-.6.7-1 .8-.7.9-3.5.1-4.4-.2-.2-.4-1-.3-1.5l.4.1c.7.6.4-.5-.3-1.2-.6-.5-.8-1-1-2 0-.6-.3-1.8-.6-2.7-1.3-4.1-.9-8.6 1.1-10.9.4-.3.7-.9.8-1.3.2-.8 1.5-2.8 2-3 .8-.3 2-3.3 2.9-7.2.5-2.6 1.6-4.3 2.6-4.5a5 5 0 0 0 1.5-.4c.7-.4 1-.4.6.2m-4.1 0s-.2.9-.6 1.7l-.8 2-.6 1.9-.6 1.6c0 .5-.7 1.7-2.4 4.3-1 1.4-2 3-2.2 3.7-.7 1.3-2 3-2.3 2.7-.4-.4.5-3.4 1.3-4.3 1-1.2 1.9-2.7 2.6-4.9.6-2 .9-2.2 1.6-2 .8.1 1.4-.5 1.3-1.5 0-1-.7-1.3-.7-.2 0 .5 0 .7-.3.7-.3-.1-.3-1.2 0-1.4A10 10 0 0 0 310 53c0-.6 1.8-2.3 2-1.9m21.7 6.1c-1.2 2.4-1.7 6.1-.5 5.2.4-.3.4-1.4 0-1.6-.4-.3-.2-1 .7-2.2.5-.7.8-1.4.7-1.6-.1-.5-.5-.4-.9.2m6.5 1c-.4.4-.4.6-.2 1.5.4 1 1.5 2.6 1.5 2 0-.3-.2-.6-.5-.8-.5-.4-.6-1.1-.3-2.4.3-1 .1-1-.5-.3m2.8.6c-.2.5-.1.8.2 1.3.5.8.8.4.8-1 0-1-.6-1.3-1-.3m30.5 2.3c0 .7 0 .8-.5.8-.4 0-.5-.1-.5-.7 0-1.3.8-1.4 1 0m-44.5-.3c-.3.7-.8 3.5-.7 4 .3.7 1.1.4 1.3-.6.4-3 .1-4.8-.6-3.4m-33.8 1.4c-.3.3-.3-.3 0-1 .1-.4.2-.4.2.1 0 .3 0 .7-.2.9m2.2-.8l-.2 1c0 .3-.2.4-.5.4-.6 0-.7-.2-.3-1.1.4-1 1.2-1.2 1-.3m1 1c0 .1 0 .2-.2.1a.8.8 0 0 1-.4-.4c0-.2 0-.3.2-.2.2 0 .4.2.4.4m2.3.2c0 .2 0 .4-.3.3l-.4-.6c0-.3 0-.4.3-.3l.4.6m19.8 1.4c-.6.6-1.4 1.2-1.8 1.3-.6.1-.7.4-1.7 2.7 0 .1.2.2.5 0 .4 0 .5 0 .7.5.2.6.5.3 1-1l1.5-2.5c1.3-2 1.2-2.6-.2-1m22.7 1c-.9.8-1 1.6-.4 2.5 1.3 1.8 2.7-.2 1.6-2.3-.5-.9-.4-.9-1.2-.2m7.2 3.5c.4.8.1 1.1-.6.7-.5-.3-.9-1.6-.6-1.9.2-.2.8.4 1.2 1.2m19.4 0c0 .5-.3 1.4-.5 1.9-1 1.6-.3 2.6.6 1.2.5-.8.7-3.7.2-3.8-.2-.1-.3.1-.3.8m-53.6 1c-.6 1-1.4 3.2-1.6 4.6-.2.8.2 2.6 1.5 7.2.5 1.4.5 1.6 0 2.8-.4 1.5-.5 3 0 1.6 0-.4.4-.8.6-1a71.2 71.2 0 0 1 1.4-4.7c.4-1.4.4-1.6 0-2.6l-.5-2.4c0-.7-.3-1.9-.5-2.7-.2-.8-.3-1.9-.2-2.7.2-1.5.1-1.5-.7-.2m40.3-.7c.1.2.2.4.4.4.4 0 .3-.6-.1-.7-.2 0-.3 0-.3.3m-70.8.1c0 .3-.3.5-.5.4-.3-.2 0-.6.3-.6.1 0 .2 0 .2.2m52.9 1.9l-.1 1.1c-.3 0-.5-1-.5-2 0-1.4.4-.8.6.9m-84.3-.6a59.4 59.4 0 0 0 23.4 6c4.8.3 6.7 1.2 8 3.8.4.8.7 1 1.2 1h1c1.6 1-1-2.2-2.8-3.4-1.7-1.2-1.7-1 0-2.7 1.4-1.4 1.5-1.4 2.7-1.4.6 0 1.2-.2 1.3-.3.3-.4 2.1.8 4.6 3.1 1.5 1.3 2.7 5.7 1.8 6.7-.1.2-.4 1-.5 1.8-.3 1.8-.3 1.8-2 3.6-.8.8-1.6 1.8-1.8 2.3-.3.4-.7.8-1 .8-.3 0-.5.2-.7.9-.8 2.3-5 4.3-5.6 2.7-.1-.3-.6-.4-2.1-.3-2 0-3.7-.5-5.6-1.8-.5-.3-1.2-.5-1.8-.5l-1-.2c-.1-.3-4.7-2-5.3-2-.2 0-.5-.3-.6-.6 0-.3-.3-.5-.5-.5-.3 0-2.3-.9-3.3-1.5l-.8-.3c-.3-.1-.6-.5-.7-.8-.2-.5-.4-.6-1-.6-.4 0-.8-.2-.8-.4-.1-.3-.5-.4-1.2-.4-1 0-1 0-1.4-.9-.3-.4-.6-.9-.9-1-.2 0-.5-.2-.5-.3 0-.2-.3-.3-.7-.3-1-.1-1.2-.5-.4-1.6l.7-1-.6-.4c-.7-.6-1-.6-1.6 0l-1 .6c-1 .3-.7-.5.3-1.1 1.3-.8 1-3.2-.4-2.5-.3.1-.6.2-.8.1-.3-.2-.3-.8.1-.8 1.4 0 1.3-1.4 0-1.6l-2-.4c-1.8-.5-3.5.8-4 3.3-.4 1.3-2.1 4-3.2 4.7a49.8 49.8 0 0 0-8 7l-2.7 2.1c-1.3 1.2-2.2 1.4-2.4.5-.2-1 .3-1.6 2.3-3.8 1.8-1.8 3.2-3.7 3.8-5 .2-.4-.6-1.3-1-1.3-.2 0-.8.5-1.4 1a14 14 0 0 1-5.8 3.4c-.8.2-2 .6-2.7 1-1.2.7-5.6 2-6.8 2.1-1.1.1-1-.3.1-1l2.5-1.5c.7-.5 2.6-1.5 4-2.1 3.6-1.6 7-4.6 4-3.5-2 .8-1.3-.4 1.3-2.2a7433 7433 0 0 0 5.6-4c1.1-1 6-3.5 7-3.6l2.6-.6c3.6-1.1 7.2-1.2 9.1-.3m92 .3c-.7.7-.7 1 0 1.8.8.8.9.7-.2 1.3-.7.3-.8.6-.8 1.1 0 .5-.2.9-.5 1-.5.4-.7 1.5-.4 1.8.4.4 1.4-.4 1.2-1 0-.4 0-.6.5-.8.3-.2.7-.6.9-1 .2-.7.3-.7 1-.7.8 0 .9 0 1.2-1.2.2-1.2 0-1.8-.3-1.1-.3.5-.6.3-.6-.4 0-1.1-1.3-1.6-2-.8m-48.8 1.8c0 1 .3 1.5.7 1.3.4-.3.3-.8-.2-1.4l-.5-.6v.7m19 1.2c.4 2.3.4 2.6 0 2.6-.7 0-1-1.2-.8-2.7.4-1.7.7-1.7.9.1m26.1-1c0 .3-.2.6-.3.6-.2 0-.3-.3-.4-.6 0-.4 0-.6.4-.6.3 0 .4.2.3.6m-2.8 2.9l.6 2 .6 1.7 2 4.5c.6 1.8 1.4 3.5 1.6 3.9 1.2 1.6 2 4 1.6 5.3a39.8 39.8 0 0 0-2 6.7c-.2 2-.5 1.4-.5-1 0-1.2-.1-2.2-.3-2.4l-.2-1c0-.5-.3-1-.5-1.4-.3-.3-.5-1-.5-1.4 0-.6-.2-.8-.4-.8-.4 0-.7-.9-.6-1.8 0-1 0-1.7-.3-1.7-.1 0-.3.2-.3.4 0 .4 0 .4-.4 0-.2-.4-.3-1-.2-2 .1-1 0-1.5-.2-1.7-.2-.2-.4-.6-.4-.9 0-.3-.2-.7-.4-.8-.3-.2-.4-.7-.5-2.6l-.3-4c-.2-1.8.2-2.4.5-.6 0 .5.2 1 .4 1.2l.7 2.2c.5 2.2 1 3.8 1.4 3.8.1 0 0-.5-.3-1-.2-.5-.5-1.5-.6-2.3-.1-.8-.4-1.8-.7-2.4-.4-1-1-4.1-.6-3.8l.8 1.9m-32.8-1l.4 2.3c0 .9.3 2 .6 2.6l.8 2.5c.2.8.6 1.8 1 2.2l.7 1.1c0 .3.5.9 1 1.2l1.3 1.2.5.5.4-.7c.9-1.7.7-3.6-.2-2.2-.8 1.2-1.7.8-1.5-.6.2-1 .1-1.2-.5-1.7a7 7 0 0 1-1.3-1.9c-.5-1-.9-1.3-1.3-1.4l-.5-.1a198 198 0 0 0-1.3-5.7c-.2 0-.2.2-.1.7m65.6.5c0 .1.3.3.6.3.2 0 .7.2 1 .5l1.1.6c1.2.4 1.4 2 .5 3.5-.9 1.3-.8 1.9.9 3.7a19.4 19.4 0 0 1 1.4 1.8c.7.8-.5 2.2-1.7 2-.9-.1-1 0-1 .4 0 .5-1.3 1.7-2 1.8-1.8.1-3-1-3-3 0-1.8-.5-2.2-1.1-.7-.5 1-1.2 1.5-2.1 1.3-.4-.1-.8 0-.9.1-.5.8-2.7 1.1-3 .4-.2-.6-.6-.4-.7.3 0 .7-1.2 1.1-1.8.6-.1-.2-.5-.3-.8-.3-.9 0-.7 1 .2 1.3.6.3.6.8-.1 1.2-1 .8-1.6.8-2.3.1-1.2-1.2-1.4-1.6-1-2.7l.2-3c0-1.8 0-1.9.6-2.1.4-.1 1-.6 1.5-1 1.8-1.8 5.2-3.3 8-3.7a8 8 0 0 0 2-.4c.2-.2 1-.4 1.7-.6.7-.1 1.3-.4 1.3-.5.1-.5-.7-.6-1.7-.3-1.7.4-2.2 0-1.4-1.2.7-.9 3.3-1.2 3.6-.4m-52.1 1c.6 4 .6 5 .7 7.1 0 2.3 0 2.5.6 2.9 1.6 1 2.3-.3 1.2-2.7-.3-.8-.6-1.8-.6-2.3 0-.5-.2-1.5-.5-2.3l-.8-2.5c-.3-1.6-.8-1.8-.6-.3m-70.4-.4c0 .3-.5.6-.7.5-.2-.2.2-.7.5-.7l.2.2m111 .5c-.5.9 0 2.2.9 2.1.4 0 .7 0 .7.2 0 .1-.3.3-.6.3s-.7.2-.9.5c-.4.7-1 .6-1.1-.2l-.3-1.4c-.2-.5 0-.8.4-1.3.8-.8 1.4-.9 1-.2m1.5.2l-.5.1c-.3 0-.5-.2-.5-.4 0-.3 0-.3.5-.1l.5.4m-46 1.9c0 .5-.4.6-.7.2-.2-.4 0-1 .4-.9l.2.7m31-.3c-.2.2 0 .8.4 1.7.2.4.2.6 0 .8-.2.2-.2.5 0 1 .6.6 1.2.7 1.6 0 .4-.6.2-1-.3-1-.3 0-.3-.2-.2-.8.2-1.4-1-2.7-1.6-1.7m-94.8.5c.1.1 0 .3-.3.4l-1 .4c-1.2.5-1.2.5-.3-.3 1-.8 1.4-1 1.6-.5m106.7.6c.3.3.4 1.6 0 1.8-.4.2-1-.4-1-1.1 0-1 .4-1.3 1-.7m-58 3c0 1.4 0 3-.2 3.5-.7 2.3-.8 6.3-.2 6.8.3.4.4 0 .1-.9-.3-1 0-1.6.4-1.2.3.2.4.6.2 1.6 0 1 0 1.3.2 1.4.3.1.5.7.6 1.8 0 .8.3 2 .6 2.7.7 2.1-.4 2.7-1.4.7-.7-1.3-.7-2.2-.2-2.2.3 0 .4-.3.4-1 0-.5-.1-.8-.4-.8-.2 0-.4.2-.4.5l-.3.9c-.6.7-.5 1.3.4 3.2 1 1.7 1 2.4 0 1.3-.7-1-1.4-.3-1.3 1.2.1 1.1-.6 1.7-1 .7-.3-.9-.5-1-1.3-.6-.6.3-.7.4-.5.8l.7 2c.5 1.8 1 2.3.7.7l-.4-1.5c-.3-.6-.3-1.5 0-1.4.3 0 .5.7.7 1.3 0 .7.3 1.3.5 1.4.2.1.8 1.4.8 1.7h-.5c-.6-.2-.6.3 0 1 .5.4.5.7.3.9-.3.3-1.3 0-1.3-.5 0-.2 0-.3-.2-.3-.4 0-1.3-1.9-1.3-2.6 0-1.3-1.5-3.9-2.8-4.6-1.3-.8-1-2 .8-5 .2-.4.6-1.1.7-1.6.2-.5.6-1.2 1-1.6l.6-1.1a21.7 21.7 0 0 0 1.3-4.8c0-.1.1-.3.4-.4.7-.2 1.3-2 1.3-3.7 0-.8 0-1.6.2-1.9.2-.3.2-.5 0-.6v-.5c.4-1.1.8.3.8 2.8m28-2.2c0 .9 1.2 3.7 1.4 3.4.2-.1-.6-3.2-.9-3.8-.4-.8-.5-.7-.5.4m49.5.5c2 4 2.1 4.6.6 4.6-.5 0-.8-.2-1.3-.8l-1-1.4c-.5-.7-.7-2-.2-2.8.6-.8 1.3-.7 1.9.4m-41.9 1l.4 2.9c.3 1.3 0 3.4-.4 3.5-.4.2-.7-2.1-.6-4.3l-.1-2.2v-1c.2-.8.6-.3.7 1.2m16-1c0 .4-.2.4-.5.2l-.3-.6c0-.1.1-.2.3-.2.2 0 .4.2.4.5m-49 .5c.3.2.2.2-.2.3-.3 0-.6-.2-.7-.3-.2-.3.4-.3.9 0m67.1 1l.3 2.6c0 2.3.2 2.8 1 3.1 1.5.7 2.6 0 1.5-1-1-.7-1.9-2.6-1.9-3.8 0-1.4-.2-1.9-.7-1.9-.3 0-.3.2-.2 1m-18.3.2c0 .3-.5.7-.7.5-.2-.2.1-.7.4-.7.2 0 .3.1.3.2m-2 1.3c0 .3-.2.5-.3.5-.1 0-.2-.2-.2-.5s0-.5.2-.5c.1 0 .3.2.3.5M296 84c0 .6-1 4-1.2 4.2-.3.4-.4 0 0-1l.5-2.1c.2-1.3.7-2 .7-1.1m26.6.2c.3 1 .2 1.5-.1 1.5-.6 0-.9-.5-.8-1.3.2-.9.7-1 1-.2m32.6-.2c.1.3 0 .8-.4 1.6-.7 1.4-.7 1.9 0 3.2l.4 1.3c0 .5 1.5 2 2.2 2.2 1 .2 1.4.6 1.9 1.8.8 2 .5 2.7-1.5 4.8a22.7 22.7 0 0 0-3.9 6.1c-.5 2-1.1 2.2-2 .7a7.8 7.8 0 0 1-1-4.9c0-1 0-2.5-.3-4.1-.8-4.8-.8-4.5.2-6.7a15 15 0 0 1 1.5-2.6c.7-.7 2-3 2-3.4 0-.5.6-.4.9 0m-51 .6c0 .3 0 .3-.4 0-.2-.1-.4-.3-.4-.5 0 0 .2-.1.4 0 .2 0 .4.3.4.5m43.5 1c-.2.2-.4.3-.6 0-.2-.1-.2-.3 0-.4.3-.1.4-.4.3-.6v-.6c.3-.3.5 1.2.3 1.6m4.7-1.1l-.4 1.2-.7 1.3c-.2.6-.7.5-.5-.2.5-1.7 1.7-3.4 1.6-2.3m-25.3 1.2c-.2.7-.8 1.7-1.2 2.3-.4.5-.7 1-.6 1.2.4.6 2.2-2 2.5-3.8.3-1.5-.3-1.3-.7.3m-29.4.3c-.2.2-.3.1-.3-.3 0-.5 0-.6.3-.3.3.2.3.3 0 .6m58.7.3c-.2 1.6-1.2 2.7-1.2 1.4 0-1 .6-2.5 1-2.5.2 0 .3.3.2 1.1m-59.9.2c-.2.5-.8.6-.8 0 0-.4.5-.9.8-.6v.6m8 .5c.2.4.2.7 0 .8-.2.3-.8-.4-.8-1s.7-.5.9.2M227 87c.2.3.7.4 1.6.4 1.4 0 1.8.2 1.3.7-.3.4-2 .4-2.5 0-.6-.6-1-.5-.8.1.2.8.9 1.5 1.3 1.5.5 0 .7.7.3 1-.3.5-4.6.6-5.2.2-.6-.3-.1-1.4.8-1.9.4-.2 1.1-.8 1.5-1.3.8-1.1 1.2-1.3 1.7-.7m72.4-.2c-.3.4-.1.8.4.7.3 0 .5-.3.4-.4-.1-.4-.5-.5-.8-.3m3.2.5v1c0 .2 0 .5.2.7.2.3.1.4-.3.5-.6.1-1.5-.8-1.4-1.4l.3-.8c.2-.5 1.1-.5 1.2 0m-3.3 1.2c-.4.5-.6 2-.3 2 .4 0 1.2-1.8.9-2.1-.2-.2-.4-.2-.6 0m4.8.3c.5.7.5 1.5 0 1.5-.4 0-.8-.8-.8-1.5s.3-.7.8 0m43.9 1.1c.2 1-.4 1.4-.7.5-.3-1-.3-1.1.1-1.1.2 0 .5.2.6.6m23.6.4l1.3.8 1.1-.4c1.4-.5 2.2 0 2.5 1.5l.3 1.8c.6 2.2.4 5-.4 5.8-1.5 1.6-2 2.1-2.6 3-.4.5-1.1 1.2-1.6 1.5-1.2.7-1.2 1.5 0 1.5 1.1 0 1.3.4.5 1.2a4 4 0 0 0-.7 1.2l-.7 1c-.3.2-.5.6-.5.7 0 .2-.4.8-.9 1.3-.4.6-.8 1-.8 1.2a58.5 58.5 0 0 1-12.5 12.4l-.9 1.3c-.4.6-.8 1.2-.7 1.4 0 .1-.1.4-.4.4-.9.4-1.5 1.2-1.5 2 0 1-.6 1.1-.7.1l-.5-2.7a309.3 309.3 0 0 1-1.3-7c-.3-1.1-.1-1.9 1.3-5.1.7-1.7 1.4-3.9 1.4-4.7l.5-2.2c1.4-4.3 2-5.2 5.5-9.4l1.6-2 .7-1-.6-1.2c-1-1.7-.9-2 .6-2.8l2.7-1.7 1.4-1 2.3.2c2 .1 2.6.3 3.6 1m-78.3-.3c0 .4-.2.7-.4.7s-.3-.2-.2-.7c0-.3.2-.6.3-.6.2 0 .3.3.3.6m10.3.7c.3.5.3.9.2 1-.3.3-1.1-1-1-1.4.3-.6.4-.5.8.4m46-.2c0 .2-.2.3-.3.3-.4-.2-.3-.6.1-.6.2 0 .3.1.2.3M303.2 92c.1.6 0 .8-.5.8-.2 0-.3-.3-.3-.6 0-.8.6-.9.8-.2m45.3.7l.7 2.4c.8 2.7.8 3.2.3 3.2-.7 0-1.1-.5-1.3-1.7 0-.6-.3-1.1-.7-1.5-.7-.5-.7-.6-.4-1.5.6-1.7 1.2-2 1.4-.9m-24.1.1c0 .3-.5.6-.7.4-.2-.1.2-.6.5-.6 0 0 .2 0 .2.2m7.5 1.5c0 .3-.2.5-.5.5s-.4-.1-.3-.5c0-.3.3-.5.4-.5.2 0 .4.2.4.5m-19 .3c-.2.5-.8.6-.8.1 0-.2.2-.4.4-.4s.4.1.3.3m11 .7c0 .2 0 .2-.5-.2-.8-.5-.8-.8 0-.5.3.2.6.5.6.7m9.9.6l.2 1c0 .3.1.2.1-.2 0-1 .6-1.3 1-.7.7.7-.1 5-.9 5-.3 0-.3-.2-.2-1.5v-1c0 .3-.4.6-.7.7-.4 0-.4.2-.3 1 .1.5 0 .9-.1.9s-.4.2-.5.6c-.6 1.6-3.3 2.3-3.5 1-.8-3.7.6-7.2 2-5 .5.5.5.5.9-1 .1-.8.5-.6.8.6.3 1.3.7 1 .6-.6-.1-1.4.3-2 .6-.8m-5.5 1.2l-.2 3c0 1 0 1.5-.3 1.5-.4 0-.7.5-.7 1.4 0 .4 0 .8-.2 1-.5.4 1 .9 1.9.6.4-.2 1.7-.4 3-.5 2.7-.3 4.6-.9 7-2.3 2.2-1.2 2.8-1.3 2.8-.4 0 .4-.2.8-.4.9a20.9 20.9 0 0 1-6.6 6.7l-1.7 1.2c-2.4 2.1-4 3.2-4.9 3.6-1.1.6-2 1.3-1.8 1.8 0 .2.4 0 .8-.3s1.3-1 2-1.3l2.8-2.2a68.1 68.1 0 0 1 6-4.5l1.1-1.1 1.6-1.7c1.2-1.4 1.4-1.5 2-.1l1.1 1.7c.6.7.6.9.4 2-.4 1.3-.5 2.9-.7 6.2a76 76 0 0 1-1 7.8c0 .4 0 .9.2 1.1.4.6.5.3.8-2.4 0-1 .2-2 .4-2.4l.2-2.8c0-2.6.1-3 .7-2.8l.9.4c.2 0 .5.4.5.8l1.4 4c.4 1.3.9 3.5.7 3.7-.3.3-1.7-1-1.8-1.5-.4-1.8-.9-3.4-.9-3l.4 2 .7 4 .8 4.3a75.6 75.6 0 0 1 0 17.8 4 4 0 0 1-.4 1.5c-.2.1-.3.7-.4 1.2l-.3 2.4c-.4 1.8-.2 2.6.3 1.8.2-.2.4-.8.4-1.1 0-.4.1-.8.3-.9.2-.1.2-.6.1-1.4 0-1 0-1.3.4-1.5a45 45 0 0 0 .1-19.8c0-.9-.3-2.3-.5-3.2-.4-1.8-.4-2 .4-1.3 1 1 1.5 1 2 .7.4-.4.5-.4.5 0s0 .7.2.8c.1 0 .3.8.3 1.7 0 1 .2 3 .6 4.8l.6 4.2c0 1.6.5 3.6 1 4 .8.9.7 2.7-.3 3.2-.8.4-1.4 1.3-1.4 2 0 0 .4.2 1 .2 1 0 1 0 1.1 1 .1.6.6 1.7 1 2.4 1 1.7 1.6 5.5.8 5.7-2 .6-2.5.8-2.7 1-.2.3-1 .4-3.2.2-3.2-.1-3.7-.3-4-1.1 0-.3-.3-.7-.6-1-1.2-1-2.4-12.5-2.1-19.7.2-3.6 0-6-.4-5.5-.2.2-.3 2.5-.3 7.6 0 8.2.3 11.5 1.4 15.5l.7 4.2 1 5.3c.6 2.2.6 2.6 0 2.3-.4-.1-3.7-6.6-4.5-8.7-.4-1-.6-1.4-.8-1.2-.3.5.4 2.7 2 5.7 3 6.4 3.1 6.5 7.5 11.8 4.5 5.4 4.7 7 .8 5.1-.7-.3-1.2-.8-1.3-1 0-.3-.6-.8-1-1-.6-.3-1-.6-1-.9 0-.2-.2-.6-.6-.9l-1.4-1c-.3-.5-.8-.8-1-.8-.3 0-.6-.3-.8-.7-.4-.9-2.9-2.5-3.7-2.5-.8 0-.6 1 .2 1.1 1.5.4 2.6 1 2.6 1.7 0 .5.2.8.8 1l1 1c0 .4.4.6.9.7.5.1.8.4.9.8.1.5.5.8 1.1 1 .7.3 1 .7 1.2 1 0 .4.5.8 1.2 1.1a6 6 0 0 1 1.5 1c.3.3.8.6 1.2.6.4 0 1.4.2 2.3.6.8.3 2 .6 2.5.6 1.2 0 2.7.5 2.7 1 0 .7-1.3 2.2-2 2.5-1 .3-2.5 1.7-3.4 2.9-.3.3-.8.7-1.1.7-.4.1-.8.4-1 .6 0 .2-.6.9-1.2 1.4l-1.3 1.8c-.2.5-.6 1-1 1-.5.2-1 .7-1.3 1.4-.7 1.1-1 1.4-2 1.6-.4 0-.7.3-.8.7-.3 1 .2 1 .8.2.5-.6.7-.8 1.2-.7.4.2.6 0 1.1-.8.3-.6.8-1.1 1-1.2 1-.3 2.4-1.6 3-2.6.2-.6.6-.9 1-1 .5 0 1-.4 1.7-1.7 1.2-2 1-2 2-1.2.6.6.6.7.2 1.1l-3.4 4.4c-.7 1-4 4.4-5 5.2-.4.4-1 1-1.1 1.4-.4.7-3 3-3.3 3l-1.5 1.4c-1.8 1.8-2.8 2.7-3 2.7-.2 0-.7.4-1.2 1-.6.6-1.2 1-1.5 1-.5-.1-2 1.5-2 2.2 0 .4.7.4 1 0 .2-.3.6-.5 1-.5.3 0 .7-.3 1-.7a70.4 70.4 0 0 0 12.7-12.1 109.7 109.7 0 0 1 4.3-5.1c1.3-1.6 1.8-2.2 2.1-2.8.5-.8.8-.7.7.3 0 1 .3.7 1-1a9 9 0 0 1 1-1.8l.3-.7.3-.6c.8-.6.5 1.5-.5 4-.6 1.3-1 3.6-1 5 0 1.6-.8 3.5-1.7 4.3-.6.7-.7.9-.6 1.9a28.6 28.6 0 0 1-2.5 12 31 31 0 0 1-3 6.2c-1.8 3.4-3.2 6.4-3.8 8.4A401.1 401.1 0 0 1 342 240c-1 3-2.3 6.2-3.1 7.3l-.9 1.7a14 14 0 0 1-2.2 4c-1.3 1.9-1.3 2-.3 3 1.8 2.2.6 3-3.6 2.3a301.9 301.9 0 0 0-6.8-1.1l-1.7-.5a21 21 0 0 1-4.8-1.7 1454.3 1454.3 0 0 0-6.7-3.1c-.5-.4-4.7-1.5-5.8-1.5-.4 0-.9-.2-1.2-.4-.7-.4-4.2-1.3-5.4-1.3-2.4 0-7.2-1.4-9-2.6-.6-.4-2-1-3-1.3l-2.4-1.1c-1-1-5.3-1.3-7.6-.7-1.7.5-2 .3-1.5-1.1a288.4 288.4 0 0 1 3.5-9.5l.5-2c.6-1.6.6-1.8.6-8.2l-.1-6.7.6-1c.3-.6.8-1.2 1-1.3.2-.2.5-.8.6-1.4.2-.6.7-1.9 1.3-3l1.3-3c.2-.8.7-1.8 1-2.3.5-1.2.5-1.5 0-2.7-1-1.8-.6-3.3 1-4.4 1-.7 1.2-1.4.4-1.6-.4-.1-.5-.3-.5-2.5 0-1.5 0-2.4-.2-2.4a.3.3 0 0 1-.3-.3l.4-.2c.5 0 .6-.5.7-3.9.1-1.7.4-3.8.6-4.9l.5-4.6c0-1.6.1-2.8.3-3 .1-.1.3-.6.3-1.1l.4-2.7.4-3c.1-1.2.7-4.2 1.2-6.6a37 37 0 0 0 1-7.5 30 30 0 0 1 .6-6.4 118.1 118.1 0 0 1 1.2-10l.7-2.2.7-2.6a36 36 0 0 0 1.6-6l.2-.7c0-.7.8-4.1 1.5-6 .3-.7.5-2 .6-3 .2-2 .6-3.6 1-4.1.2-.3.4-.6.4-.9 0-.6 1-3.7 1.3-4.1.8-1 .7 2.7-.1 3.8-.4.5-.5.8-.3 1 .2.1.2.5 0 1.1-1.2 3.4-1.2 4-.2 4s1.8-2 1.9-4.8c0-1 .3-2.1.5-2.6.4-.7.4-1 .1-2.6a11 11 0 0 1-.2-2.5c.1-.4 0-.7-.1-.8-.2 0-.2-.1-.1-.2.2-.3 2 1.6 2 2.2.2.4.4.6.6.6.2 0 .3.1.3.2 0 .3 1 .9 1.2.7l-1.1-2.4c-.5-.7-1.3-3-1.3-3.5 0-1 3-.8 4.5.3l1 .5 2.3.8c2.1 1 3.3 1.3 5.3 1.7.7 0 2.1.4 3.1.7 2.2.6 3.4.7 3.8.1.4-.5.4-.5-2.2-.8-1.4-.2-3-.6-3.7-1l-1.4-.6.2-1.5c0-1.1 0-1.5-.1-1.2-.2.2-.3.7-.3 1.1 0 1-.4 1.7-.6 1-.4-1.2 1-5.2 1.3-4.2.2.5.2.5.5 0 .3-.7 1.8-.6 3.5 0l.8.4v2.2c-.1 2-.1 2.1.4 2 .6 0 .5.2.8-2 .1-1.1.4-2.1.5-2.3.4-.5 2 0 2.3.7.1.4.2.1.1-1 0-1.3.1-1.6.7-1.6.2 0 .2.6.1 1.5m19.1-1c0 .3-.4.4-.7.2-.5-.2-.1-.8.3-.6l.4.4m-25.6 0c.2.4-.3.5-.8 0-.5-.3-.5-.3 0-.3l.8.2m9.3.4c0 .4 0 .4-.2.2-.2-.1-.2-.4-.1-.5.2-.4.3-.3.3.3m-4.5 0l-.1.4c-.3.3-1.4-.2-1.2-.5.1-.2 1-.1 1.3.2m12.2-.2c.2.3-1.3 2-1.7 2-.4 0-.2-1.6.2-1.9.6-.4 1.3-.4 1.5 0m-21.9.2c.7.4.6.7-.3.7-.8 0-.8 0-.3.4.5.3.6.6.6 2.2 0 2.1 0 2.2-1.2 1.9l-.9-.3.2-1.4c0-1.3 1-3.8 1.3-3.8l.6.3m7.7.4l-.3 1.7-.4 1v-1.5c0-.9 0-1.6.2-1.7.3-.4.5-.2.5.5m12-.4c0 .7-.6 3-.8 3-.1 0 0-2.5 0-3.2.1-.3.8 0 .8.2m-23.2.3c.2.1.5.4.6.7.1.6.2.6.5-.1.2-.4.5-.7.5-.6v.6c-.2.3-.4 1.2-.5 2 0 1.7-.2 2-.6 1.7-.2-.1-.2-.3 0-.5s.2-.4 0-.5c-.2-.1-.4 0-.6.2-.4.6-2.5-.2-2.3-.8.5-1 0-1.8-.6-1.2-.6.6-.8.3-.4-.6.3-.4.5-.7.7-.6.2 0 .4 0 .5-.2.1-.4 1-.4 2.2 0m-4 .4c0 .3-.8.1-1-.3 0-.1.1-.2.5-.1.2 0 .5.2.5.4m31.1 0c.5.7.5 2.2 0 2.2-.2 0-1 .3-1.6.8-3.5 2.6-6.9 3.5-4 1 2.1-1.8 3.6-3.2 4.2-3.9.7-.8 1-.8 1.4-.1m6.4.4c.4.8.4 1 .1 1.1-.3.1-.3.3 0 1l.5 1 .6-.6c.3-.3.6-.7.6-.9 0-1.6.9.4 1.3 2.7.2 1.6.3 1.9 1 3.5.6 1.5.5 1.6-1 .4a8 8 0 0 0-2-1.2c-1.2-.4-2-1.5-1-1.5.5 0 1-.9.8-1.5-.2-.5-1-.7-1.3-.2 0 0 .1.3.4.5.7.4.6.7-.3.7-1.4 0-2-2.9-1-5 .7-1.2.8-1.2 1.3 0m-41 0c.1 0 0 .4-.4.9l-.6 1c0 .2-.1.4-.3.4-.4 0-.2-1 .3-1.8.5-.7.8-.9 1-.6m21.3 1.8l.1 1.1c.3.5.3.4.3-.6 0-1.3-.1-1.5-.4-.5m-19 1.7c0 .5.7 1.2 1 1l1 .1c.6.2.7.2.4-.2-.2-.4-.5-.5-1-.5s-1-.2-1.2-.3c-.1-.2-.3-.2-.3 0m37 2c.8 1.7 1 1.9 2.1 2.3.7.2 1.6.8 2 1.2.9.7 1.4.9 2.5.8.9 0 1.2.8.9 2.1-.4 1.5-.5 1.5-2 .9-1.3-.6-1.6-1-.5-1 .4 0 .7 0 .9-.4.4-.6-.4-1.1-1.6-1.1-1.4 0-4.3-1.8-4.6-2.9l-.6-1.1c-.8-1.1-1.2-2.6-.8-2.8.5-.3.5-.3 1.6 2m-16.5-.4c.1.5-.2 1-.6.8-.4-.2-.3-1.1 0-1.1s.5.1.6.3m9.8.1a123 123 0 0 1-9.4 4.6c-1 0-2 1.4-1.4 2 .3.3 1.7-.5 2-1 .2-.7.6-.7.8 0 .2.6 0 .7 3.6-1 3.3-1.7 5.7-3.6 5.4-4.4-.2-.4-.7-.5-1-.2m-37.8 1.1v.9c-.2.3-.9-.5-.9-1.1 0-.8.6-.6.9.2m12.4.3l.4.4c.3.3.3.3.3 0s-.1-.5-.3-.5l-.4.1m23 1.3c0 .5-1.2 1.1-2.6 1.5-2.1.7-1.7.1.7-1 2-1 2.2-1 2-.5m10 2.6c.6.4 1.2 1.5 2.3 4.3l.7 1.6.4 1.2c0 .3.1.7.3.9.1.1.2.4 0 .5-.1.3-.5.4-.5 0l-.7-1.5a22 22 0 0 1-1.6-4.1c0-.2-.5-.8-1.1-1.4-1.6-1.5-1.4-2.8.3-1.5m-1.2 2.5c0 .3-.1.5-.2.5-.2 0-.3-.2-.3-.5s.1-.5.3-.5c0 0 .2.2.2.5m1.7 1c.6 1.4.8 2 .4 2.2-.3 0-1.4-2.6-1.2-3 .2-.3.3-.2.8.9m3.4.5c.6 1 .7 1.7.3 1.7-.2 0-.5-.3-.6-.6-.5-1.2-.6-1.7-.3-1.7l.6.6m-1.2 5c.7 2 1.1 3.6 1 4.6v1l-.4-1c-.3-.5-.4-1-.4-1.2.1-.1 0-.7-.3-1.3l-.6-1.7-.3-1c-.2-.4-.1-.5.2-.4.3 0 .6.5.8 1m-19.9 1.7a25.8 25.8 0 0 0-4 5.3c-.4.6 0 1.4.5 1.4s3-3.3 2.7-3.4c-.2 0-.4 0-.5.3-.3.5-1 .5-1 0 0-.3 1-1.3 3.8-4.4 1.3-1.5.2-.9-1.5.8m13.4 5.1l-.1 1.2c0 1.1.6.7.7-.5 0-1-.3-1.4-.6-.7m16.4 5c1.4 1.8 1.4 1.8.4 2-1.2.3-1.9.8-2.4 2l-1 1.6-.3 1.5c0 .9-.6 1.4-1 .8l-.2-2.5c0-1.2 0-2.3-.2-2.5 0-.3.2-1 .6-1.7.5-.7.8-1.3.8-1.5 0-.4 1.1-1.3 1.6-1.3.3 0 1 .8 1.7 1.6m2.1 4.2c-.3 3.3-.8 3.7-2.7 2.4-.8-.6-.6-1 .7-1 .8 0 .8 0 1-1 0-.7.2-1.3.4-1.3l.2-.7c0-.3.1-.4.3-.3.2.1.2.7.1 1.9m-1.9-1c0 .3-.5.5-1 .3-.2-.1-.3-.2 0-.3.4-.3 1-.3 1 0m-278.4.4c-1 .6-2.5.8-6.3.9-3 0-5.8.7-6.5 1.5-.1.2-.6.4-1 .4-1 0-2.4.6-3.2 1.5a3 3 0 0 1-1.2.8c-.2 0-.8.6-1.2 1.2a39.8 39.8 0 0 1-6.9 6.8c0 .6-1.3.1-2-.8-1-1.1-1.3-2.4-.6-3.5.5-1 .5-2-.1-2.2-.8-.5-1.5-.4-1.8.2l-1.7 2c-1.6 1.5-2.4 3.4-3.1 7.8-.3 1.3-.5 1.3-2.1.7-2.2-1-2.9.5-1.9 4 .4 1.3.3 2-.4 2.2a14 14 0 0 1-4.4 2.4c-2.4 1-2 3.1.6 3.2 1.3 0 2.8.5 2.8 1 0 1.1-.6 1.9-1.6 2.2-2.3.8-5 4.3-5.6 7.4-1.3 5.6-1.3 6-.9 9.2.3 2.1.3 2.5-.2 4.8-.7 3.3-1 7.5-.7 9.8.2 2 0 3.2-1 4.1-.9.9-1.3 1.8-1.3 3 0 1.3-.6 2.8-1.3 3.7-.4.4-.6 1-.7 2.7l-.5 3c-.6 2-1 6.6-.9 8.9.8 9-.5 15.7-3.2 16.5l-1.3.4c-1.2.5-2.3.8-3 .8l-2.1.3c-1.2.3-1.7.2-2.8-.1-2-.7-2.8-.2-3.9 3-.7 2-1 2.3-2.6 2.2-1.3 0-2 .4-2 1.3 0 .3-.3 1-.7 1.4-.4.5-.8 1-.8 1.3L2 250c-2.1 4.1-2.2 6.1-.3 6.5 1 .2 1.2.4 1.2 1.4 0 2 1.3 2.7 2.5 1.2A6.7 6.7 0 0 0 7 255c.2-2 .3-2.4 1.2-2.5.4 0 .7.2 1 1a5.5 5.5 0 0 0 4.5 2.6c1.6 0 1.7-.4.5-2.1-1.8-2.7-1.2-3.2 4.3-3.3 4-.1 4.2-.2 8-2.4 1-.6 4.2-.1 4.7.7.1.2 0 .7-.2 1.2a33 33 0 0 0-1.8 12.4l.7 2.7c.2.7.5 2.4.5 3.7a17 17 0 0 0 4.8 10.6c1 1.3.5 2-1.3 2-.5 0-.9.1-1 .5a3 3 0 0 1-.7.8c-.3.2-.4.5-.3 1 .2.5.1.6-.1.6-.5 0-.7-.4-.9-2.1-.2-2-1-2.1-2.1-.1-1.2 2-.2 4.3 2.5 5.8l2 1.6 2.6 2c.6.3 1.5 1 2 1.6a45.7 45.7 0 0 0 3.6 3.5 23.3 23.3 0 0 0 6.6 4.9c.5.4.5.4.5 0 0-.3.2-.4.3-.3.2 0 .3.2.3.4-.1.6 2 1.3 2.8 1l1.5-.3c.5 0 1-.1 1.3-.4 1.2-1.2 1.7-1.4 3.7-1a11 11 0 0 0 4.6-.2c2-.2 2-.3 2-1.2l-.4-1.6c-.2-1-.7-1.2-1.4-.5-.8.9-1.6 1-2.6.6-.5-.3-1.6-.5-2.4-.6a7 7 0 0 1-2.3-.5c-.4-.3-1.6-.7-2.6-1-1.5-.5-1.9-.7-2.1-1.4-.2-.4-1-1.2-1.6-1.8-1.3-1-1.7-1.6-1-1.6l1.3.8c.5.5 1.4 1 1.9 1.1 1.4.5 3.3 1.1 4.7 1.8.8.3 2.2.7 3.1.8 4.6.6 4.6.6 5.7 1.1l.7.3c0-.5 2.4.6 3.7 1.7 1.7 1.5 2.6 2 4.3 2.3 1.3.2 1.7.2 8.3 0H87l1-.8c1.6-1.4 2.3-1.7 3.8-1.5.9.1 1.4 0 1.5-.1.2-.4 0-.5-1.4-.7-1.2-.2-1.3-.2-1-.5.3-.2.6-.3 1-.1.2.2 1.5.2 3.3.1 4.4-.2 5.3-.2 6.2.3.4.2 1.2.4 1.7.4s1 .2 1.4.6c1.1 1 3.4.8 3.4-.4 0-1.2-1.8-3-3.7-3.7-3.1-1.1-3.4-1.2-12.8-1.3a595.6 595.6 0 0 0-13.3 0c-2-.5-2.4-4.6-1-8.3l.9-2.5c.6-2.3 1-3 2-4.4l2.6-4c2.2-3.3 3.3-4.8 4-5.5a21.8 21.8 0 0 0 3.5-4.8l1.7-3.2c.5-1.2 1.4-3.1 2.1-4.3.7-1.2 1.3-2.4 1.4-2.9 0-.4.4-1 .6-1.5 1.4-2.2 1.2-6.7-.3-8.3-.8-.9-1-1.2-1-2.2 0-.8-.1-1.3-.6-2a22.1 22.1 0 0 1-2.6-8.2l-.9-4.1c0-.8-.4-2-.8-2.8-.3-.8-.7-2-.7-2.6a6 6 0 0 0-.3-1.6 8 8 0 0 1-.4-1.8c-.1-.8-.4-1.8-.7-2.3-.5-.8-.5-1-.2-3.6.5-4.7.5-5.5.2-6.6l-.5-2.1a26 26 0 0 1-.4-3 8 8 0 0 0-.6-2.7 5 5 0 0 1-.6-1.3c0-.4-.5-1.1-1-1.6-.7-.8-.8-1.2-1-2.7 0-2-.6-3-1.5-3.2-.4 0-.5-.3-.6-1.2 0-.7-.3-1.4-.5-1.6-.2-.2-.3-.5-.2-.6.1 0 .5.1.8.5 1.2 1.5 1.4 1.7 1.4 1.9 0 .9 3 5.8 4.6 7.5.6.7 1.3 1.6 1.4 2l.6 1.6 2.3 5c0 .5.6 1.2 1.2 1.7 1.4 1.4 2.8 2.8 6.5 7.2a48.2 48.2 0 0 0 8 7.2c1.3 1.2 2.6 2 3.8 2.6l1.8 1.1a7 7 0 0 0 1.6 1c.3 0 .3.3-.4 1.9-.3.8-.8 2.3-1 3.4a16 16 0 0 1-1.1 3.3c-1.7 3.1-.7 7.7 1.8 9 2.2 1 3.3-1.6 2.3-5-.8-2.8.6-5.4 2.9-5.4 1 0 1.4.8 1.6 2.8 0 1.3.4 2.2 1.1 3.7l1 2-.3 1.6c-.2 1.6-.2 1.6-1.1 1.7-1 0-1 .2-1.6 1.7-.4 1-1.1 1.4-1.6 1l-1.9-.4c-1 0-1.7-.2-2-.4-.9-.9-1.3-.6-1.1.8.3 2.2 1.2 3.5 2.6 3.5.3 0 .8.2 1 .4 1 1 3.5.9 4.6 0 1-1 1.1-1 1.8-.6.7.5 5.2.8 5.7.4s1.3-1.7 3-4.9a8.6 8.6 0 0 1 1.4-2.2c.8-.4.8-2.3 0-2.4-.2 0-.7-.4-1.1-.9l-2.1-2.4a9.4 9.4 0 0 1-1.3-1.7l-.8-1c-1.3-1.2-1.8-2.6-2.4-6.7-.2-.7-.4-1.5-.6-1.7l-.8-1.2c-.2-.5-1.2-1.6-2.1-2.6a11 11 0 0 1-1.8-2c0-.2-.5-.8-1-1.4a48 48 0 0 1-6.5-7.6 15 15 0 0 0-1.5-1.9c-.3-.2-1-1.2-1.7-2.2-.6-1-1.5-2-2-2.4a44 44 0 0 1-2.4-2 26 26 0 0 0-2.4-1.9l-1.9-1.5-1.7-1.3-.7-.5v-1.3c-.2-2.3-2.3-6.4-5-9.9-2.2-2.5-2.4-3-2.8-6.2a65 65 0 0 0-.7-4c-.2-1-.1-1.3.2-2 .4-.7.4-.7-.6-1.8-.6-.6-1-1.3-1-1.4 0-.7-1.2-1.7-2.4-2.2-1.7-.7-1.8-1.2-.2-2.7 1.3-1.2 1.3-1.3 1.2-2.4-.4-2.4-.7-3.8-1.4-5.5-.4-1-.8-2.1-.8-2.6.1-3.5 0-5.3-.5-6.1-.6-1-.4-1.8.8-4.2.9-1.7.2-1.7-1.6 0-1.2 1-1.5 1.2-1.9 1a4 4 0 0 0-1.7-.2c-1 .2-1.4 0-3.7-1.1a74.4 74.4 0 0 0-7.5-3.7c-1.4 0-3.2-2.7-2.4-3.6 1-1.2 5-2.4 8.1-2.6 2.4-.1 3.2-.3 4.6-.9l1.7-.6c2.2-.7 2.8-1.4 1.6-1.7-.9-.2-1.3-.2-2.2.3m278.2 1c0 .2-.3.3-.6.3-.2 0-.4-.1-.3-.3l.5-.2.4.2m.2 3.6c3.2 3.6 4.5 5.3 4.7 6.5l.3 1.4.4 6.2c.1 5.8.5 9.9 1.4 12.7 1 3.7-.2 9.4-1.6 8-.3-.4-.7-4-.7-5.7 0-.8 0-1.1-.3-1.1-.8 0-1 2-.3 4.1 1 3.9.5 5.1-2.4 5.1h-1l-.1-2.1a46 46 0 0 1 1.4-13.8c.3-1-.1-4.5-.6-5-.4-.6-.3-1.9.3-2.3.4-.4.5-.9.6-4l.1-3.7-1.3-1.4c-1.2-1.4-1.4-1.5-2.4-1.5s-2.7-.5-2.7-.9c0-1.7 3.2-3.6 4.2-2.5m-293.4 2c0 .4-.6.4-.7 0 0-.2 0-.3.3-.3.2 0 .4.2.4.4m270 1.4c-.2.6 2.8 9.2 3.6 10.5l.6.8-.2-1c0-.6-.5-2-.9-3a102.8 102.8 0 0 1-2-5.9c-.6-1.5-.9-2-1-1.4M49.6 143c0 .5.1 1 .3 1.1l.2.6c0 .4 1.3 1.5 2.3 1.9.6.2.6.5 0 1a31 31 0 0 0-3.3 5.4c-.4.9-2.4 1.6-3 1.1-.5-.6.6-7.4 1.4-8 .3-.2.4-.5.3-1-.2-.6 0-1 .4-1.5.3-.4.7-1 .7-1.2.3-.7.7-.4.7.6m306.5.2c.6 1 .6 1.8-.1 1.9-1.8.4-2 .4-2.2-.4-.4-1.1-.3-1.4.4-1.8 1-.5 1.5-.5 2 .3m-294.8.4c0 .2 0 .4.2.4s.3.2.3.4c0 .4 0 .4-.4 0-.2-.2-.4-.4-.6-.4-.3 0-.4-.3-.1-.6.3-.3.6-.2.6.2m298 .8l-.7.7c-.8.8-1.4 1.7-1.4 2 0 .7-1.1 1.2-1.8 1-1-.4-1.4-2-.5-1.7.7.2 1.4-.2 2.4-1.3.6-.8 2-1.2 2-.7m-283.8 2.6c0 .1-.1.2-.3.2-.2 0-.5 0-.5-.2-.1-.1 0-.3.3-.3s.5.2.5.3m-5.4.4c1 1.2 1.5 1.6 2 1.6 1 0 1-.4 0-.6-.8-.2-1.2-.6-.5-.7 1 0 2.1.1 2.4.4l1 .5c.8.3 1.1.8.8 1.4-.3.6-1.3.7-2 .2-.3-.2-.6-.2-1 0h-1.1c-.9-.3-2-.2-2.4.2a3 3 0 0 1-1.2.6l-1.4 1c-.4.5-1 .9-2 1.1-1.6.4-2 .6-2 1l-.3.7-.8 1.2-2 3c-.8 1.1-1.7 2.6-2 3.4-.6 1.6-1.5 2-1.2.4.1-.8.1-.9-.2-.3-.6 1-1 1-.9-.2.2-1 .1-1-.2-.8-.6.5-1 0-.6-.8a4 4 0 0 1 2.5-2c1.3-.3 1.8-.6 1.8-1.1 0-.2.4-.8 1-1.3l1.8-2.3c1.4-1.8 1.9-2.2 2.6-2.4 1.4-.3 2.6-1.9 1.5-1.9-.5 0-3.4 2-3.4 2.3 0 .3-2.1 2.5-2.4 2.5l.1-.4c.3-.3.2-.3-.5-.4h-.9l1-.8 1.3-.9c.1 0 .4-.3.6-.7.1-.4.9-1.1 1.6-1.6l1.8-1.3c1.6-1.2 4.6-1.7 5.2-1m7.6.1c0 .2.7.2 1.9.1 1.3-.1 1.7-.1 1.6.1-.1.2-.3.3-.5.3s-.5.3-.8.6c-.5.8-1 .8-1.9.1l-1.6-.7c-1-.2-1-.2-.4-.5.9-.3 1.5-.3 1.7 0m281.5.5l-.2.6c-.2.1-.3-.1-.3-.5 0-.3.1-.6.3-.6.1 0 .2.2.2.5m-298.2 2c-.4.1-.8-.4-.6-.8.2-.2.3-.2.5.2.3.3.3.5.1.6m297.9.4c-.4.4-.8-.4-.4-.8.3-.4.3-.4.4.1v.7m-280.8.2c.2.6.2.8-.1 1.4-.7 1.2-.6 1.6.4 1.4 1-.2 1.6.3 1.7 1 0 .3 0 .4.1.2.2-.4.8-.5.8-.1 0 .1.4.8 1 1.5.4.6.8 1.4.8 1.7 0 .4.1.6.4.6.3 0 .5.2.5.8 0 1.2.3 2.2.7 2.2.8 0 .8 2.8 0 3-.3 0-.8.2-1 .5l-.7.6.1-.8c.1-.6 0-.8-.1-.6-.5.4-1.4 0-1.4-.6l.2-.7c.2 0 .3-.7.4-1.6.2-1.4.2-1.5-.2-.7l-.4.7.1-.8c.1-1 0-1.2-.7-.6-.5.5-.4-.4.2-1.7.3-.5.3-.7 0-1-.4-.2-.4-.3-.1-.6.4-.6 0-.8-.5-.3-.6.6-.8.5-.6-.4v-.6l-.6-.1c-.2-.2-.5 0-1 .7-.7 1.1-1.2 1.4-1 .6.2-.6-.3-.7-.5-.2-.2.5-.6.5-.6 0 0-.3 0-.4-.3-.1-.2.2-.4.6-.4 1 0 .3-.2.5-.4.5s-.4.1-.4.3c0 .1-.2.6-.6 1a3 3 0 0 0-.6 1.3c0 .4-.7.8-.9.6-.2-.2 1.4-3 1.8-3.3.2 0 .3-.3.3-.5s.4-1.1 1-2c1.1-2.5 1.1-3.3-.1-2l-.6.7.2-.9c.2-.4.5-1 .8-1.2.4-.2.8-.6 1.1-1 .7-.7.8-.6 1.2.1m4 0c0 .2.2.6.7.8 1 .6 1 1.9.2 2.4-1.4 1-3-1.2-2-2.9.6-1 1-1.2 1-.4m277 .9c0 .2-.2.3-.3.3-.1 0-.2-.1-.2-.3 0-.2 0-.4.2-.4.1 0 .3.2.3.4m-315.5.7c.2.2.5.3.8.2.6-.1.7 1 0 1.8-.5.8-1.3.8-2.1 0-.9-.7-.9-1.4 0-1.9s1-.5 1.3-.1m314.5 1.6c.2 1 .1 1.2-.7 1.4-.7.2-.8-.2-.2-1.5.4-1.1.8-1 1 0M67 154.9c0 .4-.5.6-.8.4-.1 0-.2-.2 0-.4.1-.3.8-.3.8 0m292.8 1c.5 1.8.5 2.2-.6 3-.6.5-1 1.2-1.2 1.6 0 .4-.4 1-.7 1.4-.4.3-.6.8-.6 1l-.8.9c-.7.5-1.2 1.2-2.7 4.2-.4.9-.7 1.2-1 1.1l-.8-.1c-1.3 0-5.5-6.1-5.5-8 0-.7 0-.7 3.2.1l1.8.5 1.4-.6c2.8-1.1 6.1-4 6.5-5.6.2-1 .6-.8 1 .6m-301-.6c1 .4 1.2.8.4.8h-1.3c-.4 0-.7.2-.7.4s-.1.4-.4.4c-.5.3-.4-.3.4-1.2.8-1 .6-1 1.7-.4m6.7 0c.3.4.3.8-.1.8-.3 0-1-.7-1-1 0-.4.6-.3 1 .2m5.1.2c.4.3 1 .6 1.3.6.7 0 .7 0 .2 1-.7 1.7-3.2 2.4-4 1.3-1.3-1.7 1-4.3 2.5-3m-19.8.5c2.7.7 3.4 1.3 3 2.4-.3 1-1 1-1 .2 0-.4-.2-.6-.4-.6s-.6-.2-.8-.5a5.8 5.8 0 0 0-3.4-1.3c-1.1 0-1.3-.4-.3-.6a7 7 0 0 1 3 .4m306 .3c0 .4-.2.6-.9.9l-1.7 1-1 .8c-.2 0-.5.1-.6.3-.2.2-.8.4-1.3.4s-1.3.1-1.7.3c-2.8.8-4.8-.3-4.8-2.7 0-1.1.2-1.1 5.8-1.2a38 38 0 0 0 4.9-.2c.4-.5 1.3-.2 1.3.4m-310.6 0c-.2.3-.8.5-1.1.6-.4 0-.7.2-.7.3 0 .2-.5.4-1 .6-.7.3-1 .6-1.1 1-.1.4-.3.6-.5.5-.3 0-.6.2-.8.7l-.5.8-.1-.7c-.2-.8-.8-1.2-.8-.5 0 .2-.2.4-.6.4-1 0-1-.5.4-1.3a1539.5 1539.5 0 0 1 3-1.8c1.2-.8 4.8-1.3 3.8-.5m17 .4c-.9.7-1.3 1.9-.9 2.1.4.2.4.3.1.6-.5.6-.3 1 .3.6.8-.6 1.4-.5 1.4.1 0 .5.4.7.7.3.2-.4.6-.3.6 0 0 .4-.2.5-.8.4-1.2 0-1.5.2-1.5 1.1 0 .5-.3 1.6-.6 2.6l-.8 2.5c0 .5-.2.9-.4.9s-.2-.4 0-2c.3-1.1.3-1.5 0-1.8-.3-.2-.4-.6-.4-.8 0-1.1-.5-.4-1.5 2.2-.5 1.2-1.1 1.1-.9 0 .3-1.6-.5-.6-1 1.2l-.6 1.9c-.5.8-.6-.5-.2-1.8l.4-1.4c0-.6 1-2.5 1.4-2.7.4 0 .4 0 .3.8-.3 1.3.1 1 1-.7 1-1.7 1-2.1 0-1-.5.4-.8.6-.9.4 0-.4 1-2.3 1.3-2.3l.7-1.2a4 4 0 0 1 1-1.4c.3-.2.5-.5.5-.6 0-.2.2-.3.5-.3.5 0 .5 0 .2.3m17.3 1c0 .6-.3 1.4-.5 1.4-.3 0-.3-1-.1-1.3.2-.3.6-.2.6 0m-25.6.5c0 .2 0 .3-.3.3a.4.4 0 0 1-.4-.4c0-.4.6-.4.7.1m-3.7.6l-.4.4c-.2 0-.5.4-.6.7-.1.4-.3.6-.4.5-.3-.2.7-1.9 1-1.9.3 0 .4.1.4.3m-4.2.3c0 .2-.1.4-.3.4l-.2-.4c0-.2 0-.3.2-.3s.3.1.3.3m30.6 0c.4.1.6.4.6.8 0 .7-.5 1-.8.5-.2-.4-.2-.4-.8 0-.8.5-1.4 0-.7-.5.3-.2.3-.4.1-.5-1-.6.4-.9 1.6-.4m-39.9 1l-.4.4c-.5.2-.6.2-.6-.3 0-.2.2-.3.5-.3s.5 0 .5.2m11 1.4l-.4 1.2v-1.2c0-1.4.1-1.8.5-1.4.2.2.1.6-.1 1.4m-4.2-.5c0 .6.2 1.2.3 1.4.3.6-.2.6-1 0-.6-.3-.8-1.3-.4-1.3.2 0 .3-.2.4-.5.2-.8.6-.6.7.4m1.9.3c-.2.3-.3.3-.5.1-.1-.2-.1-.4.1-.8.4-.6.6 0 .4.7m23.8-.6c0 .3-.2.9-.5 1.2-1 1.3-1.3.6-.4-1 .6-1 1-1 1-.2m1.5 0c-.2.8-.8 1.2-.8.5 0-.3.6-1 .9-1l-.1.6m-3.3 0c0 .4-.8 1.6-2 2.8-.4.5-1 1.3-1.2 1.8-.5 1.2-.8 1.2-.8.1 0-.6.3-1 1.5-2.3.8-.9 1.6-1.9 1.7-2.2.3-.7.8-.9.8-.2m6.2 0c0 .1-.1.3-.3.3-.3 0-.3-.1-.3-.4.1-.2.3-.3.4-.3.1 0 .2.1.2.3m-20.4.5c-.1.5 0 .8.4 1 .8.6.8 5 0 5-.4 0-.7-.7-.5-1 .6-.5 0-2.1-.8-2.4-1.4-.6-.7-3 .9-3.2v.6m25-.2c0 .2-.2.4-.3.4-.2 0-.3-.2-.3-.4s.1-.4.3-.4l.2.4m-32.7 1.3c.9 1 1.6 3.3 1 3.3-.3 0-.6-.5-1-1.5l-.7-1.3c-.2-.2-.3-.5-.3-.7 0-.4.6-.3 1 .2m3.2-.2c0 .1.2.3.4.3.4 0 .7 2.7.3 3-.4.2-.4.2-.8-1.3l-.6-1.8c0-.3 0-.4.3-.4.2 0 .4 0 .4.2m32.8.5l-.3.9h.7c.4 0 .5-.1.5-.4l-.2-.8c0-.7-.4-.5-.7.3m276.4 0l-.2 2.3c-.2.7-.4 2.5-.5 4-.5 5.3-.4 5-2.2 4.3-1.5-.6-1.6-2-.3-4.4l.2-1 .4-.7c.2-.2.4-.6.4-1s.1-.8.3-1c.2-.2.4-.4.4-.6 0-.5 1-2.6 1.3-2.6.1 0 .2.3.2.8m-317.2 0c-.1.6-1 .8-1.3.5-.4-.4 0-.8.7-.8.5 0 .6 0 .6.4m23.2.4c-.5.4-1 1.8-1.4 3.5-.3 1.7-1.6 4.6-1.7 4.2 0-.2 0-.8.3-1.4l.5-2c.4-2.4 1.2-4.6 1.6-4.6.3 0 .6-.2.7-.3.1-.3.2-.3.3 0 0 .2 0 .5-.3.6m-15.6 1.6c0 1 0 1.3-.2 1.3-.5 0-.9-1.2-.7-2.3.2-1.4.7-.8.9 1m-5.5-.7c.1.3.7.9 1.2 1.4 1 .8 1.7 1.1 3.3 1.5.8.1 1 .9.2.9-.3 0-.6-.1-.6-.3l-1.5-.3a4 4 0 0 1-1.8-.6 10 10 0 0 0-2-1.2c-1.6-.7-1.7-.9-.6-1.7.9-.7 1.6-.6 1.8.3m23.9.5c-1 1.8-2.2 2.5-1.4.8.6-1 1.2-1.7 1.6-1.8.3 0 .2.3-.2 1m18.5-.9c0 .4-.6 1.6-.9 1.8-.4.1-.4-.5 0-1.3.4-.5 1-.8 1-.5M52 165.3c.1.5.3.8.3.6.4-.6 1.3-.8 1.3-.4 0 .8-.4 1-1.9 1.2l-1.5.2.6-.5c.3-.3.6-.9.6-1.3 0-1 .4-1 .6.2m4.6-.5c0 .5-.4 1.2-.6 1l-.2-1.1c0-.5.8-.4.8.1m4.3 0c0 .5-.4 1-.7.7-.2-.2.2-1.1.4-1.1s.3.2.3.4m15.5.7l-.3.6c-.2.5-.6.2-.4-.4.2-.3.7-.5.7-.2m271.2 1c0 .2-.1.4-.3.4-.3 0-1-1.2-.8-1.4.2-.2 1 .6 1 1M70 166.1c0 .1-.2.3-.4.3s-.4-.2-.4-.3l.4-.2c.2 0 .4 0 .4.2m-9.7.7l-.1.7c-.2-.2-.3-1.4-.1-1.4l.2.7m308.6-.1c-.2.8-1.2 1-1.2 0 0-.5 0-.6.6-.6.5 0 .6.1.6.6m-329.4 1.6c0 1.3 0 1.8.3 1.8.2-.1.2-.5.2-1.2 0-.9 0-1 .4-.9.3.2.4 0 .2-.5-.2-1 .5-.8 1 .2.4.9.7 5.6.3 5.8-.1 0-.2-.5-.2-1.2 0-1.1 0-1.4-.4-1.4-.2 0-.3.3-.3 1.2 0 1-.1 1.3-.4 1.3-.2 0-.4-.1-.4-.3 0-.4-.7-.3-1 .3-.1.2-.2 1-.1 1.5.1 1 .1 1-.2.5-.5-.9-.8 0-.5 1.4.2.7.3 4 0 5.9 0 1-.4-.3-.5-2-.4-5.2-.9-6-.8-1.3.1 3.4 0 3.7-.7 1.3-.5-1.8-1-2.8-1.5-2.8s-1.3-1.5-1-2.2c0-.7.6-.6.6.1 0 .6.6 1.5.8 1.3.1-.1 0-1-.2-2.1l-.3-2c.3-.3.6.1.8 1 0 .4.3.9.5 1 .4.1.5-.2 0-1.8-.3-1.4-.3-4.3.1-4.3.2 0 .3.4.3 1 0 1.4.2 2.2.6 2.2.1 0 .2-.7.2-2.3 0-2.2.5-3.5.6-1.5 0 2.6 0 2.8.4 2.8.3 0 .4-.4.4-2.2 0-1.2 0-2.3.2-2.4.4-.4.6 0 .6 1.8m28.7-1.6c0 .4-.7 1-.9.8-.2-.2.4-1.1.7-1.1.1 0 .2.1.2.3m-9.6 1.3c0 .2-.2.4-.4.4-.3 0-.3-.7 0-1.4l.4-.5v1.5m21.2-.7c.5.3-.2.8-1.1.8-1 0-2-.4-1.8-.7 0-.3 2.5-.3 2.9-.1m-13.8.2c0 .6-.5 1-.5.4 0-.3 0-.5.2-.5l.3.1m4.5 0l-.4 1c-.8 2-1.4 3.1-1.7 3.1-.4 0-1 .7-1.2 1.3-.3.7-.7.5-.7-.2 0-.8.4-1.3 1-1.3.2 0 .6-.5 1-1.1 1.2-2.5 2-3.5 2-2.8m-20 .3c0 .2-.3.3-.5.4-.5.1-.7-.1-.4-.4.3-.3.9-.2.9 0m1.2.3c0 .6-.5 1-.8.5-.3-.6-.2-1 .3-1 .3 0 .5.2.5.5m8.3-.1c0 .2-.1.4-.3.4l-.2-.4c0-.2 0-.4.2-.4s.3.2.3.4m16.5-.2c0 .5-2.7 2-3.5 2l-.7.6c-.6.7-.8.6-.8-.3 0-.6.1-.8 1-1.1l1.7-.9c1-.5 2.3-.6 2.3-.3m-29.5.4c.2.4 0 .7-.3.5-.3-.2-.3-.8 0-.8.1 0 .3.1.3.3m24.1.3c-.1.4-.2 1-.1 1.5 0 .7-.1.8-.7 1-.9.2-1 .1-.3-1.3.8-1.8 1.5-2.5 1.1-1.2m10.8-.1l-.4.4c-.1 0-.3-.1-.3-.4 0-.4.2-.5.3-.5.2 0 .4.3.4.5m-17.5.5c-.2.9 0 1 .6.1.6-.7.7 0 0 .8-.2.5-.3.9-.2 1.8.2 1 .1 1.3-.2 1.3-.2 0-.4 0-.4.2s-.2.3-.4.3c-.3 0-.3-.2-.2-.8.3-1.3-.3-.8-.7.6-.5 1.6-1 1.7-.8 0 .2-1.2.9-3 1.2-3l.4-1c.3-1.3.9-1.5.7-.3m-9 0c.8.7.7.7-1.5.8-2.1.1-2.2.1-1.4-.8.7-.7 2-.7 2.8 0m-12 .9c.3 2.1.2 3.8-.2 3.8-.2 0-.4-.2-.4-.7a375.4 375.4 0 0 0 0-4.1c.2-.5.5-.1.6 1m18-.3c-.2.3-.4-.1-.2-.6.2-.4.2-.4.3 0v.6m-11.7-.3c1.2.5 1.6.8 2.3 2.4.3.6 1 1.6 1.7 2.3 1.3 1.2 1.7 2 1.3 2.7-.3.5-1.2-.2-1.4-1-.1-.4-.6-1-1-1.6-.5-.5-1-1.3-1.3-1.8-.2-.4-.6-.8-.8-.8-.6 0-.2.8 1.5 2.7.7.9 1.2 1.8 1.3 2.4.2.9.2 1 1 .8 1-.2 1-.2.9.5-.1.9-.6 1-1.4.2-.3-.3-.7-.6-.9-.6-.2 0-.8-.7-1.3-1.6l-1.3-1.7c-.2-.2-.3-.6-.3-.9 0-.3-.1-.8-.3-1 0-.3-.4-1-.6-1.5a7 7 0 0 0-.8-1.4c-.5-.6 0-.6 1.4 0m10 0c-.2.2-.2.5-.2.7 0 .5-.8.5-1 0-.1-.5.4-1.1 1-1.1.1 0 .2.1.1.4m22.4.3c.4.7.2 1.6-.2 1.6-.3 0-.4-.3-.5-1 0-1.2.3-1.4.7-.6m286.3-.3c.2 0 .4.3.4.5 0 .3-.1.3-.5 0-.8-.4-.7-.8 0-.5M84 170.7c0 .7-.1 1-.4 1-.3 0-.3-.3-.2-.8.3-1.3.6-1.4.6-.2m3 2c.1.9.2 1 1 1.2 1.6.4.5 1.9-2.2 3-.8.2-1.8.8-2.4 1.2l-1 .6c0-.2.3-.4.5-.6l1-1.5c.3-.7.8-1.3 1.1-1.5.5-.3.5-.4.4-2.5v-2.4c.4-.3 1.6 1.6 1.6 2.5m-31-2c1 .3.3 4-.6 4-.3 0-2-2-2.4-2.8-.6-1.2-.5-1.2 2-1.5.3 0 .7 0 1 .3m4.9 0c.2.5-1.5 4.5-1.8 4.2l.1-1.7c.5-2.3 1.3-3.5 1.7-2.4m-12.3.6c0 .3-.2.6-.4.7l-.5 1c-.2.6-.2.6-.4.2-.1-.4 0-.6.1-.6.2 0 .3-.3.3-.5l.3-1c.3-.7.7-.6.6.2m-3.9.8c0 1.2-.4 1.8-.6 1-.2-.5 0-2 .4-2 .1 0 .2.4.2 1m308.8.1a166.3 166.3 0 0 1 3.5 2l1 .5c1.2.6 4.4.8 4.7.2.3-.5.7-.5.7 0 0 .4-2 2.1-2.4 2.1a2 2 0 0 0-1 .4c-.6.5-1.8.5-2.6 0-2.3-1.6-6.2-5.6-5.9-6.1.2-.2.4-.2.7 0l1.3 1m-292.2 1.5a40 40 0 0 0-.5 2.8c0 .5-.2 1-.4 1-.2.2-.2 0-.1-.3l-.1-.5c-.4 0-.1-1.5.7-3.7.8-2.2 1-2 .4.7m306.8-1l2.2 4.5c2.2 4.4 2.5 5.2 2.1 7-.7 4.5-1.4 6.1-3.7 8.7L367 195l-.4-3.3a2319.8 2319.8 0 0 1-2-13c-.5-2.8 0-4.8 1.7-6.8.7-.9 1-.7 1.8 1m-292.5-.4c-.4.7-.9.7-.9 0 0-.6.5-1 .9-.6.2.1.2.4 0 .6m7.5 0c1 .7.5.8-4.7 1.6-1.8.2-4 .7-4.8 1-1.5.5-2.4.6-2.4 0 0 0 .6-.3 1.3-.4.8 0 2.3-.6 3.5-1.2 1.6-.8 2.5-1 4-1.2l2.3-.1c.2 0 .5 0 .8.3m-25 .5c.5.4.5.4 0 .7-1 .8-2 .1-1.4-.7.4-.5.8-.5 1.4 0m-23.9 1.4c0 .5 0 .5-.2.2-.4-.5-.4-1 0-.9l.2.7m29.9.4l-.2 1.7c0 .4-.2.8-.3.9-.4.1-.5-3-.1-3.4.5-.6.8-.2.6.8m20.1-.6c0 .2 0 .4-.2.4l-.5-.4c-.3-.3-.2-.3.2-.3.3 0 .5.1.5.3m-37.6 1.3c-.3.6-.5 1.2-.7 1.3-.3.2-.2-1.5.2-2.1.6-1 .9-.4.5.8m21.4-.6c.5.4.7 2 .3 2.2l-.2.6-.2.7c-.2 0-.3-.4-.3-1l-.2-2c-.2-.8 0-1 .6-.5m-18.8 1.9c.2 1.9.1 3.3-.2 3.3-.3 0-.5-2-.5-3.8 0-2 .3-1.8.7.5m16-1.1l.2 1.9c0 .7 0 1-.2 1s-.2-.2-.2-.5v-.6c-.3-.2-.2-2.6 0-2.6.1 0 .2.3.2.8m-2.8 0l-.2 1.1c0 .4-.1.6-.4.6-.4 0-.3-1.4 0-2.1.4-.4.7-.1.6.4m8-.3c0 .1-.2.2-.5.2-.4 0-.6 0-.5-.2 0-.2.3-.3.5-.3.1 0 .4.1.5.3m-29.2.3c0 .3-.3.2-.5-.1 0-.2 0-.3.2-.2.2 0 .3.2.3.3m25.8 1l.1 1.9c0 .4 0 .5-.5.5s-.7-1.5-.4-3.4c.1-1 .8-.2.8 1m9.5-.7c0 .3-.2.6-.4.7-.2 0-.4.5-.5 1-.1 1-.7 1.6-1.1 1.3-.5-.3-.3-.8.5-1.6.5-.5.6-.8.4-1-.4-.4 0-1 .6-1 .5 0 .6.2.5.6m-37 1.4c0 .4-.2.7-.3.7l-.2-1c0-.8 0-1 .2-.7l.3 1m34.7-1c0 .6-.5 1.7-.8 1.7-.3 0-.2-1.7.1-1.8.6-.2.7-.2.7.2m3.8 0c.5.5.5.7.3 1.4-.3 1-.8 1.3-.8.4 0-.7-.4-1-.6-.4-.2.7-.5 0-.3-.9.2-1 .6-1.1 1.4-.4m4.7 0c0 .2-.1.3-.3.3-.4 0-.5-.3-.3-.6.2-.2.6 0 .6.3m218.5-.1v.5c.2.2 1-.3 1-.7 0-.3-.8-.2-1 .2m-230.9 0c.3.1.4.4.4.7 0 .7-1 .5-1.2-.3 0-.5.1-.6.8-.4m2 .5c.4.9-.1 1.4-.6.7-.2-.4-.4-.8-.3-.9.2-.3.8-.2 1 .2m-24.8.4c.2 1 .1 1.7-.3 3.5l-.6 2.7c-.2.8-.2 1.5 0 2.4l.4 1.8.2.8c.1.2.2.4 0 .4l-.4-.6c-.3-.4-.7-1-1-1.2-.8-.5-.8-1.4 0-2.9.2-.4.4-2 .6-3.6.3-3.2.4-3.8.7-3.8.1 0 .3.2.4.5m9.5 0c0 .2-.2.4-.4.4-.3 0-.5 0-.5-.4s.2-.5.5-.5c.2 0 .4.3.4.5m30.1.8c.2.4.5.8.8 1 .7.4.6.7-.2.6-1 0-1.3.2-1.3 1 0 .5-.1.9-.3 1-.6.3.2.6 1.1.3.7-.3 1-.2 1.5.1.9.6.9 1.2 0 1.2-.8 0-1.6.4-1.4.8h.7c.5 0 .6 0 .5.4-.1.4 0 .5.5.7.4 0 .6.2.5.6-.1.4 0 .5.5.5 1.2 0 1.5.2.7.7l-1.4 1.5c-.7 1-1.8 2.2-2 2-.2-.2.5-1.9.8-2 .4-.3.4-1 0-1-.3 0-.7.4-1 .9-.9 1.4-1.6.9-.9-.6.5-1 .5-1 0-1l-.4.3c-.2.6-.7.5-.7-.1 0-.4.3-.8.5-1 .6-.4.7-1 .2-1-.2 0-.3-.2-.2-.8l-.1-.9c-.7-.5-1.4-1.6-1-2v-.6c-.2-.2-.2-.4 0-.8.4-.5.3-.9-.4-.9-.8 0-.5-.6.5-1 1.4-.7 2.3-.6 2.5.1m-16.7.2c0 .1-.1.2-.3.2l-.2.4c0 .3-.1.4-.3.2-.3-.3 0-1 .4-1 .2 0 .4 0 .4.2m293.5.5a61.3 61.3 0 0 1 1 7.2c.6 4 1 6.8 1.2 11a94.1 94.1 0 0 0 .7 8.6c0 1.1.3 3.2.5 4.5a17.2 17.2 0 0 1 .3 5.5c0 .4-.2.7-.3.7-.2 0-.2-.2-.1-.4 0-.2 0-.6-.3-1-.2-.2-.3-.7-.3-1l-.2-.4c-.4 0-1.8-4-2.5-7.5a190.5 190.5 0 0 1-2.4-15.4c-.6-4.4-.6-7.4-.1-8l.5-1c.8-2.5 1.8-4 2-2.8m-319 2.6l.2-1.3c0-1.6.4-1.8.6-.4a7 7 0 0 1-.8 4 6 6 0 0 0-.5 1.1c-.2.5-.4 1-.6 1-.1 0-.2-.2 0-.5.5-1.3.6-3.2.2-4-.5-1-.5-1.5 0-2.3.5-.6.5-.6.6 1.1 0 1.2.2 1.6.3 1.3m315.5-2.1c-.5.5-.8.6-.8.2 0-.3 1-1 1.2-.8l-.4.6m-305.2-.1c.3.2.2.6-.1.6-.2 0-.6-.3-1-.6l-.6-.5.7.2 1 .3m3.4.2c.2.3.3 1.1 0 1.1a.2.2 0 0 1-.2-.2c0-.2-.3-.3-.7-.4-.8-.2-1.3-.6-1.3-.9 0-.2 2 .2 2.2.4m240.7.7c-1.2 1-1.5 1.4-1.4 1.9.2.8 0 1.5-.5 1.5-.4 0-3.9 3-3.9 3.3 0 .9 3.8-1 4.1-2 .1-.3.8-1 1.6-1.7.9-.9 1.3-1.5 1.3-1.9 0-.3.3-.9.6-1.2 1.8-1.7.2-1.6-1.8 0m-265.7 1c0 .7 0 1 .7 2.2.4.7.4 1 0 1s-.8-1-1-2.4L33 180c-.2-.6-.2-.6.2-.1.2.2.4.8.4 1.2m2 .1c.3 1 .6 2.1.6 2.7.3 2 .4 2.1 1.4 2.6 1 .5 2 1.6 1.7 2l-.8-.3c-.7-.5-1.1-.2-.5.3.4.4.5 1 0 1-.3.2 1 3 1.5 3.3v.3c-.2 0-1.3-.7-2.4-1.8-2-1.8-2-2-1.6-2.2.7-.2.7-.1.2-1.2l-.3-1h.3c.6.2.5-.6 0-1.5a7 7 0 0 1-1-3.3c0-.6-.3-1.4-.4-1.6-.3-.7-.2-1 .4-1 .5 0 .6.2 1 1.7m24.8-1.3c.5.4 2.4.5 2.3.1 0 0 0-.2.2-.2l.2.3c0 .4.2.5 2.2.8 2.3.3 2.4 2 .3 4-1.2 1.1-1.4 1.5-1.5 2.2 0 2.4-1.7 1.7-2.2-.8-.7-3.5-.9-4-2-5.7-.8-1-.5-1.4.5-.7m21 .7c0 .4.5.8 1 1 .6.2 2.4 1.8 2.4 2.2 0 .7-2.4.9-3 .3-.5-.4-.6-.4-.8 0-.2.3-.4.4-.8.3a1 1 0 0 0-1 .3c-.4.3-.8.4-2 .2-1.3 0-1.7 0-2 .3-.5.7-4.8.2-4.6-.5 0-.2 1.1-.4 2.5-.6 1.8-.2 2.6-.4 3.2-.8l.9-.5 2.7-2c1-1 1-1 1.4-.2m-38 1.7c-.2 2.1-1.8 4.5-1.8 2.9l.2-1c.2 0 1-2.7.9-3v-.7c.4-.8 1 .5.8 1.8M51 184c0 1.8-.3 3.4-.4 3.5-.4.4-1-1.5-.7-2.1l.5-2.7c.4-3.4.8-2.6.6 1.3m37-3.3c.4.4.4.4 0 .6-.4.1-1.2-.4-1-.7.2-.3.4-.3 1 .1m-35 .2c.3.5.1 6.8-.2 7.2-.7.8-.9-.4-.6-3.9l.1-2.6c0-1 .4-1.3.7-.7m-4 1.2c-.2 1.3-.8 2.6-1.1 2.4-.3-.2-.4-1.2 0-1.5l.5-1.2c.4-1.4.8-1.2.6.3m312.1-.5c0 .5-.5.7-.5.3 0-.2.5-.8.6-.8v.5m-306 1.6c.3.5 0 2-.4 1.8-.4-.2-.7-1.6-.5-2 .2-.2.5-.2.8.2m2 .6c0 .5-.4.4-.6 0-.2-.6.1-1 .4-.6l.2.6m-16-.3c0 .1 0 .3-.2.3s-.3 0-.3-.3c0-.2.1-.4.3-.3l.2.3m8 3.8c.6 1.3.6 2.2 0 2-.3-.1-.5-.5-.6-.8l-.5-1.7c-.3-.7-.4-1.3-.3-1.6.2-.4.2-.4.5.2l.8 1.9m-9.6-.6c0 .3-.7.2-1-.2-.5-.6 0-1 .5-.5.2.3.5.5.5.7m19.7-.3c0 .3-.1.5-.4.5-.3 0-.5-.8-.2-1.1.3-.3.6 0 .6.6m-2 .7c-.1.7-.6 1-.8.4-.2-.6.3-1.5.6-1.2.2.2.2.5.2.8m11.5-.3c0 .2 0 .3-.2.2-.2 0-.3-.3-.3-.5s.1-.3.3-.3l.2.6m10.2 0c.4.8.4 1.3.1 1.3-.2 0-1-1.3-1-1.7 0-.5.6-.3 1 .4m-34.8.3c0 .4 0 .5-.4.5-.7 0-.9-.2-.6-.8.4-.6.9-.4 1 .3m23.1.5c-.3 1.5-.9 1.2-.7-.3.2-.8.3-.9.5-.7.2.2.3.6.2 1m9.6-.3c0 .3-.1.7-.5 1-.7.4-1 .4-1 0 0-.3.3-.4.6-.4.5 0 .5-.1.4-.7-.1-.4-.1-.6.1-.5.2 0 .4.3.4.6m3.4.3c-.2.3-.3.2-.5-.2-.4-.6 0-.9.4-.4.3.3.3.4.1.6m280.1-.4c0 .3-.1.4-.2.4-.2 0-.3-.1-.3-.4 0-.2.1-.3.3-.3.1 0 .2.1.2.3m-326.3 1.3c.1.8 1.2 2.1 3.1 3.8 1 .9 1.5 1.6 1.5 2.3 0 .8-1.3 0-2.3-1.4l-1-1.4c-.5-.2-2-3.3-2-4 0-.7.5-.3.7.7m326.7 2.5a178.1 178.1 0 0 0 3.6 19.6 335.4 335.4 0 0 1 3.7 12.4c1.5 4.6 2.2 7.5 2.8 9.9a102 102 0 0 0 4 14.6c1.3 3.2.4 3.8-3.9 2.6l-1.6-.3c-.3 0-.6-.2-.7-.3 0-.2 0-.3.4-.2.3.2.4.1.2-.3a9 9 0 0 1-.4-1.5c0-.5-.3-1.3-.6-1.8l-.4-1.6c0-.5-.2-1-.4-1.2-.2-.2-.3-.5-.2-1 .1-.6 0-.8-.3-.9-.5-.2-.6-.1-.3 1.3l.2 2.3c0 1.3.4 2.4 1.2 3.4.7 1 .5 1.2-.3.4-1.2-1.1-3.9-.9-5.9.5-2 1.3-2 1.3-1.8-2.3a703.8 703.8 0 0 0 .4-15.8c.2-1 .4-4 .5-8 0-1.8.2-3.7.3-4.2.2-.9.1-1-.3-1-.4.2-.5.4-.5 1.4a308 308 0 0 1-1 12.8c-.6 5.6-.6 18 0 18.9l.4.9c0 .3.5 1.6 1.3 3.2.5 1 1.8 2 3.8 3.1 3.8 2 4.3 3.7 2 6.2l-.8 1c0 .2-1.2 1-2.7 2a82.5 82.5 0 0 0-4.7 3.2c-.5.2-2 1.2-3.2 2.2l-3 2.5a28.7 28.7 0 0 0-7.5 8.6c-1 2.2-1.8 3.4-3.2 5-.7.7-2 2.5-3.2 4a61 61 0 0 1-13 13.8c-.4 0-.4-.6 0-.8 1-.7 3.8-5.3 5.2-8.9a2013.8 2013.8 0 0 1 4.4-11.5c.5-.8 1-2.3 1.2-3.4l.7-2.5c.6-1 1.4-4 2-7.1a60.3 60.3 0 0 1 2.2-9.6l.7-3c.7-2 .8-2.9 1-7.6a61.1 61.1 0 0 1 1.7-12.6l.6-3.2c.2-1.8.7-2.8 1-2.1.2.6 1 .3 1.6-.7 1-1.4 1.6-6.6.9-7.4-.7-.8-.4-2.9.7-5.3 1.5-3 2.8-4.2 2.8-2.5 0 1.7 1-.1 1-2 0-.7.1-1.6.3-2l.2-1.3c0-1.2 1-4 1.5-4 .3.1.4.6.6 2.3.1 2.4.2 2.6.7 2.3.2-.1.2-.9.1-3a38.2 38.2 0 0 1 1.3-15.4l.8-4.1c.8-4.1 1.4-4.1 1.9 0m-318.3-2.5c0 .2-.1.4-.3.4-.3 0-.5-.4-.3-.6.3-.3.6-.2.6.2m48.5-.1l-.4.2c-.2 0-.4 0-.4-.2s.2-.3.4-.3.4.1.4.3m-32.1.8c.6.3 1 .3 1.4.2a86.3 86.3 0 0 0 11 0c0 .4-3.6.7-8 .7a1009.2 1009.2 0 0 0-7.7.2l-2.8.4a9 9 0 0 0-5 2c-1 .9-1.2 1-2 .8-.8-.1-1.3 0-2.4.5l-1.5.8c-.1 0-.2 0-.2-.3 0-.7 1.2-2 2-2.3.4-.2 1-.7 1.2-1 .4-.8.5-.9 2.2-.8 1.6 0 3.3-.2 5.6-.8a13 13 0 0 1 2.5-.2c1 0 1.8-.1 2-.3.5-.3.6-.3 1.7.1m-14.2.2c-.2.5-1 .6-1 .1 0-.2.2-.4.5-.4s.5.2.5.3m47.5.2c-.1.3-.3.5-.5.5-.4 0 0 .5.5.5 1.7 0 2.1 2 .6 2.9a5 5 0 0 0-1.2.9c-.5.6-.9.6-.9 0 0-.2-.4-.9-1-1.5-1.5-1.7-1.2-3.4.7-3.6 2.2-.2 2.1-.2 1.8.3m-17.1 0c.3.1.4.3.2.3-.3.2-1.6 0-1.6-.3s.7-.3 1.4 0M33 191c.6 1 .8 2.1.4 2.1-.2 0-1-1.6-1.2-2.5-.2-1.1.3-.9.9.4m48.2-.1c0 1-.3 1.1-1 .6-.5-.3-.5-.3 0-1 .6-.8 1-.7 1 .4m274.8-.6a2 2 0 0 0-.5 1.3c0 .4-.2.9-.5 1-.3.3-.6 1-.8 2l-.6 2.3c-1.1 2-3.1 7.5-3.1 8.3 0 1 .5.3 1-1 .2-.8.6-1.8.9-2.3l.7-1.5c0-.4.3-.8.5-1 .2-.3.7-1.6 1-3 .3-1.4.7-2.4 1-2.6.4-.2 1.2-2.5 1-3.4v-.7l-.6.6m-279.5.5c1.6.5 4.8 2.1 4.8 2.4h-1.8l-3.8-.2c-2.4-.1-3.2-.3-3-.7.1-.2 1.6-.1 3.8.2.7.1.8 0 .6-.1a4 4 0 0 0-1.6-.4l-2-.2c-1.6-.2-8.3.3-9.7.7-.9.3-2.5.5-4.5.5-3.2 0-3.7.2-7.2 1.5-.9.4-2 .6-2.4.6-.6 0-.9 0-1 .5-.4.7-1 1-1.2.4-.3-.5-2.2.7-2.4 1.6-.2.6-.5.7-.7.2-.2-.6-.6-.5-.8.1 0 .3-.3.5-.5.4-.1 0-.5 0-.7.2-.4.3-.6.2-1-.1-.5-.6-.3-1.1.7-1.4.3-.1 1.4-.7 2.4-1.4a20.4 20.4 0 0 1 8.4-3.7c1.3 0 3-.4 4.8-1 1-.2 1.6-.2 3.5 0 2.9.3 7.2.1 8.4-.4 1-.5 5.2-.3 7 .3m10.2 1.8c.2.5.2.6-.2.5a.7.7 0 0 1-.5-.5c-.1-.6.4-.6.7 0M33 194c.4.7.7 1.3.6 1.4-.2.2-.9-.4-.9-.9l-.5-1c-.6-.7-.6-1-.2-.9.2 0 .7.7 1 1.4m34.9-1l-.5.2c-.2 0-.5 0-.5-.2-.1-.2 0-.3.5-.3.3 0 .5.1.5.3m11.4 1.4l2.6.8c1.9.5 3.4 2.5 1.9 2.5-2 0-4.8-.6-5.3-1.1-.7-.8-4.3-1.3-7-1a43.7 43.7 0 0 0-14.8 2.5c-2 .8-7.5 2.6-7.8 2.6-.5 0-.1-.5.8-1a44.6 44.6 0 0 0 2.8-1.5L55 197l2.6-1c.7 0 2.2-.4 3.3-.8a33 33 0 0 1 18.4-.8m9.2-.3c0 .4-.5.5-1 .1-.3-.1-.3-.3 0-.6.3-.4 1-.1 1 .5m-51.4.7c1 1 1.6 2.5 1.4 3.1-.2.6-.5.3-1-.7-.2-.5-.6-1-.8-1.1-.4-.1-.5-.3-.4-.6.1-.3 0-.6-.2-.8-.4-.3-.5-1-.2-1l1.2 1.1m21.1-.8c0 .4-2 1.5-3.5 2l-3 1.3-3.5 1.6a20 20 0 0 0-3.5 1.7l-1.8 1.1-1.2.8c-.6.4-1.1.7-1.3.6-.6-.4.3-2.1 1.1-2.1l1-.3c.2-.2.8-.6 1.5-.8l1.5-.7 4.3-2.2c3.7-1.8 5.2-2.4 7.3-3 1-.3 1.1-.3 1.1 0m37.3 0l-.9.6c-.5.2-.9.5-.9.6 0 .2-.4.3-1 .3-1 0-1.1-.1-.8-.7.5-.8 3.6-1.5 3.6-.9m198 1c0 .6-.2.8-1.5 1.2-2 .7-3.8 2-3.5 2.4.4.6 3.4-.1 3.4-.8l.8-.8c1.3-.7 2.2-2.7 1.3-2.7-.2 0-.4.3-.4.7m-204 .1c0 .5-.6.6-.6.1 0-.2.2-.4.4-.4s.3.2.3.3m-56.8 1c.5.6 1.2 2 1.7 3.2l.6 1.3c.1.5.2.8 0 .9-.1 0-.2-.1-.2-.4l-.4-.8-.4-.5c0-.2-.2-.6-.5-.9l-.5-1c0-.3-.3-.7-.6-1-.6-.6-.9-1.3-.4-1.3l.7.5m62.4 0c.8.5 1.7 2 1.7 3 0 .3.3.9.6 1.3a10 10 0 0 1 1.9 5l.1 1.2c.4.6.6-.3.5-2.2l.1-1.8c.6 0 1 4.7.5 6.4-.3 1-.7 1.5-.7.7 0-.2-.1-.3-.3-.2l-.2.7c0 .4-.1.6-.2.6-.4 0-.6-1.6-.5-3.1.2-1.5-.2-1.9-.4-.4l-.3 1.4-.2.5-.2-.5-.2-1.4c0-1.1-.4-1.5-.7-.6-.2 1-.5.3-.5-1.1 0-.9-.1-1-.4-.8-.4.4-.7.3-.7-.3 0-.7-.3-1-.6-.6-.2.3-.6-.3-.6-1 0-.5-.3-1-.9-1.4-.8-.6-1.3-1.9-1-2.4.1-.2.4-.1.7.2.8 1 2.4.2 2.4-1.2 0-.5 0-.5-.9-.4l-1 .2.5-.5c.7-.8 0-.8-1.6 0-1 .6-1.2.6-1.4.3v-.4c2.5-1.5 3.6-1.8 4.5-1.3m-60.4 1c-.2.2-1-.7-.8-1 .1-.1.3 0 .5.3l.3.7m39.8-.4c-.5.3-4.1.6-4.5.3-.5-.3.7-.5 3-.5 1.1 0 1.8 0 1.5.2m-6.2.2c.3 0 .4.1.4.3l-2 .2h-1.8l1.1-.3 1.5-.3.8.1m8.7 0c0 .2-.2.3-.5.3-.2 0-.5-.1-.5-.3l.5-.2c.3 0 .5 0 .5.2m-40.4 1c-.2.4-.6 0-.6-.5 0-.6 0-.6.4-.1.2.2.3.5.2.7m41.6 0c4.5.4 6.4 1 6.8 2.4.2.7.2 1.2 0 1.4-.2.3-2.7-.3-3.4-.9a49.9 49.9 0 0 0-13.4-.2 49 49 0 0 0-14.4 2.7c-.6 0-4.5 1.2-5.4 1.7-.4.2-1 .3-1.3.3-.4 0-1 .3-1.5.6-.7.4-1 .4-1.1.2-.2-.3 0-.5.6-.6l1-.5a49.4 49.4 0 0 1 11.5-3.7c1.5 0 3.4-.6 2.6-.8-.5-.2-4 .4-7.3 1.4a55.3 55.3 0 0 1-4 1l-1.9.6c-.9.2-2.1.8-2.7 1.1-1.2.8-1.8 1-1.8.4 0-.4.8-1.2 1.3-1.2.4 0 .7 0 2.6-.9l1.4-.4.8-.4a37.8 37.8 0 0 1 13-4.3c1.4-.2 14.2-.2 16.6 0m-44.8 2.9c.2.6 0 1.1-.4 1.1l-.2-.8c0-1 .4-1.2.6-.3m61.3-.4c-.3.2-.1.5.5.7.3.2.6.5.6.7 0 .3 1.5 1.4 1.9 1.4.3 0 0-.6-.7-1.6-.8-1-2-1.6-2.3-1.2m-63 1.2c0 .3.2.7.4.8.7.6 2 3.5 1.8 4.2-.2.9-.6.7-.8-.4-.2-1.3-.5-2-1.1-2.5-.3-.1-.5-.5-.5-.8 0-.2-.1-.7-.3-1-.3-.8 0-1.8.3-1.2l.3.9m48-.3c4.5 1 7.1 2.2 6.3 3-.1.1-1.4-.5-2-1a23 23 0 0 0-5.8-.7c-1.5 0-6 .6-8 1l-4.5.6a60.5 60.5 0 0 0-7.8 1.1l-5.6 1c-1.5.4-4.4.8-6 1-.9 0-.7-.6.3-.8a12 12 0 0 0 2-.8 8 8 0 0 1 2-.7c.6 0 1.1-.2 1.2-.3 0-.2.5-.3.8-.3l1.6-.4c.6-.3 2-.8 3.4-1l3.2-.8A80.6 80.6 0 0 1 80 201m-45 2.1c0 1.8-.3 2-.8.5-.3-1 .1-2 .8-2v1.5m-3.7.3l.4 1.5-.1.4c-.3.1-1.6-2.7-1.5-3 .3-.5 1 0 1.2 1m9.3 2.6c0 .3.5.7.8.9.9.4 1 .8 1 2.3 0 1.3-.2 1.8-2.3 5.2-.6 1-1.1 2-1.1 2.3 0 .4-.1.8-.3 1-.5.5-.5 2.7 0 4.6l.5 2.4c0 .3.5 1 1.1 1.7.7.6 1.2 1.4 1.2 1.6 0 .3 0 .5.2.5.3 0 .8 1.2.8 2.1 0 .8-.6 1.6-1.9 2.5a3 3 0 0 0-1 1.5c-.1.6-.8 1.6-1.7 2.5a24.7 24.7 0 0 0-3.8 5.6c-.4 1.2-1.6 0-2.1-2-.8-3-.8-3-.3-5 .5-2.2 1.5-5.1 1.8-5.8l.2-1.2c0-.8.6-3.7 1.4-6.5.5-1.7.6-2.3.8-3.7 0-.6.3-1.1.5-1.2.3-.1.3-.2 0-.5-.7-.8-.4-4.5.4-5.6.8-1.2 1.2-2.5 1.2-5v-2.2l1.2.8 1.4 1.2m63.1-1.4c.4.8.4.9 0 .9-.3 0-.4-.2-.4-.4l-.2-.7c-.3-.7.3-.5.6.2m-2 .6l.3 1.3v2.4c-.2.6-.3 1.6-.3 2 0 .5-.2.8-.3.8a131.2 131.2 0 0 0-.1-4.4c0-1.3 0-2.3.2-2.3.1 0 .3 0 .3.2m-26 .4c0 .1-.1.3-.3.3-.1 0-.3 0-.3-.3 0-.2.2-.4.3-.3.2 0 .3.2.3.3m-44.9.4l.4 1.5.3 1.7c.1.6.3.8.6.7.3-.1.6 0 .7.3.4.7 0 .9-.5.3-.7-.5-.4 2 .7 5.6.4 1.6.5 2.4.1 2.4-.3 0-1.4-3.8-1.6-5.6-.3-2.2-.3-2.5-.7-3.7-.8-2.4-.8-4.8 0-3.2m33.8 0c0 .3-.1.5-.3.5-.3 0-.4-.2-.4-.5s.1-.5.4-.5c.2 0 .3.2.3.5m38.5.5l.3 1.5c0 .4.1.8.3.9.2.1.2-.3.1-1.4V206c.5.4 1.1 2.6 1.1 3.5 0 .5.2 1 .5 1.2.5.5.6.7.4 2.4-.2 3-.7 2.8-.9-.4 0-2-.3-2.6-.6-1.5-.3.8.1 4.5.5 4.6.4.2.5.8.1.8-.7 0-1.2-1.2-1.4-3.3 0-1.3-.3-2.1-.4-2-.2.1-.2.8-.1 1.9.1 1.8-.1 2.2-.6 1-.5-1.1-.2-8.6.3-8.6l.4.8m-70 .6c.4 1 .4 1.9 0 1.9s-1.3-2.4-1.1-2.8c.2-.4.6 0 1 1m23.5-.5l-2.4 1.1-3.6 1.5c-3 1.2-4.2 1.8-5.3 3-2.1 2-3.8 2.8-4 2-.2-.4 1-1.6 2-2.2a21 21 0 0 0 2.3-1.4c.7-.5 1.7-1 2.4-1.3l3.2-1.5a13.8 13.8 0 0 1 4.7-1.5c.2-.2.8.1.7.3m17.4.5c0 .6-.5 1-.8.6-.2-.2-.2-.4 0-.7.5-.5.8-.5.8.1m-28.3 0c0 .2-.2.3-.4.3s-.3-.1-.3-.3c0-.1.1-.2.3-.2l.4.2M30 208.5c.4 2 .4 2.3 0 2.3s-1.1-2.7-1-3.4c.3-.7.8 0 1 1.1m4.8-.3c0 .4-.2.6-.4.5-.2-.1-.3-1.2 0-1.4.3-.3.5.2.4.9m71 0c0 .4-.1.5-.3.3-.2-.2-.2-.4-.1-.6.2-.4.4-.3.4.3m1.2.5c.1.2.4 1 .5 1.7l.5 2.4c.2.5.3 1.5.4 2.2l.2 2c.2.5.1.6-.2.6-.3 0-.4-.2-.4-.6a6 6 0 0 0-1-3.2c-.4-.3-.5-.9-.5-2.1 0-1 0-2.1-.2-2.5-.1-.9.2-1 .7-.5m1.6.6c.5 1 .5 1.3.2 1.3s-1-1.5-1-2 .5-.1.8.7m-40.6-.1c-.1.1-.4.2-.5 0-.3 0-.2-.2 0-.3.4-.3.8 0 .5.3m5.7.1c0 .4 0 .5-.3.4-.5-.1-.6-1.2-.1-1 .2 0 .3.3.4.6m-27-.2c0 .3-.6.5-1.4.5-.7 0-.8-.4 0-.5 1-.2 1.4-.2 1.4 0m284.7.4c-.3.8-.3 1.2 0 1 .5 0 1-1.6.6-1.6l-.6.6m-296.7 1c0 1.5-.2 3.4-.5 2.8-.4-.9-.3-4 0-3.9.2.1.4.6.5 1.1M84 210c0 .3-.1.4-.3.4l-.2-.6c0-.2.1-.3.2-.3.2 0 .3.2.3.5m-1.6.2c.1.2 0 .3-.2.2a.8.8 0 0 1-.4-.4c0-.2 0-.3.2-.2.2 0 .4.2.4.4m-53.2 1.1l.7 1.7c.3.5.6 1.8.8 2.9l1.3 4.4c1.4 3.6 1.2 4.5-.3 1.2l-1-2.1-.7-1.9c-.2-.7-.4-1.5-.6-1.6v-.5s0-.6-.3-1c-.4-1.2-.8-4-.5-4l.6.9m55.7 0c.3.4-.2.5-.6.1-.4-.4-.4-.4 0-.4.2 0 .5.1.6.3m243.1 0c-.2.7-.1 1 .2 1 .4 0 .7-.6.7-1 0-.5-.7-.3-.9 0m31.2.4c-.4.7-.1 2.1.5 2.8l.8 1c.4.6.4.6.4-.5 0-2.8-1-4.7-1.7-3.3m-250.4.3c0 .3-.2.5-.3.5-.1 0-.2-.2-.2-.5s0-.5.2-.5c.1 0 .3.2.3.5m-80.1 3c.4 1.6 1 3.4 1.3 4.1.7 2 .8 2.6.4 2.7-.4.2-1.2-1.7-1.2-2.8l-.2-.6c-.2-.1-.3-.7-.3-1.3 0-.7 0-1-.2-1-.2.1-.3.5-.3.8 0 .6 0 .6-.4.3-.4-.4-.5-1.2 0-1.2.6 0 .7-.7.1-1.3-.4-.6-.6-2.2-.3-2.5.3-.3.2-.4 1.1 2.8m81.3-2.4c0 .4-.3.5-.6.2-.2-.2.1-.8.4-.7l.2.5m-78.8.5c0 .4 0 .6-.2.6-.3 0-.6-1-.4-1.3.2-.3.6.1.6.7m79.8.1c0 .4.3 1 .8 1.4.7.6.7.7.5 1.8l-.2 1.8c0 1.2-.4.5-.7-1.3-.2-1-.6-1.4-1-.9l-.1-1.5.1-2c.3-.4.6 0 .6.7m-56.8.6c0 .3-.7.3-.8 0-.1-.1-.1-.3 0-.4.2-.2.8 0 .8.4m55.7 1.1a4 4 0 0 0-.2 1.3c0 .3 0 .5-.2.5-.3 0-.4-2.8 0-3 .2-.4.6.6.4 1.2m214.7-.5c-.5.5-.6 1.6-.2 1.6.3 0 1-1 1-1.6 0-.5-.3-.5-.8 0m-293.1.2c0 .2-.2.4-.3.4l-.2-.4c0-.2 0-.4.2-.4.1 0 .3.2.3.4m31.5.3c.1-.1.2 0 .2.3 0 .8-.5.5-.6-.2v-.3c.1.2.3.2.4.2m44.3.2c0 .2-.2.4-.3.5-.4.3-.8-.4-.5-.8.4-.4.8-.2.8.3m-26 .7h-.5l-.5-.5v-.3c.3-.3 1 .3 1 .8m200.7-.9l.1.6c.2.4 1 0 1-.5 0-.3-1-.3-1 0m-202.9.5c-.3.6-.7.7-.7.1 0-.2.2-.4.4-.4l.5-.2-.2.5m242.5-.2c-.5.7-.9 2-.6 2.2.3.3 1.3-1.4 1.3-2.1 0-.5-.4-.5-.7-.1m-289.9 1c.3.7.3 1 0 1s-1-1.5-.7-1.8c.2-.4.4-.2.7.9m53.5-.5c.1.6 0 1-.3 1s-.8-1.1-.6-1.4c.2-.3.8 0 .9.4m30 1.9l.3 1.4c.1.4.3.8.5.9.4.1 1 1.8.8 2.2-.3.4-.6.2-1-.4-.2-.6-.2-.6-.5-.2-.4.6-.6.2-1.1-2.7l-.7-2.9c-.1-.4 0-.3.7.2.6.5 1 1 1 1.5m-41.1-1.3c0 .2-.2.3-.3.3-.2 0-.3-.1-.4-.3 0-.1.1-.3.4-.3.2 0 .3.2.3.3m-39.8 1.3c0 .4 0 .6-.2.6-.3-.2-.3-1.4 0-1.4 0 0 .2.3.2.8m79.2 0c.2.3.4 1 .4 1.4 0 1-.6.2-.9-1.1-.2-1.3 0-1.4.5-.4m-85 1.8l1 2.9.6 1.6.4.7c.2.2.4.5.4.8 0 .3 0 .5.2.6.3.2.3 1.4 0 1.4s-.3 0-.7-1.8a3 3 0 0 0-1.3-1.8c-1.1-.8-2-3.2-1.5-4.1.1-.3.2-.7.1-1-.2-.4.1-1.2.4-1l.5 1.7m3.8-1c.6.5.9 2 .4 2-.3-.2-1.2-1.6-1.2-2.2 0-.4.4-.4.8.1m40 .2c0 .5-.6.4-.7 0 0-.2 0-.4.3-.4.2 0 .4.2.4.4m2.2.4c.6.5.7 1 .3 1-.2 0-.3-.2-.3-.4s-.1-.4-.3-.4a.4.4 0 0 1-.4-.3c0-.5.1-.5.7 0m282.1.3c-.3.2-.2 2.4.4 7a160.8 160.8 0 0 1 .7 5.3c.2 0 .2-2.3-.2-8-.3-3.7-.5-4.7-.9-4.3m-71 .6l-.2 1.1c0 .6-.6 1.2-.9.9-.3-.6-.9-.3-1 .4-.1.5-.3.8-.6.8-.6 0-1.2.8-1.2 1.6 0 .7.6 1 1.1.4.1-.1.5-.3.9-.3.5 0 .6-.3.8-1.1.2-.7.4-1.1.7-1.2.7-.3 1.3-1.3 1.2-2.2-.1-1-.6-1.2-.8-.4m-258.9.8c.2.4.3 1.3.4 1.9l.4 1.5c.5.9.6 3 .2 2.8-.3 0-.4-.3-.4-.6L27 225c-.2-.3-.4-1.2-.5-2 0-.8-.2-1.8-.3-2.3-.2-1.2.3-1.3.6-.1m28.2 0l-.4.4c-.3 0-.3-.8 0-1.1.2-.3.5.2.4.7m-12.9 1.4c0 .5 0 .7-.3.7-.4-.2-.5-1-.1-1.2.4-.3.4-.3.4.5m76 1.4c.2.6.3 1.5.3 2 0 .9.2 1.4.9 2.2l.9 1.4c0 .5-.7.1-1.2-.7-.3-.5-.6-.7-.7-.5v.5c.6.6.4 1-.2.4a3 3 0 0 0-1.3-.6c-.8-.2-.8-.3 0-1.9.5-1 .5-1.3.3-2-.2-.5-.2-1 0-1.5.4-.9.6-.7 1 .7m-42-.8c0 .4-1 .7-1 .3 0-.4.5-.7.9-.6 0 0 .2.2.1.3m275.7.2c0 .5.6 2 .8 2 .3 0 .2-.8 0-1-.2 0-.3-.4-.2-.7.1-.4 0-.6-.2-.6s-.4.1-.4.3m-278.4.5c0 .6-.4 1-1.2 1-.6.1-.8 0-.8-.2s.1-.4.3-.4c.2 0 .5-.1.7-.3.4-.5 1-.5 1 0m10.2 0c0 .2-.2.3-.6.3-.6 0-.8-.3-.3-.5.4-.2.8-.1.9.2m-8.8.6c-.1.5-.7.6-.7.1 0-.2.2-.4.4-.4s.4.2.3.3m-42.5 1.4c-.1.7-.6.4-.7-.5l-.2-1 .5.6c.3.3.4.7.4 1M67 224c0 .2-.2.3-.4.3s-.4-.1-.4-.3l.4-.2.4.2m55.2.7l-.1.9c-.2.2-.3.7-.3 1 0 .2-.2.4-.4.4-.6 0-.7-.4-.3-1 .2-.2.4-.7.4-1 0-.8.4-1 .7-.3m-92 2a203 203 0 0 1 .3 2.1c-.2 0-1.2-2.1-1.4-3.2-.3-1.5.5-.7 1 1m53.6-.8c.3.2.3.2-.3.2-.4 0-.6 0-.5-.2.2-.3.4-.3.8 0m40 1.7c0 .5 0 .8-.2.8-.1 0-.2-.3-.2-.8 0-.4 0-.7.2-.7s.3.3.3.7M29 229.7c.3 1.2.4 2.3.3 2.4-.2.3-.5-.4-.7-1.6l-.4-1.2-.2-1.2c0-1.5.3-1 1 1.6m93.7-1.9c-.2 1 0 2 .6 2.2.2 0 .6.5.9 1l.6 1.5c.4.7.3 2.2-.1 2.2-.2 0-.6.2-.9.6-.7.9-.9.8-.7-.5.2-1 .2-1-.2-.7-.5.4-.5.1-.2-1.1.3-.8 0-2-.5-2.1-.1 0-.2-.4-.2-.9 0-.7 0-.9-.4-.8-.5.3-.4-.5.2-.9.2-.1.5-.5.5-.7 0-.3 0-.5.2-.5s.3.3.2.7m-92.8 2.3c-.1.5-.6-.4-.8-1.7-.1-.9-.1-.8.4.2.3.6.4 1.3.4 1.5m318-2l-.2.3c-.2 0-.3-.2-.3-.4s.1-.4.3-.4l.2.4m-271.2.3c0 .2-.1.3-.4.3-.6 0-1-.3-.6-.6.2-.2.9 0 1 .3m7 0c0 .4-.4.7-.7.5-.2-.1-.2-.3-.1-.4.2-.3.8-.3.8 0m33.7.4c.1.2 0 .3-.4.3l-.6.3c-.1.1-.5.2-.8 0-.6 0-.6 0-.5.5.1.5 0 .8-.2 1-.6.5-.8.1-.4-1 .3-1.2 2.6-2 3-1m-62.4.6c-.1.5-.9.5-.9 0l.3-.6c.4-.3.8 0 .6.6m30.6-.1c0 .3-.1.5-.5.5-.5 0-.6-.3-.2-.7.5-.4.7-.4.7.2m261.6-.2c0 .1 0 .6-.4 1l-.5 1-.2.6c-.5.2-.3-1.6 0-1.9.3-.2.5-.5.5-.7 0-.4.4-.4.6 0m1.1.6c0 .2-.1.3-.2.3-.2 0-.3-.1-.3-.3 0-.2.1-.4.3-.4l.2.4m-228.7.7c.7.6.1 1-1.2.8-1.1-.2-1.4-.5-.8-.9.6-.3 1.4-.3 2 .1m-92.5 1.8l-.1.7-.4-.6c-.1-.3-.2-.7-.1-1 .2-.6.7 0 .6 1m1.5.7v1.1c-.3.4-1-.5-1-1.3 0-.4 0-1-.2-1.2-.1-.4-.1-.4.4 0 .3.3.7 1 .8 1.4m48.7-.1c1.6 1.3 2.4 2.2 3.7 4l1.3 1.5c.7.7 1.3 2 1.3 3 0 .3.3.9.5 1.2l.5 1c0 .7.4 1.2 1 1.5.6.2.7.8.1 1.2-1.2.6-1.5 3.8-.4 3.8.7 0-.7 2.4-2.6 4.5-1.8 1.8-4.4 6.5-4.2 7.3 0 .3 0 1-.3 1.6l-1 3.7c-1 3-2.7 7.2-3.3 7.5l-1.2 1c-1.1 1.2-2 1-2-.4 0-2.3-4.3-1.2-4.8 1.2-.3 1.5 0 6.1.6 8.3l.6 3.8c.4 2.6.2 2.8-1.5 2.2a40.3 40.3 0 0 1-12-4.9c0-.2-.5-.6-1-1-1.2-.7-3.5-3-3.5-3.4 0-.3 1-1.1 2.9-2.4l3.5-2.8a29.2 29.2 0 0 1 4-3l2-1.6 3.3-3c2.4-2.5 5.4-5.9 5.7-6.3 0-.2.9-.8 1.8-1.5.9-.6 1.6-1.2 1.6-1.3 0-.1.6-.7 1.3-1.2A8 8 0 0 0 77 257l1.6-2.1c1.8-2 2-2.6 1.3-5.5-.6-2.4-.7-2.7-2-4a87 87 0 0 1-4.3-10c-.5-1.1-.2-2.3.8-3.1 1-.8 1.3-.7 3 .8m37.2.7c.5 2.7.5 2.7 0 2.7a.6.6 0 0 1-.4-.4c-.3-.7-.7-.3-.5.6.2 1-.2 1-.7-.2-.4-.9-.2-2.3.4-2.8.2-.1.4-.4.4-.6 0-.9.7-.3.8.7M28.3 235c.5 0 1.2 1 1 1.4 0 .2-.3.4-.5.4-.4 0-.5.2 0 .6.6.7 0 1.2-.8.6a3 3 0 0 0-1-.5l-.4-.6c-.3-1-.2-1.2.3-1 .5.1.5 0 .3-.7-.4-1.3-.3-1.6.3-.9.3.4.6.7.8.7m99 1.3l.7 1.7c.2.6.6 1.3 1.2 1.9 1.3 1.1 2.3 3.2 1.8 3.7-.6.8-2 .4-2-.6 0-.4-.2-1-.5-1.3-.3-.2-.4-.6-.4-.7.1-.1 0-.3-.2-.3-.2-.1-.4-.5-.4-1a9 9 0 0 0-1-2.8c-1-2-1-3-.2-1.9l1 1.3m-1.8.2l.4 1.6.4.4c.2 0 0 .1-.5.3-1.2.2-1.6 0-1.5-.9l-.1-1.2c-.4-.5.1-1.7.7-1.6l.6 1.4m225.7.8c-.7 1-1.3 2.5-.9 2.5.2 0 1.6-2.4 1.6-2.7 0-.2-.4 0-.7.2m-325.5 1.2l.4 1 .4.6-.2-.7-.2-1c-.4-1.1 1.5-.5 2.2.7.6.9.3 1.6-.4.8-.2-.3-.5-.4-.6-.3 0 0 0 .3.2.5.1.3.4.8.4 1.4.1.6.3.9.7 1 .3 0 .9.5 1.3 1 .5.6.9.8 1 .6.1-.4 1-.5 1-.1 0 .6-.7 2-1 2-.9 0-1.7-.5-1.7-1 0-1-3.4-.4-3.8.7-.1.2-.4.3-.7.3-.2 0-.5.1-.6.3l-.6.2c-.3 0-.7.2-1 .5-.2.3-.6.5-.8.4l-1.3-.2c-.8 0-1.7-1.2-1.2-1.5a3298.5 3298.5 0 0 0 3.5-3c.3-.4.6-.6.8-.6.4.3.2 1.2-.4 1.8-.4.3-.6.7-.6.9 0 .4 1.4-.5 1.7-1.1.2-.3.6-.8 1-1l.6-.6-.5-1.8c-.4-1.7-.4-2.7.2-2.4l.2.6m14.9-.4c.3.2.4.4.3.5 0 .1.5.9 1.3 1.7.8.8 1.5 1.6 1.5 1.8 0 .5-.4.5-.6 0 0-.2-.3-.3-.4-.3-.2 0-.8-.4-1.3-1-.5-.4-1.1-.8-1.3-.8l-.4-.2c0-.2.2-.3.4-.3.7 0 .2-.6-.7-.8-1.2-.3-1.3-1-.1-1 .4 0 1 .2 1.3.4m5.9.7c.6.7.6 1.2 0 1-.5-.1-1.1-1-.9-1.3.2-.3.3-.3.9.3m23-.2c0 .2-.1.4-.3.4l-.2-.4c0-.2 0-.3.2-.3s.3.1.3.3m-24.7 1.3c1.2 1.1 1.8 2.1 1.3 2.1l-1.5-1.3-1.8-1.5c-.5-.3-.4-.7.2-.7.2 0 1 .6 1.8 1.4m11.1-.9c1.1 1.3 2.2 2.3 2.6 2.3.3 0 .9.3 1.4.8l1.6 1.1c.4.2.7.5.7.7l.2.4 2 2c1 1 2 2.1 2.6 2.5 2 1.5 1.7 2.7-.5 3-1.1.2-1.6.7-1.4 1.5 0 .5-.2.8-1.8 2.2-1 .8-3.6 2.5-5.2 3.3-1.6.8-4.2 3.6-5.4 6l-1 1.6-.8 1.4-2 2.5c-.8.8-1.9 2.1-2.3 2.8-1.6 2.3-2.2 3-2.4 3-.6 0-2.7-4.6-3-6.6l-.5-2.1a1 1 0 0 1 0-1c.2-.5.2-.8-.1-1.6-.2-.6-.4-1.6-.4-2.3l-.2-1.7c-.4-.7-.4-3.4-.1-3.8l.7-1.7c2-5.1 2.4-6 5.3-9 .8-.7 2-2 2.6-2.8.7-.8 1.5-1.5 1.8-1.6.3-.1.8-.5 1.2-1 .6-.6 3.3-2.4 3.8-2.4 0 0 .4.2.6.5m288.1.3c0 .1-.2.2-.4 0a.5.5 0 0 1 0-.5c0-.2.2-.3.4 0v.5m-217.2.7l-.4 1.8a11 11 0 0 0-.4 2.9c0 1.8 0 1.8-.7 2-.4 0-1.3.4-2.1.7-1.8.7-2.2.8-2.2.1 0-.5.6-1 2.1-1.4 1-.3 1-.4 1.2-1.4a19.6 19.6 0 0 1 .9-3.6c.2-1.6 1.6-2.6 1.6-1.1m-103.1-.4c0 .4-.5.8-.7.6-.2-.2.1-1 .4-1 .2 0 .3.2.3.4m-1.2.4c0 .2-.6.8-.9.8l-.2-.5c0-.4.2-.5.5-.5s.6 0 .6.2m2.6 1c.1.6 0 .8-.2.8-.5 0-.8-1-.6-1.7.2-.6.6-.2.8.9m89.2-1c0 .1.2.3.5.3.5 0 .6.6.2 1.2-.3.5-1.7-.3-1.7-1.1 0-.5 0-.6.5-.6.2 0 .5 0 .5.2M20.8 241c-.5 1-.9 1.2-.9.5 0-.4 0-.4-.4 0-.5.4-2.9.3-2.7-.2 0-.1.7-.4 1.5-.5l1.6-.5c.6-.6 1.3-.1.9.7m18.3-.5c.6.1 1.1.3 1.1.4h.5c.4 0 .5 0 .5.5 0 .3.2.5.5.5.5 0 1.5 1.1 1.5 1.7 0 .5-.4.4-1.4-.4-1.6-1.3-2.5-1.3-1.7-.2.6 1-.2.9-.9-.1-.5-.7-.6-.7-.9-.3-.1.2-.4.3-.6.2-.2-.1-.2-.3 0-.5.2-.3.2-.4 0-.4l-.2-.2c0-.2.2-.3.5-.3.7 0 .6-.4-.3-.7-1.6-.6-.5-.7 1.4-.2m304.6.7c-.2.4-.3.4-.3.2 0-.6.3-1.4.4-1l-.1.8m-331.1-.3c0 .1-.1.3-.4.3-.3 0-.5-.2-.6-.3-.1-.1 0-.2.3-.2s.6 0 .7.2m3.2.4c-.1.3-1 .3-1-.1-.1-.2 0-.3.4-.3s.6.2.6.4m333.7 1.7a15 15 0 0 0-1.1 2.4l-.5 1.2c-.7 1.4-1 3-.5 3 .3 0 .6-.5.9-1.5.2-.9.6-2 .9-2.4.3-.4.6-1.4.8-2.2a7 7 0 0 1 .7-1.8c.2-.2.2-.4 0-.6-.1-.1-.6.6-1.2 1.9m-319-1.5c0 .7-.5 1-.5.3 0-.3 0-.6.2-.6.1 0 .3.1.3.3M10.2 243c-.4.8-.6.6-.3-.4 0-.6.2-.7.4-.6v1m16.2-.9c-.2.3-.1.5.4 1l.6.6-.2-.8c-.2-1-.5-1.2-.8-.8m-4.6.2l-.6.6-1.3 1c-.3.4-.9.8-1.2 1-.7.2-.7.2-.3.5.7.5.4 1.4-.4 1.2l-1.5.4c-1.8 1-3.4 1-3.4-.3 0-.2 2-1.1 2.5-1.1.3 0 .5-.2.5-.3l-.4-.2c-.6 0-.4-.4.4-1 .4-.3.7-.8.7-1 0-.3.2-.5.4-.5.4 0 .4.1.3.8-.2 1 0 1.1 1.2.4.4-.2.8-.6.9-1 0-.2.3-.5.6-.6 1-.2 1.6-.1 1.6.1m14.9 0c-.2.2-.4.2-.8 0s-.3-.2.3-.2.7 0 .5.2m305.2 1c-.2.2-.4-.2-.2-.7.2-.4.2-.4.3 0v.6m-326 0c0 .4-1.4 1.4-2.1 1.4-.9 0-.7-.5.5-1.2s1.7-.8 1.7-.3m21.3.3c0 .4-1.1.3-1.2 0-.1-.3 0-.4.5-.3.4 0 .7.2.7.3m53 .8c0 .2-.1.4-.3.4l-.2-.4.2-.4c.2 0 .3.2.3.4m37.3 0l-.3 1c-.3 1-.9 1.2-.6.3l.1-1.1c0-.4.2-.6.4-.6s.4.2.4.3m-89.6.2c.6.3.7 1 .2 1-.4 0-1.2-.6-1.2-1 0-.3.4-.3 1 0m-1.8.3c.5.2.9.5 1 .8 0 .4.3.7.6.8.2 0 .5.2.5.4 0 .3-.4.3-.8-.2l-.5-.3c-.6 0-2-1.1-1.8-1.4.1-.5 0-.5 1-.1m247.7.2a30.4 30.4 0 0 1 8 3.3c.2 0 1.5.2 2.9.6 2.7.6 5.7 1.1 6.8 1.1 1 0 1.6.5 1.9 1.9a341.8 341.8 0 0 0 3 13.3c0 .3.2 1 .6 1.7.4.8.6 1.7.6 2.4 0 .8.2 1.4.7 2 .4.7.7 1.4.7 2.2 0 1.9.5 3.7 1 4.4.4.8.5 1.1.8 3.3 0 .9.4 2 .8 2.8.4.7.8 1.7.9 2.2.1 1.4.7 3.6 1 3.9.5.4.7 0 .4-.6-.3-.7-.5-1.6-.8-3.4-.1-.8-.4-1.5-.8-2-.4-.4-.6-1-.6-1.6l-.3-1.8c-.2-.4-.3-1-.3-1.3 0-.4-.3-1-.6-1.6-.5-.7-.6-1.1-.5-1.7 0-.5 0-1-.3-1.6-.2-.5-.3-1-.2-1.5.1-.8-.5-2.6-1-2.4 0 .1-.2 0-.2-.2s.2-.4.3-.4c.3-.1.2-.4 0-1.4a673.8 673.8 0 0 1-2.3-9c-.1 0-.2 0-.2.2 0 .3-.7.3-1 0-.2-.6.2-1.6.7-1.5.4.1.5 0 .5-.5 0-.8-.6-1.8-.9-1.5 0 .1 0 .4.2.6.3.3.1.9-.2.9-.3 0-.8-1.5-.6-2 0-.3 0-.8-.3-1.1-.4-.6-.4-.7 0-1 .3-.2.3-.3 0-.5-.2-.1-.4-.4-.4-.6l-.3-.4c-.6-.2 0-.7.8-.6.4 0 .9-.1 1-.3.5-.3.7-.3 1.8 0l2.5.7c.7.2 1.5.6 1.9.9.6.5 4.7 2.4 5.2 2.4l1.5.7c2.2 1.4 8 2.9 12 3.1l3.7.5 3.6.3h2.2v1c0 .4 0 1.3-.3 2l-.6 2.6c-.1 1-.4 1.7-.5 1.9-.1.1-.3.6-.3 1.1l-.3 2.4-.5 2.9c-.1.7-.5 2-1 2.7-.4.8-.6 1.6-.6 2 .1.2 0 .9-.3 1.4l-.5 1.2-.8 1.8c-.5 1.1-.7 1.7-.6 2.4.2.7 0 1-.6 2-.7 1-.9 1.5-.8 2.3 0 1-.9 3.9-1.7 5.3-.3.4-.7 1.6-1 2.5-.3 1-1.1 2.6-1.7 3.6a124.1 124.1 0 0 0-3.1 5.3c0 .9-2 2.3-4.4 3.2l-2.9 1.4c-3 1.9-9.3 3-11.8 2-1-.4-2-.5-5.3-.5l-6.3-.1a11 11 0 0 0-3.5.3c-3 1-9.8.8-11.8-.5-2-1.2-5.3-5.3-5.7-6.8-.2-.6-.6-1.7-1-2.3l-.5-1.5-.5-1.3-1-2.1c-.5-1.4-2-2.8-3-2.8s-1 .4-.2.6c.7.2 2.4 2 3 3.2a25.3 25.3 0 0 1 2 6c.5 1.5-1 0-1.7-1.8a25.8 25.8 0 0 1-1.1-2.3c-1-2.2-4.1-4.7-5.9-4.7-2.2 0-2.8-1.3-1.5-2.8.2-.2.5-1 .6-1.6.5-2.3 2.7-3.6 2.5-1.6-.2 2 1.4.5 1.9-1.8l.6-2.5a44.3 44.3 0 0 0 1.5-5.3l.6-3 .5-2c.3-.5.8-2.8 1.4-7a35.7 35.7 0 0 1 2-7.3l.4-1.4a29.5 29.5 0 0 0 1.4-6c.5-3.3.6-3.5 1-3.4.5 0 .6.2.6 1.6 0 3.8.7 1.4 1-3.5.2-2 .4-3.6.6-3.8.3-.4 3.6-.3 5.5.1m-242.9.4l-.2.4c-.2 0-.3-.2-.3-.4s.1-.4.3-.4l.2.4m299.7 1.5c-.1.7-.5 2-.8 2.7a71 71 0 0 0-2.5 6.6c-.3 1-.4 1-1.1 0-.8-1-.7-1.6 0-2.5.3-.5 1.5-2.6 2.5-4.8 2-4.1 2.4-4.5 2-2M7.1 246c0 .4-1 .5-1 .2s.5-.5.8-.5l.2.3m122.6-.1c.2.1.3.3.2.4-.3.2-1 0-1-.4 0-.3.3-.3.8 0m213.1.3c0 .4 0 .5-.3.3-.1-.2-.2-.4 0-.6.2-.4.3-.3.3.3m-313 .2c0 .1-.1.3-.4.3-.3 0-.5-.2-.5-.3 0-.1.1-.2.3-.2.2 0 .4 0 .5.2m5.5.5c-.1.7-1 1.8-1.2 1.6-.3-.3-.1-1.4.3-1.9.5-.6 1-.4.9.3m306.6-.2c0 .3-.4.3-.5 0 0-.2 0-.3.2-.3l.3.3m-329.6.1c.4.2.5 1.2.1 1.5l-.2-.1c0-.2-.1-.3-.3-.3l-.2.4c0 .2-.2.4-.5.4s-.5 0-.6.2c-.3.4-.7.3-.5-.1 0-.2.3-.4.5-.4s.3-.2.3-.4c0-.9-1-.2-1.6 1.1l-.3.4c-.1-1-2 0-2.7 1.4-.5 1-1.1 1.2-1.1.5 0-2.2 2.2-4.1 5.2-4.5.8 0 1.4-.2 1.5-.2l.4.1m27 .3c.4.1.6.8.2.8-.2 0-.8-.5-.8-.8 0-.2.1-.2.6 0m-2.4 1c0 .6-.8 2.3-1.2 2.3-.3 0-.1-2.3.2-2.8.2-.4 1 0 1 .5m81.4 0c.5.1 1.1.2 1.5.1.8-.1.9.1.3.8-.5.5-1 .5-1.4 0-.1-.2-.5-.3-.7-.3-.3.1-.4 0-.4 0 0-.2-.2-.4-.5-.6-.6-.6 0-.6 1.2 0m-77 .7c0 .4-.2.4-.5.1-.2-.2-.3-.5-.3-.7 0-.3 0-.3.3 0 .2.1.4.4.4.6m-36.6.5c-.2.8-1 1.3-1 .5 0-.4.9-1.7 1-1.5v1m337-.8l.2.8c.1.4.1.4-.3 0-.4-.5-.5-1.1-.1-1.1.1 0 .2.1.2.3m-303.4.7c.1.4 0 1-.2 1.7l-.6 1.6c-.5 1.3-.8 0-.5-1.8.5-2.3.8-2.7 1.3-1.5m36 .1c.4.6.4.9 0 .9s-1-.7-1-1.1c0-.4.6-.2 1 .2m292 1.9c.5 1.4.5 1.7.2 2.5-.3 1-.3 1 .2 1.4.6.5 1.4 2 1.2 2.3 0 0-.7-.5-1.3-1.2a8 8 0 0 0-1.4-1.3c-.4 0-.2.4.6 1.2.7.9 1 1.6.5 1.6-.3 0-3.1-1.9-3.5-2.3-.5-.7-.6-1.5-.2-1.5.5 0 .6-.9.2-1.1-.5-.3-.3-.6.2-.6.4 0 .4-.1.1-1-.5-1.4-.4-1.9.2-1.7.2.1.7 0 1-.2.9-.6 1.5 0 2 1.9m-24.6-.6c.3.7.4 1.3.1 1.3-.3 0-1.3-1.2-1.3-1.5 0-1 .8-.8 1.2.2m26.6 0c0 .2-.2.3-.4.3-.4 0-.5-.3-.2-.6.2-.2.6 0 .6.4m-364.9.9c0 .3-.2.3-.4.1-.2-.1-.2-.5-.1-.7.1-.3.2-.3.4-.1.2.1.2.4.1.7m30-.4l-.5.4c-.5.2-1.2-.1-1-.4.2-.4 1.4-.4 1.4 0m337.3.2c-2.2 1.8-2.6 2-2.9 1.7-.4-.6-.2-1.4.4-1.6 1.4-.5 3-.6 2.5-.1m-330.5.4c.1.3.2.7.1.8-.2.2-1.1-.7-1.1-1.1 0-.6.6-.4 1 .3m50 .1c.4.3 1.3.6 2 .7 1.6.1 2 .7 1 1.6-1 1.1-4.3-.4-4.3-2 0-.9.4-1 1.4-.3m251.3.5c.5.7.7 1.3.4 1.3-.2 0-1.9-1.7-1.9-1.9 0-.4 1 0 1.5.6m-306 .3l.3.6c.4.2.3.9 0 .9-.4 0-1.1-1.7-.9-2 .3-.4.7 0 .7.5m-29.7 0c.3.5 0 1.7-.5 1.7-.6 0-.9-.6-.6-1.5.3-.8.7-.9 1-.2m7 0c0 .4 0 .5-.3.3-.1-.2-.2-.4 0-.6.2-.4.3-.3.3.3m76 1.1c1 .8 1.5 1.2 2.2 1.2l1.1.1c.5.1-.4 1.8-1.6 3.2-.7.8-1.3 1.7-1.3 2-.4 3.7-5.9 1-5.9-3 0-.5 0-.6-.6-.6s-.6-.1-.4-.3h.7c.1 0 .4-.3.5-.7.3-1.2 1-1.8 1-.7.1.7 1 2.5 1.3 2.8.6.3.6 0 0-.8-.5-.8-1-3.3-.5-3.3.2 0 .3.1.3.3v1c.1.6 1.4 2.6 2 2.8.8.4 1 0 .3-.5-1.4-.8-2-2.6-1.6-4 .4-1 1-.8 2.5.5m251.7-.2a5 5 0 0 1-.5 1.7c-.6 1.2-.6 2.3-.1 2.5.3 0 .3 0 .2-.5-.1-.6.7-3 1-3 .5-.2.6.6.3 1.6a22 22 0 0 0-.3 1.6c-.3 2.2-.3 2.2-2 1.5-1.2-.5-1.4-1.3-.5-3.2l.8-2c.4-1.2 1.1-1.4 1-.2m-300.8 0c0 .3-.1.5-.3.4l-.2-.6c0-.3 0-.5.2-.5.1 0 .3.3.3.7m55.2 0c0 .2-.1.3-.3.3-.4 0-.5-.3-.2-.6.2-.2.5 0 .5.4m201.2.2c0 .4-.1 1-.3 1.3v.6c.5.3.3.7-.3.5-.4-.2-.5-.1-.3.5l.3 2.6c0 1.1.1 2 .3 2 .4 0 .4.7 0 .8-.2 0-.1.6.1 1.8.4 1.4.4 1.8.2 2.3-.5 1 .5 5 1 4.3.2 0 0-.8-.3-1.7-.5-1.4-.5-1.7-.2-3 .5-2.5.5-3.5.2-3.8-.3-.4-.3-1.6 0-1.8.2-.1.2-.4.2-.7l-.3-3.3c-.2-2.5-.6-4.4-.6-2.4m9.5-.3c-.2.2 0 .4.3.9.7.8.9.8.7 0-.1-.7-.6-1.1-1-.9m-272.4.5c0 .3-1 .7-1.2.4-.2-.1.4-.6.8-.6l.4.2m36.8 1.2c.7 1 2.3 2.5 2.7 2.7.5.1 0 1-.6 1-1 0-5-3.3-5-4.1 0-.8 2.3-.5 3 .4m-1.2 4l1.3.9c1.3.5.8 1.2-.8 1.2-.9 0-3.2-2-3.2-2.8l-.2-.5c-.5-.4-.6-2.5-.2-2.9.4-.3.6-.1 1.5 1.6a17 17 0 0 0 1.6 2.5m-33.5-3.5c.3.3.6.6.8.6.1 0 .2.1.2.3 0 .1-.5.2-1.1.2-.6 0-1.1.1-1.1.3 0 .1.1.2.3.2.2 0 .4.1.4.3l-.4.2c-.8 0-.2.5 1 .7 1.6.4 2 1 .5.7l-1.6-.1c-.4 0-1-.4-1.5-.8-.9-.8-.9-.8-1.2-.3-.4.7-.8.7-.8 0 0-.3.4-.6 1.4-1 1.6-.9 1.7-1 1.2-1.4-.3-.3-.4-.3-.7 0a1 1 0 0 1-.8.1c-.7-.1.6-.6 1.8-.6.8 0 1.1.1 1.6.6m3.2.5c-.2.3-.7-.1-.7-.6 0-.4 0-.4.4 0 .3.3.4.5.3.6m34 .3c.1.2 0 .3-.3.3s-.5-.3-.6-.4c0-.3 0-.4.4-.3.2 0 .5.2.5.4m-7.6.7c.1.4.5 1 .8 1.5.4.4.6 1 .6 1 0 .5 1.9 2.1 2.3 2.1.3 0 .5.2.5.4 0 .9-2.1-.2-3.5-1.8-1-1.2-1.8-3.3-1.4-3.8.2-.4.5-.1.7.6m9.2-.5c0 .4-.4.4-.6 0-.1-.3 0-.4.2-.3.2 0 .4.1.4.3m9.2 2.2c1 2.3 2.3 3.7 3.8 3.7.7 0 1 0 1 .3 0 .5-1 .7-2 .4l-1.5-.3c-1.2-.3-2.8-2.7-2.8-4.3 0-2.3.6-2.2 1.5.2M64 259a8.9 8.9 0 0 0 3.2 3.6c1.7 1 .3 2.7-1.4 1.7-3.6-2-4.4-3.3-3.9-6.2.2-1.1 1.3-.7 2.1.9m-25.8-.3c0 .2-.2.3-.4.3-.5 0-1.2-.8-1-1 .3-.3 1.2.3 1.4.7m258.2-.6c0 .2-.1.4-.3.4l-.2-.4c0-.2 0-.3.2-.3s.3.1.3.3m-235.2 1.8c0 .5 0 .9-.2.9-.3 0-.6-1.5-.4-1.8.3-.5.6 0 .6 1m-1 .8c0 1 .6 2.7 1 3.1.8.7.9.2.3-.7-1.3-2.1-.6-2.4 1.2-.5l2 1.9c.8.7.7 1-.3.8-1.1-.2-1.2.2-.2.6.9.4 1 .8.3 1.3-2.7 2.5-8.2-3.3-6.4-6.8.8-1.5 2.1-1.3 2.1.3m21.5-.2c1.1 3.3 5.6 4.7 7 2.2.3-.8.8-1 .8-.4 0 1.3-2.5 3.6-4.3 3.8-1.6.2-1.5.7.1.6 1.3 0 1.5.1.5.5-.6.2-.7.4-.7 1.1 0 1.1-1.2 2.4-1.7 2-.1-.2-.6-.4-1-.4-2.2 0-4.2-2.2-3.8-4.2.2-1 .5-1 1-.2.2.7 1.5 1.5 2 1.3.4-.1.3-.3-.6-.8-1-.6-1.9-2-1.7-2.9 0-.7.5-.7.7 0 .2.7 1 1.8 1.4 1.8.2 0 0-.5-.4-1.2a4 4 0 0 1-.8-2.4c0-2 .9-2.5 1.5-.8m9-.6c0 .5-.5 1.3-.8 1.3-.3 0-.3-.2 0-.8.2-.7.8-1 .8-.5m-54.4.4c.4.3.1.6-.4.6-.9 0-2.4.6-3 1.2-.8.6-1.2.6-1.2 0 0-.4 1.5-1.6 2.2-2 .4-.1 2 0 2.4.2m-5.2.4c-.1.5-.6.6-.6.1 0-.2.1-.4.4-.4.2 0 .3.2.2.3m26 1.2c.3 2.3 2.4 5.5 3.7 5.5 0 0 .2.1.2.3l-.6.2c-.6 0-2.7-1.7-2.7-2.2 0-.2-.2-.8-.6-1.5-.7-1.4-1-2.5-.7-2.8.2-.4.7-.1.8.5m22.6-.4c0 .3-.4.2-.5 0 0-.3 0-.3.2-.3l.3.3m-42.9.3c1 .3.6.6-.5.6-1 0-1.1.1-1.4.7-.4 1 0 1.3 1.5 1.3 1 0 1.3.1 1.5.6.4.9 0 1.1-.8.6-.4-.2-.7-.3-.8-.1 0 .1-.6.3-1.3.4a3 3 0 0 0-2 1.1 4 4 0 0 1-1 1c-.4 0 0-.8.7-1.8 1-1 1.2-1.7.6-1.5-1.2.5-1.2.5-1 0 0-.2.5-.7 1-1.1.8-.6 1-.8.8-1.1-.3-.4-.1-.5 1.1-.7H37m19.6 2.1c0 1.5 2.8 4.4 4.8 4.9.6.1 1 .9.4.9l-.8.6c-2.4 2.8-8-4.3-5.9-7.4l.5-.8.5.7c.3.4.5 1 .5 1.1m277.6-1.1a.4.4 0 1 0 .8 0 .4.4 0 0 0-.8 0m-296.2.5c.3.2-.7.4-1 .1-.2-.1-.4-.2-.5 0-.1 0-.2 0-.2-.2s1.4-.2 1.7 0m17 4.2c.9 2 2.3 3.5 3.2 3.5.6 0 1.4.5 1.2.8-1 1.8-6-2.9-6-5.7 0-1.1.5-.6 1.5 1.4m278.5-1.8c-.3.3-.2.6.2.6.2 0 .4-.2.4-.4 0-.4-.3-.5-.6-.2m-295.7 1.1c1 .7 1.2 1.6.2 1.3-1.7-.5-3.5 0-4.1 1-.4.8-.7.9-.7.3 0-1.2 1.5-2.7 2.8-3h.9l.9.4m16 1.8c.9 1.8 2.2 3 3.6 3.4.6.2 1 .4 1 .6 0 .4-2.4 2.2-3 2.2-.7 0-.5-.6.2-.9.9-.4.5-.7-.9-.8-1.4-.1-2.3-1-2.6-2.5-.7-3.3.5-4.7 1.8-2m278.7-1.2c-.5.2-.7.6-.8 1.2-.2 1-1.1 3.8-1.8 5-.6 1.2-.4 1.4.5.7.5-.3.7-.6.6-1.1 0-.4.2-1 .5-1.3.3-.4.5-.9.5-1.1l.4-1.2.3-1.1c0-.2.2-.5.3-.5.2 0 .3-.3.2-.5 0-.4-.2-.4-.7 0m-250.4 3c1.8.5 1.9.8.3 2.3-1.8 1.8-3.8 1.4-4.9-1-.6-1.4 0-2.5.9-1.4.3.5 2.2 1.5 2.4 1.3l-.9-.8c-1.1-.7-2-1.7-1.7-2.3 0-.3.4-.1 1.3.5.6.5 1.8 1.1 2.6 1.4m-45.2-1.7l.9.2c.4 0 .8.2 1 .4.4.4.4.4-1.4.9-1.7.4-1.4.8.4.6 2.2-.2 2 .4-.1.9-1.3.2-1.8.5-2 .9-.4.6-1.1.8-1.1.4 0-.5.5-2 .9-2.3.3-.5.4-1 .1-1l-.7.9c-.6.8-1 1-1.3.4-.3-1 2.8-3.1 3.3-2.3m14.5 1.4c.2 1.2 1.5 3 2.4 3.5l.8.6c0 .4-1.3.2-2.3-.3l-.9-.6 1 1c.4.5 1 .9 1.2.9.3 0 .5.2.5.5s-.2.5-.4.5-.5.2-.6.4c-.9 1-2.8.3-3.6-1.2a45 45 0 0 0-1.1-2c-.3-.4.7-2.5 1.3-2.5.4 0 .9.6.9 1 0 .3.1.7.3 1 .4.3.4.3.4 0l-.4-1.4a5 5 0 0 1-.3-1.5c0-.8.6-.7.8.1m309.4 2.5c.5.7 1.2 1.3 1.5 1.3.6.2.9 1 .5 1.5-.2.3-1.1.3-3.4.1-1.7-.1-3.7.8-4.4 2.1-.3.5-.5.6-1.2.5-1.1-.2-.8.5.5.9 1 .3 2.5 0 4.8-1 .6-.3 2-.8 3.3-1l2.2-.6 1.6 1.7c1.7 1.9 2 2.5.9 2.2-3.7-1-6-.3-13 4.2-4.4 2.8-7.6 2.3-6.3-.9.2-.4.6-1 1-1.3l.6-1.2c.4-2 .6-2.4 4.2-5.5 5.3-4.6 5.6-4.8 7.2-3m-283.2.1c.8 1.2 1.2 1.5 2.2 1.5 1.1 0 1 .4-.2.6-1.2.2-1 .6.3.6h.7l-.8 1.2c-1.3 2-3.4 2-3.9 0 0-.6-.6-1-.6-.5.1.9 1 2 2 2.3 1.2.5 1.3.7.3 1-.6 0-1 0-1.6-.4-1-.6-1.2-.5-.5.2.3.3.8.5 1.3.5 1.3 0 1.3 0 .6 1.6-.6 1.3-.8 1.5-2.1 1.9-.7.2-2.1-.6-1.5-.8.3-.1 0-2-.6-3.3-.3-.9 0-1.5 1.1-2.7.4-.3.9-1 1.2-1.6.4-.8.5-.9 1.2-.8l.7.2-.5-.6c-.6-.6-.7-1.2-.4-1.5.3-.3.5-.2 1.1.6m-39-.3c0 .4-1.7 1.2-2 1-.2-.3 1-1.2 1.5-1.2.3 0 .5 0 .5.2m1.9 1s-.2.3-.6.5l-1.4.7c-.7.5-1.2.3-.8-.4.6-.9 2.6-1.5 2.8-.9m8 1.2l.7 1.5c.7 1.3.5 1.5-.6.5-.9-1-1.4-2-1.2-2.4.2-.5 1.2-.1 1.2.4m-8.2.4c.1.2-.1.4-.5.5-.4.2-1.2.9-1.7 1.6-.6.8-1 1.1-1.2 1-.4-.4.2-2 .9-2.4.3-.1.6-.4.7-.6.3-.4 1.6-.4 1.8 0m7 .6l1.7 1.8c1.3 1.2 1.5 1.7.7 2-1.2.4-3-.4-3-1.3l-.4-1.5c-.5-1.6.2-2.3 1-1m22.8.5c1 .3.2 1.2-.8 1-.7-.3-.7-.6-.1-.9.5-.3.4-.3.9-.1m258.2.8c-.5.5-1 1.2-1 1.6-.2.8-1.4 2.2-1.8 2.2-.2 0-.8.4-1.3.9a5.6 5.6 0 0 1-3.7 1.6c-1 0-1.1.3 0 .8 2.4 1 5.9-.3 6.2-2.3.2-.7.5-1.2 1.5-2 1.1-1 1.2-1.2 1-2 0-.4 0-1 .2-1.3.4-.8 0-.6-1 .5m30.3-.6l.1.5c-.2.3-1.2-.4-1-.6.2-.4.5-.3.9.1m-317 .1c.3.2.3.4.1.7-.4.6-1 .7-1.2 0-.3-.8.3-1.2 1.1-.7m4.2.5l.3 1c0 .9.5 1.4 1.7 1.9.5.2.8.5.7.7-.2.4-1.3.4-2.2-.1-.6-.3-.8-.1-.3.3.2.2.7.3 1.1.3.9 0 .9 0 .4 1.1-.6 1.2-.8 1.3-3 1.1-2.4-.1-3-.5-1.9-1.3.6-.4.5-1 0-1-1.5.2-1.3-.6.7-2.7 1.8-2 2-2 2.5-1.3m310.5 1c-.7.5-1.5.3-.9 0 .2-.3.6-.4.8-.3.3.1.3.2 0 .4m-285.2.3c.4.3.4.3 0 1-.5.7-.8 2.9-.4 2.9.2 0 .3-.4.3-.9 0-1 1-2.3 1.4-2 .5.3 1 2.4.6 3-.5.8.2 1.3 2.1 1.2 1.8 0 2 0 1 1-.3.2-.8.9-1 1.3-.3.8-.5.8-.9.6-.6-.3-1.8-.3-2.3.2-.7.5-.4.6.5.3.7-.3 1-.2 1.7.1 1.1.5 1.2.5 1 0 0-.2.1-.4.3-.5.3 0 .3.2.2 1.1-.2 1.6-.2 1.5-1.6.6-1.7-1-1.6-1-2.8.6l-1.3 1.4c-1 0-1.9-6.4-1.4-10.6.2-1.5 1.5-2.1 2.6-1.3m-28.6.1c0 .3-.8.6-1 .4v-.4c.3-.3 1-.3 1 0m2.4.4c.2 1 .6 1.4.6.7a2 2 0 0 0-.4-1c-.4-.4-.4-.4-.2.3m303.6 2.2c0 .4-.3.7-.5.7-.5 0-.4-.3 0-1 .5-.7.7-.6.5.3m-307 .2c.3.6 0 1.2-.6 1.2-.3 0-.4.1-.3.4 0 .2-.1.6-.4.9-.5.4-.5.5-.3.8.3.2.4.2.8-.3.5-.5.6-.6 1-.3.3.2.8.2 1.6 0 1.2-.3 2.4-.1 2.4.3 0 .1-.6.2-1.3.2-.7 0-1.5.1-1.7.3-.3.2 0 .2 1 .2 2 0 2.6 1.5.7 1.6h-.8l.8.2c1 .4 1.2 1.7.3 2-.3 0-.6.5-1 1.3-.2.7-.5 1.3-.7 1.4-.3.1-2.2-1-2.7-1.8-.3-.3-.7-.4-1.3-.4-1.4 0-1.6-.4-1.4-2.5l.2-2.3c0-.5 0-.7.4-.7s.5-.2.5-1c0-1 .4-1.5 1.6-1.8l.8-.2.4.5m256 0l.5 1.8c.2.7.4 1.6.6 1.8.5.9.3-.3-.2-2l-.5-1.7c0-.2-.2-.4-.3-.4-.2 0-.2.2-.1.4m71.2 0c0 .4-.1.5-.3.5l-.2-.6c0-.2 0-.3.2-.3s.3.2.3.5m-3.4.5c.3.9 0 1.2-.5.7-.5-.4-.8 0-.3.4l.5.7c0 .2.2.2.5 0 .4-.4 1.4.3 1.4 1h.6c.8-.2.9.4.1 1.2-1 1.2-1.7 2.3-1.7 3.1l-.2 1c-.2.1-.3.4-.3.6 0 .5-.7 2-1.3 2.7-.2.2-.5.3-1 .2-.7-.1-.7-.1-.5.5.2.8-.1.8-1 0-.4-.5-1-.8-1.8-.8-1.3-.2-1.3-.7 0-.8l1.2-.2c.3-.3-1.4-2-2-2-.2 0-.3-.2-.3-.4l-.2-1.2c-.1-1-.1-1 .5-1 .7 0 .8-.2.4-.7-.3-.2-.2-.3 0-.6.3-.2.5-.6.6-1 .2-.8.7-.9 1.2-.1.2.3.5.5.6.4l-.2-.8c-.3-.3-.4-.8-.4-1.2 0-.4-.2-.7-.3-.7-.1 0-.2.1-.2.4 0 .2-.2.3-.4.3-.5 0-.5-.6 0-1 .5-.6 1.4-.6 1.4 0 0 .1 0 .3.2.3l.5.6c.1.4.4.6.5.6.4 0 .3-.6-.2-1-.8-.8-.7-1.4.3-1.7 1.3-.4 2-.2 2.3.5m-328.3.4c.2.2.2 1 .1 2.7-.2 4.1-1 4.5-1 .5 0-1.4-.1-2.2-.3-2.3-.2 0-.3.5-.3 2 0 2.5-.2 2.8-1.2 1.4-.8-1-1.3-2.6-1-3 1.1-1 3.3-1.8 3.7-1.3m.9.2c-.2.3-.7-.1-.5-.4 0-.2.2-.2.4 0 .1.2.2.3.1.4m330.5 1.4c0 .5-1 .2-1.6-.4-1.1-1-.8-1.5.5-.6l1.1 1m-44.5-.5c0 .3-.7.6-1 .4-.1-.2.2-.7.6-.7.2 0 .4.1.4.3m-274 .7c0 .3-1.2.6-1.4.4-.2-.2.5-.6 1-.6.3 0 .5 0 .5.2m316 .9c0 .2.2.4.3.4.4 0 .3-.6-.1-.7-.2 0-.3 0-.2.3m-295 .1c-.8.2-1.9 1-1.7 1.2.1 0 .8-.1 1.5-.4.8-.3 1.8-.5 2.2-.5.4 0 .7-.1.6-.3-.2-.3-1.4-.3-2.6 0m-20.8.1c-.6.5-1.2.7-1.2.3 0-.2.2-.4.6-.4.4 0 .7 0 .6.1m320 .2v2.3l1-.2c1.7-.2 3.7 1.5 2.4 2l.3.1c.8 0 .6.7-.4 1.2l-.8.6c0 .2-.7 1-1.6 1.8-.9.9-2 2-2.3 2.5-.7.8-1 1-2.3 1.1-1.6.3-2.8 1.2-2.8 2.1 0 .3-.1.5-.3.5-.3 0-1 1.3-.8 1.7.3.8-5.5 7.2-7.7 8.5-1 .5-1.5.6-2.9.5h-2.7c-2.2.2-2.3.1-2.3-.4-.1-.5 1-1.3 1.8-1.3l.9-.3c.4-.3.5-.3.6 0 .2.5.7.3 1.3-.6.4-.6 1.5-1.8 2.6-2.9 3-2.9 3.6-4.3 4.5-9 .4-2.2.7-2.3 2.2-1.2 1.4 1 2.2 1 3.2 0l1.4-1c.4-.3.7-1 .9-1.6.3-1.1 2-5 2.7-6.1.4-.6 1-.8 1.1-.3m-319 1.5c0 .2-.4.2-.7.1-.4-.1-.4-.2 0-.5.7-.4 1.3 0 .8.4m302.4.2v2.3c0 1.2 0 1.5.2 1.4.2 0 .4.2.4.4.1.3 0 .4-.2.4-.3 0-.5.4-.6 1-.2 1.2-.4 1.4-1.4 1.7-.8.2-.8.2-.6-.8l.2-2c0-.6 0-.9.3-.9.5 0 .5.5.2 1.3v1.1c.3 1 .6-.2.6-3.3 0-1.7.2-3.2.2-3.3.3-.5.6-.2.7.7m2.6.7l-.1 2.3c0 1-.2 1.6-.6 2l-.5.7.2-3c0-1.5.2-3 .3-3.2.2-.6.7.3.7 1.2m-309 .1c0 .4-.2.7-.4.6-.2-.2-.3-1.2 0-1.5.3-.3.5.2.4 1m2.7-.8c0 .5-.7 1.3-1 1.1-.2-.2.4-1.4.7-1.4.2 0 .3.1.3.3m297.9 0l.4.2.4.2c0 .2-.2.3-.4.3s-.4-.1-.4-.3l-.4-.2c-.2 0-.3-.1-.3-.3 0-.1.1-.2.3-.2l.4.2m-2.6.7a509.4 509.4 0 0 0-1 4.2c-.1.9-.4 1.6-.7 2-.2.2-.4.6-.4.9 0 .7-.8 2.5-1 2.5-.3 0-.3-.3.4-3 .8-3.4 2.2-7.3 2.6-7.3.2 0 .2.3.1.7m6 0l-.2 2.2c0 1.9-.4 3-.5 1.3V289c-.1-1.4.2-2.3.6-1.7v.5m-281.3 0c-.7.6-.3.6.5 0 .4-.3.5-.5.4-.5l-.9.5m280.1 3.2a24 24 0 0 1-.4 4c-.3.7-.7.7-.7 0l-.2-.6c-.2 0-.3 0-.3.2 0 .3-.1.4-.2.4-.2 0-.3-.4-.2-1 0-1 .4-1.4.4-.5 0 .4 0 .4.3 0 .2-.4.4-2.4.4-4.9 0-1.2.1-1.3.6-1.3s.5 0 .3 3.7m2.3-1.8c0 .3-.3.6-.4.6-.3 0-.3-1 0-1.6.2-.7.6.2.4 1m-301.5.2c-.1 1.4-.2 1.5-.6 1.3-.3-.2-.3-1.6 0-2.3.2-.8.6-.2.6 1m2.4-.9c0 .2 0 .3-.2.3-.1 0-.3.6-.4 1.3-.1.9-.3 1.2-.4.9-.3-.5-.4-2-.1-2.4.2-.4 1.1-.4 1.1 0m290 1c0 .6-.3 2-.6 3a28.6 28.6 0 0 0-1.5 8.1c0 1.5-.2 2.2-.6 1.6l-.2-1.7c0-.7 0-1.3-.2-1.3 0 0-.2.4-.2 1 0 .9-.1 1-.8 1.4-.4.3-.7.7-.7.9 0 .5-.7.8-1.1.5-.7-.6 0-5.3 1.3-8.4 1-2.3 1 .4.2 3.8-.5 1.6-.5 3.1-.2 3 .2-.2.3-.6.3-1.1l.2-1.3a222.3 222.3 0 0 1 1.3-6.5c0-.6 1-2.3 2-3.2l.5-.9c0-.1.1-.2.3 0 .1 0 .2.5 0 1.1M56.6 289c0 .3-.8.9-1 .7-.2-.2.2-1 .6-1 .2 0 .4.2.4.3m292.2 1c0 .5-.1.8-.4.7-.3 0-.4-1.3-.2-1.7.2-.5.6.1.6 1m8.8-.5c.5 1.6.5 2.6 0 2.5-.5-.1-.8-.9-.8-2.2 0-.8.6-1.1.8-.3m-2.7 0c.2.4-.4.8-.7.5-.3-.2 0-.7.3-.7l.4.3m7.6 0c0 .3.7.6 1 .3l-.2-.4c-.5-.3-.8-.3-.8 0M58 290.6c-.5.5-.6.7-.4 1.7.2 1.5-.6 1.6-1.3.2-.6-1.2-.5-1.5 1-2.4 1.2-.6 1.5-.4.7.5m289.5-.8c.3.7-.2 6.1-.5 6.4-.5.5-.7-.3-.4-1.8.4-1.5.4-4 0-4l-.2.6c0 3.3-1 6-1.9 6-.8 0-.8-.7 0-2.5.4-.8.8-2 .9-2.7.2-1.5.4-1.8 1-2.1.8-.3 1-.3 1 0m-278.7.7c.2.3.2.5.1.5l-.5-.5c-.2-.2-.2-.5 0-.5l.4.5m273 .6l-.8 3.7-.4 1.1c-.4.8-.5 2.6-.1 2.6 0 0 .3-.6.3-1.3l.7-3c.8-2.7 1-3.4.7-3.4-.1 0-.3.1-.3.3m-282.4.6c-.4 1.4-1.4 1.9-1.4.7 0-1 .2-1.4.9-1.4.6 0 .6.1.5.7m3.9-.3l1.1.3-.3.7c-.4.7-.7.8-1.1.3-.8-1-1.2-.5-.6.8.4 1 .2 1.4-.6 1.2-.5-.2-.6-.4-.6-1.8 0-2 0-2 2-1.5m285.2.1c0 .1 0 .4.2.6 0 .3 0 .4-.3.4s-.4-.2-.4-.6c0-.3.1-.6.3-.6 0 0 .2 0 .2.2m27 0c.2 0 .2.2.1.4-.1.4-.8 0-.8-.4 0-.2.6-.3.8 0m-320.3.8c0 .3 0 .5-.2.5s-.3-.3-.3-.7c0-.3.1-.5.3-.4l.2.6m19.8-.5c1.2.3 1 1-.3.9-2-.4-2.8-.6-3-.9 0-.3 2.2-.4 3.3 0m287.8 0c-.3.2-.1.4.4.6l.5-.1c0-.3-.7-.8-.9-.6m-296 .6l-.4.6c-.2.5-.2.5.2 0 .3-.3.5-.4.7-.2.1.2.6.2 1.1.2.8-.2.9-.1.7.3l-.3 1c-.2.8-1 .7-1.5-.2l-.3-.6v.7c0 .8-.2.9-1 .1l-.5-.5v.7c0 .7-.2.8-.9.3-.8-.6 1.3-3.3 2.2-2.7v.3m287.5.4c-.1.3-.2.3-.4.2-.1-.2-.2-.5 0-.7 0-.3.2-.4.3-.2.2.1.2.4.1.7m-282.8-.3c0 .2-.1.4-.3.4l-.2-.4c0-.2 0-.4.2-.4s.3.2.3.4m286.3 1.8c0 1.7-.5 5-.9 5.6-.3.6-2 1-2.4.5-.3-.3-.3-.3-.3.3s-.2.7-1.1 1l-1.4.4c-1.2.4-7.3.2-7.2-.2.2-.6-.2-1.5-.8-2.1-.7-.8-.3-1.6.9-1.8.5 0 1.3-.3 1.9-.6a25.1 25.1 0 0 0 5.3-2.2 22 22 0 0 1 4-1.8c.3 0 .7-.2.9-.5.6-1.2 1-.5 1 1.4m-297.2-.8c0 1-.4 1.2-.6.5-.3-.7-.2-1.4.2-1.4.3 0 .4.3.4 1m290.6.5c0 .8-.7 1-.7.2 0-1 .3-1.8.5-1.3l.2 1.1M72 293.4c0 .2-.2.3-.5.2-.4 0-.7.1-1.2.7-.7 1-1.3 1.2-1.3.5s1.3-1.8 2.2-1.8c.5 0 .8 0 .8.4m-22.2.3c1.3.8 1.3 1.9 0 2.4-1.5.6-2.3.1-1-.7.8-.6.3-1-.8-.8-1.1.2-1.8 1.2-1.1 1.7.5.4 0 .8-.8.6-1-.4-.4-2.7.7-2.7l1.2-.5.9-.5 1 .5m14 .5c0 .5-.3.7-.6.2-.2-.3.1-1 .4-.8.2 0 .3.3.3.6m10.3-.4c.6.3.6 1.5 0 1.7l-.9.3c-.3.1-.4 0-.4-.2s0-.4.2-.4.3-.3.3-.8c0-.7.1-.8.8-.6m240.7.8c.3 1.5.9 2.2 2 2.2.7 0 1.2.3 3.6 2 1.3 1 3.2 1.8 3.6 1.4.4-.3 0-.7-1-1-.5-.1-2.2-1-3.6-2-1.5-1-2.8-1.8-3-1.8-.3 0-.6-.3-.8-.7-.6-1.2-1-1.2-.8-.1m57.4-.4c0 .3 0 .5-.2.5s-.3-.2-.3-.5.1-.5.3-.5c.1 0 .2.2.2.5m-300 .9c0 .9-.9 1.5-1.5.9-.4-.4 0-1.2.5-1.3.3 0 .6-.2.6-.3 0-.1 0-.2.2-.2s.3.4.3.9m4.5-.5l-.2.9-.4 1c-.1.4-.2.4-.8.1-.7-.3-.8-1.3-.2-2 .5-.5 1.6-.6 1.6 0m8.1 0c.2.1.5.6.7 1.2.6 1.2 0 1.5-1 .6s-.7-2.5.3-1.8m288.6 0c0 .2-.2.3-.4.3s-.4 0-.4-.2c0-.1.2-.3.4-.3s.4.2.4.3m-295.1.6l-.2 1-.2.4h-.5c-.4 0-.3-1.2.2-1.6.4-.5.9-.3.7.2m1.8.3l-.1 1.1c-.4.4-1 0-1-.6 0-1.6.8-2 1-.5m2.4-.8c1 .3 1.1 1.1.1 1-1.4 0-2.1-.5-1.6-1 .2-.2.5-.2 1.5 0m7.4.3c.6.6.5 1.2-.2 1-1.6-.5-2-.5-2 0s-.4.4-1-.2c-1-1-.8-1.2 1-1.2 1.3 0 2 .1 2.2.4m2.6.4c0 .3-.1.4-.6.4-.7 0-.8-.6-.2-1 .6-.2.8 0 .8.6m4.2-.4c.1.4-1.4.6-2.1.3-.3-.1-.5-.3-.4-.4.2-.4 2.4-.3 2.5.1m3.8 0c0 .4-.8.5-2.2.2-1.1-.2-.5-.6 1-.6 1 0 1.2 0 1.2.4m-31.5 1c0 .2 0 .3-.2.3s-.3-.1-.3-.3c0-.2.1-.4.3-.4l.2.4m300.5.3c0 .8-.3 1.3-.7 1.3-.4 0-.4 0 0-1 .2-.8.7-1 .7-.3m-32.4.6l-.4 2.7c-.4 3-.6 3.6-1.2 3.7-.7.1-.7-.3 0-2.7.5-2 .5-2.3-.1-1.6-.4.3-.5.3-.5-.3 0-.5.1-.6.6-.6.4.1.6 0 .8-.8.1-.6.3-1 .6-1 .2 0 .3.2.2.6m-72.3 1.3c1.7 1.3 2.2 3.2 1 3.7-.7.2-.7.3-.3.6.7.5.5 1-.4 1.2-.9.2-2 2-2 3.4 0 .3-.2.6-.4.8-.3.2-.5.5-.5.7 0 .5-3.9 3.5-4.4 3.5-.2 0-.8-.6-1.3-1.4-1-1.6-1.3-1.9-2.6-2.2-1.2-.4-1.2-.9-.1-2.1l.9-1.5.4-1c.6-.7 1.3-.6 1.3.2 0 .3.1.5.2.4.4-.3.3-1 0-1.2-1-.4.5-3.2 2-3.9.4-.1.8-.4 1-.6l.6-.2c.4 0 .6 0 .7-.4.2-1.1 2.3-1.1 3.9 0m-179.5-.2c.2.2-.4.6-.9.6-.6 0-1-.4-.7-.8 0-.2 1.3 0 1.6.2m256.8 1.9c-.1 2.5 0 2.4-.5 1.9-.4-.6-.2-4 .3-4 .1 0 .2 1 .2 2.1m-259.5-1.6c.1.1 0 .3-.2.4-.4.1-.7-.2-.4-.4.2-.3.5-.2.6 0m196.2 0c-.3.5 1.3 2.8 1.9 2.8l.7.7 1.2 1.7 2.2 2.7c.8 1 1.3 1.9 1.3 2-.1.2 0 .4.2.4l.4.2c0 .6-3.6.6-4 0-.1-.3-1-.3-1.2 0-.4.7 1 1.4 3.9 1.7a13 13 0 0 0 5.5-1c.5-.6 0-1-1.1-.8-1.4.2-2.3-.2-3.5-1.8l-3-3.5c-1.2-1.2-2.1-2.4-2.1-2.6 0-.1-.4-.7-1-1.3-.4-.5-.8-1-.8-1.2 0-.3-.4-.3-.6 0m-228.4 1.8c-.3.2-.9-.3-.9-.8v-.6l.5.6.4.8m4.4-1l.2.2c0 .4-.5.3-1-.1-.3-.4-.3-.4.1-.3l.7.2m279.6.6c0 .4-.4.8-.6.6-.2-.3 0-1 .4-1l.2.4m9 1c.2 1 .1 1.6-.2 1.6-.2 0-.7-2.3-.6-2.5.3-.5.7 0 .9 1m22.5 0c-.1 1.4-1.9 5.2-2.6 5.6-.6.3-1.2 0-1-.4 0-.3 0-.4-.4-.4-.6 0-.7.4-.2.6.5.2-.3.6-1.2.6l-1.4.2c-.5.1-.5 0 .5-1 2-2 2.5-2.6 2.5-2.8 0-.5 1-1.4 1.3-1.2.7.2 1-.1.7-.6-.3-.4-.2-.6.4-1.2 1.1-1 1.6-.8 1.4.6M52 300.4c.2.4-.6.4-.8-.1 0-.3 0-.4.3-.3.2 0 .4.2.5.4m297.6 0l-2.8.5-1.7.2 1.4.1c1.3.2 2.6 0 5.4-.8l.7-.2h-.8c-.5 0-1.5.1-2.2.3m-15 2.7c-.2.3-.3.4-.6.3-.3-.2-.3-.3 0-.7.3-.4.3-.5 0-.7-.3-.2-.4-.4-.2-1 .2-.5.2-.5.6.5.2.6.3 1.3.2 1.6m21.2-1.8c0 .4-.5.6-.8.4-.2-.1-.2-.2 0-.4.5-.3.8-.3.8 0m-96.8.3c-.4.2-.6.3-.4.5.2.2.5.2 1 0 1.1-.6.6-1-.6-.5m10 .4c0 .2-.2.3-.3.3-.1 0-.2-.1-.2-.3 0-.2 0-.4.2-.4.1 0 .3.2.3.4m85.3.6c0 .5-.4.6-1.4.5-.5 0-.6.4 0 .6 1.3.4-3.5 3.4-5.5 3.4l-2.4.1-1.5.2v-.7c.1-.8 2.7-1.3 6.6-1.3 1 0 1.4-.1 1.3-.3-.2-.2-1-.3-2.9-.1l-6.5.2c-2.2 0-4.8.2-5.9.4-4 .6-7.6.3-5.7-.6.7-.2 2.1-.3 8.1-.4l2.1-.2c.1-.2 0-.3-.1-.3-.2 0-.3 0-.2-.2.1 0 2.2-.2 4.8-.2 2.5 0 5-.2 5.8-.3 1-.2.4-.3-2.6-.2-5.3 0-5.4-.4-.2-.6 2.1 0 4-.2 4-.3.5-.5 2.2-.2 2.2.3m-21 .6c0 .2-.2.4-.4.4a.4.4 0 1 1 .3-.4m-284.6.1c-.2.1-.2.4-.1.7.2.6-.3.8-1.4.7-.8-.1-1.4 0-3.8 1.3a33 33 0 0 0-9.6 6c-.6.6-2 1.6-3 2.2-2 1.1-2.6 1.7-1.8 2 .3 0 2.1-.6 3-1.3a109.9 109.9 0 0 1 12.5-7.1c5.4-3 6-3.5 5-3.5-.4 0-.5 0-.5-.2.1-.1.3-.2.4-.1.4.2.8-.1.6-.5-.1-.4-.8-.5-1.3-.2m37.6.7a113.4 113.4 0 0 0-8.5 6.7c.2.6 1 .4 2-.6l2.3-1.5a18 18 0 0 0 3.5-3c3-2.8 3-3.2.7-1.6m183.1-.4s0 .3-.2.4c-.3.3-.4.3-.4 0 0-.2-.1-.4-.3-.5-.2 0 0-.1.2 0l.7.1m67.8.4c-.6.5-1.4.4-1.4 0 0-.3.3-.4 1-.4.9 0 .9 0 .4.4m-244 .8a96 96 0 0 0-4 3.7 30.2 30.2 0 0 1-3.7 3c-.8.4-1 1-.6 1.2.5.3 2-.6 4.3-2.6l4.2-3.7c2.6-2.2 2.5-3.7-.1-1.6m166.3-.1c-.4.5-.6.9-.4.9.3 0 1-1 .8-1.2 0 0-.2 0-.4.3m12.2 1.3l1.4 2c.2.4.5 1 .7 1.1a5 5 0 0 1 1.2 1.9l-1.4.1c-.8 0-1.4.1-1.5.2-.3.5-.6.3-.6-.2 0-.4-.2-.5-.5-.5-.3.1-.4.3-.4 1 0 .5 0 .8-.4 1-.6.4-.7 1-.1 1 .2 0 .4.2.4.4l.4.7c.6.3 1 1.7.6 1.7-.2 0-.4-.3-.6-.7-.2-.4-.4-.6-.5-.4-.3.5-1.4.4-1.7-.1-.1-.4-.7-.5-2.6-.6-3.2 0-3.2 0-1-3.6l.7-1.2c.6-1.3 3-4.2 3.8-4.7.8-.4 1-.3 2.1 1m57.8-.7c0 .4-.6.8-.8.5v-.5c.1-.4.8-.4.8 0m-89.5 1.1c-.7.6-.8 1-1.1 3.1l-.7 3.6a27 27 0 0 0-.3 4.2v4c0 1 0 1.3.3 1.3.4 0 .6-.7 1.1-4.7.2-1.7.6-3.6.8-4.3.2-.6.3-1.8.3-2.6s.2-1.8.4-2.3c.8-2 .4-3.4-.8-2.3m103.1-.4c.3.5 0 .5-3.8.6-3.7.1-4.8 0-3.5-.6a28 28 0 0 1 7.3 0m-298 .2c0 .3-.6.8-1 .8-.7 0-.7-.4-.1-.7.5-.3 1-.4 1-.1m222.2 0c0 .1-1.3 2-2.3 3.2-.4.4-.7 1-.7 1.2 0 .5-.2.8-2.2 4-.6.9-2 2-3 2.3-.4 0-.9.3-1.1.5-.2.2-.6.4-.8.3-.2 0-.8.1-1.4.5-1.4.7-3.2 1.6-3.5 1.6l-1.5 1.1c-1.4 1.2-1.7 1.3-4 .7-2.2-.6-2.3-2-.6-5.3 1.2-2.3 1.6-2.4 2.8-1 .8 1 .9 1 2.3 1 1 0 1.5 0 1.7.3 1 1.1 2.7 0 2.2-1.4l-.3-1.7-.2-1.3a1 1 0 0 1 0-1c.5-.7 1-.5 1.8.7 1.7 2.4 6.2.1 9.6-5 .5-.8 1.2-1.2 1.2-.7m64 0c.3 0 .5.2.5.3 0 .4-2.3.2-2.4-.2-.1-.3 0-.3.7-.2l1.3.1m37.7 0c0 .2-.2.3-.5.3s-.4-.1-.4-.3l.6-.2c.2 0 .3.1.3.2m-34.3.3c0 .1-.5.2-1.1.2-.7 0-1 0-1-.2.1-.1.6-.3 1.2-.3.5 0 1 .2 1 .3m28.7.6c0 .2-.2.5-.4.6-.6.3-5 .6-5 .3s.6-.5 1.9-.5c.6 0 1.5-.2 2-.4 1.2-.4 1.5-.4 1.5 0m-21.2.1c0 .2-.2.3-.4.3s-.4-.1-.4-.3l.4-.2.4.2m-4.6.6s-.1.2-.3.2c-.4 0-.5-.3-.2-.6.2-.2.5 0 .5.4m-295.4 0c0 .3-.7.6-.9.4-.2-.2.2-.7.6-.7.2 0 .3.1.3.3m304.8 0c-.3.2-.4.2-.6 0-.3-.2-.2-.3.3-.3.4 0 .5 0 .3.3m-1.5.2c.5.7-4.7 1.4-5.6.8-.6-.4-.1-.6 1.5-.6.8 0 1.7 0 2-.2.8-.3 2-.3 2.1 0m-12.9.5c0 .3-1 .5-3 .5l-3 .1h-1.1c.5-.6 7.1-1.1 7.1-.6m3.3 0l-.4.2c-.2 0-.4 0-.5-.2 0-.1.1-.3.4-.3.3 0 .5.2.5.3m28.5 0c0 1.3-1.6 2.5-3.4 2.5-1.2 0-1.3-.1-.8-.3 1.9-.7 2.2-1 2.2-1.5 0-.3.2-.6.6-.7.7-.3 1.4-.3 1.4 0m-3.7.2c0 .2-.2.3-.4.3s-.4-.1-.4-.3l.4-.2.4.2m-36 .5c0 .3-.8.5-1.3.4-.3-.1-.3-.2 0-.4.5-.3 1.2-.3 1.2 0m-48.5.5c.4.4.5.5.3.7-.2 0-.6-.1-1-.5-.8-.8-.3-1 .7-.2m62.4 0c0 .4-1.3.5-9.1.7-7.4.1-10.2-.2-3.9-.5a80 80 0 0 0 5.4-.4c2-.3 7.6-.2 7.6.2m7.3-.1c-.1.4-3 .9-3.9.6a8 8 0 0 0-1.7-.2c-.5 0-.8-.1-.8-.3 0-.2.8-.3 3.3-.3 2.1 0 3.2 0 3.1.2m20.1-.1c0 .1-.2.2-.5.2s-.4 0-.4-.2l.6-.3c.2 0 .3.2.3.3m-106.7.3c0 .4.6.6.6.2l-.3-.4c-.3 0-.4 0-.3.2m-7.1.7c0 .4-.8.2-1-.2 0-.2.2-.2.5-.1.3 0 .5.2.5.3m1.9 0l-.8.2c-.3 0-.6 0-.7-.2-.1-.2.2-.3.7-.3.6 0 .9.1.8.3m112 .2v.3c-.1 0-.5 0-.8.2-.3 0-.5 0-.5-.2s.3-.4 1-.5l.3.2m-38.9.5c0 .2-.1.3-.3.3-.2 0-.4-.1-.4-.3l.4-.2c.2 0 .3.1.3.2m26.4 0c.1.2 0 .3 0 .4-.3.2-1.6-.1-1.6-.4 0-.3 1.4-.3 1.6 0m-77 .5c.2.4-.8.6-2 .4l-1-.2 1-.2c1.5-.2 1.8-.2 2 0m-24 .6c1 .3 1.1 1 .2 1-.3 0-.7.2-1 .5-.1.3-.4.5-.5.4-.1-.1 0-.5.3-.8.7-.7.5-1.2-.5-1-.5.1-.7 0-.6-.1.3-.4 1.1-.4 2.2 0m73 0c.7 0 .7.1 0 .3-.7.2-2.7 0-2.7-.4 0-.2 1.5-.2 2.6 0m-76.7.3s-.2.3-.5.3c-.5.2-.6 0-.3-.4.3-.2.8-.2.8 0m94.2.5c-.2.4-5.9.5-5.9.1 0-.3 1-.4 3.9-.4 1.8 0 2.1 0 2 .3m-69.9 0c0 .4-.3.6-.5.5-.3-.2 0-.6.3-.6.1 0 .2 0 .2.2m63.2 0c.2.3-.4.5-1.4.3-.6 0-.7-.2-.5-.3.5-.3 1.7-.3 1.9 0m-8.6.2c.2 0 .4.2.4.3 0 .2-.5.2-1.6.2a62.5 62.5 0 0 0-3.1-.4c0-.2 2-.2 4.3 0m24.5.8h-1.3c-.9-.2 0-.5 1-.4.9.1.9.1.3.4m5.7-.4c0 .2-.3.3-.6.3-3.2.2-4 .1-3.4-.2.5-.3 4-.4 4 0m-21.5.2c0 .1-.2.3-.5.3s-.5-.2-.5-.3c0-.1.2-.2.5-.2s.5 0 .5.2m6.1.3c.5.4-.6.5-2.3.2l-1.8-.5c0-.3 3.8 0 4.1.3m-88.8.7c0 .3 0 .7.2.9.2.2.2.4 0 .4s-.3-.2-.3-.3c0-.1-.2-.2-.5-.2s-.5-.2-.5-.3l.2-.2c.2 0 .3-.2.3-.4s.2-.4.4-.4c.3 0 .3.1.2.5m102 0c0 .1-.4.3-.8.3s-.7-.2-.7-.3c0-.1.3-.2.7-.2.4 0 .8 0 .8.2m-88 .2c.5.2.4.2-.2.4-.7.2-1.1 0-1.1-.4 0-.2.6-.2 1.3 0m98 .4c0 .1.3.3.5.3l.4-.3c0-.2-.1-.3-.4-.3-.4 0-.5 0-.5.3m-101.8.6c0 .4-1 .6-1.3.4-.2-.1-.2-.2 0-.4.5-.3 1.3-.3 1.3 0M6.2 320.6l-1.5.3c-.4 0-1 .2-1.4.5-1.3.6-2.1.8-2.6.5-.7-.4-.9 0-.5 1.2.5 2 .7 2.2 3.6 2L7 325c.6 0 .6 0 .2-.3-.2-.2-.7-.2-1.1-.2-.5 0-.7 0-.8-.4-.1-.7.9-.8 4.7-.9l4.7-.1 3.9-.2c3.2 0 3.5-.2 2.8-1-.4-.4-2-.7-2.4-.3-.3.3-9 .3-9.1 0-.1-.1 0-.3.2-.4.4-.3.3-.3-1-.7-1.2-.4-1.7-.3-2.8.1m3 .7c.4.5-1.5 1-2 .6-.6-.3.5-1 1.2-.8l.8.2" fill-rule="evenodd"/></svg>