<svg width="141" height="122" viewBox="0 0 141 122" fill="none" xmlns="http://www.w3.org/2000/svg">
<path d="M27 120H111" stroke="#05A8AB" stroke-width="3" stroke-linecap="round"/>
<rect width="141" height="99" rx="5" fill="#C3C0C0"/>
<path d="M23.1908 89.1565C28.6337 87.947 34.2196 78.0074 40.0797 75.1565C50.0167 70.3223 60.4855 71.1565 71.1908 71.1565C78.6388 71.1565 86.3403 67.4313 78.3019 59.1565C70.7539 51.3865 57.767 48.4181 47.413 47.2676C43.3718 46.8186 39.2721 47.5919 35.413 45.8232C27.7179 42.2963 31.2881 30.9574 37.1908 27.601C49.2697 20.7326 66.0359 21.7441 79.0797 19.0454C88.8751 17.0188 85.0919 1.59168 96.7464 16.2676C103.542 24.8254 100.361 26.3394 90.3019 30.0454C80.931 33.4978 72.5103 27.8876 64.3019 24.1565C59.9699 22.1874 56.5441 55.2293 61.6352 60.7121C79.4697 79.9184 85.1398 34.6232 102.746 51.601C107.688 56.3662 112.402 71.77 108.857 78.2676C100.693 93.2352 79.3793 80.4561 71.6352 72.7121C65.5442 66.621 59.3974 47.1565 50.3019 47.1565C40.5033 47.1565 34.2204 51.6203 27.6352 58.7121C11.8448 75.7171 62.2107 103.332 72.1908 80.0454C78.2532 65.8999 92.9664 69.1565 106.191 69.1565C114.088 69.1565 107.591 33.7457 104.746 28.7121C99.3757 19.2101 95.4013 19.1565 85.3019 19.1565C76.7634 19.1565 67.7999 20.0595 59.6352 17.1565C52.7529 14.7095 40.4511 12.6354 34.0797 17.4898C25.7704 23.8207 8.54537 52.8332 17.5241 62.9343C28.429 75.2023 44.9911 63.9344 50.3019 53.1565C58.6773 36.1593 61.5508 28.2477 82.9686 29.2676C99.8131 30.0697 98.0233 43.9739 107.635 52.7121C109.767 54.6496 122.296 60.4223 123.08 54.9343C125.514 37.8948 111.498 26.6372 97.6352 21.1565C80.7099 14.4651 86.6978 47.4055 88.413 56.9343C90.3793 67.8581 99.1908 78.0149 99.1908 89.1565" stroke="white" stroke-width="3" stroke-linecap="round"/>
</svg>
