<svg width="112" height="83" viewBox="0 0 112 83" fill="none" xmlns="http://www.w3.org/2000/svg">
<path d="M10.0004 80.9998C15.4433 79.7902 21.0292 69.8506 26.8893 66.9998C36.8263 62.1655 47.2951 62.9998 58.0004 62.9998C65.4483 62.9998 73.1498 59.2745 65.1115 50.9998C57.5635 43.2297 44.5765 40.2613 34.2226 39.1109C30.1814 38.6619 26.0816 39.4352 22.2226 37.6664C14.5275 34.1395 18.0977 22.8006 24.0004 19.4442C36.0793 12.5758 52.8455 13.5874 65.8893 10.8887C75.6846 8.86203 71.9015 -6.56506 83.5559 8.11088C90.3518 16.6687 87.1706 18.1827 77.1115 21.8887C67.7406 25.3411 59.3199 19.7309 51.1115 15.9998C46.7795 14.0307 43.3537 47.0726 48.4448 52.5553C66.2793 71.7616 71.9493 26.4664 89.5559 43.4442C94.4977 48.2095 99.2112 63.6132 95.667 70.1109C87.5029 85.0785 66.1889 72.2994 58.4448 64.5553C52.3538 58.4643 46.207 38.9998 37.1115 38.9998C27.3129 38.9998 21.03 43.4636 14.4448 50.5553C-1.34559 67.5604 49.0202 95.1757 59.0004 71.8887C65.0627 57.7432 79.776 60.9998 93.0004 60.9998C100.897 60.9998 94.4011 25.589 91.5559 20.5553C86.1853 11.0534 82.2109 10.9998 72.1115 10.9998C63.573 10.9998 54.6094 11.9027 46.4448 8.99977C39.5625 6.55273 27.2607 4.47866 20.8893 9.3331C12.58 15.664 -4.64506 44.6764 4.33371 54.7775C15.2386 67.0455 31.8006 55.7777 37.1115 44.9998C45.4869 28.0026 48.3604 20.091 69.7782 21.1109C86.6227 21.913 84.8328 35.8172 94.4448 44.5553C96.5762 46.4929 109.105 52.2655 109.889 46.7775C112.323 29.7381 98.3076 18.4804 84.4448 12.9998C67.5195 6.30835 73.5074 39.2487 75.2226 48.7775C77.1889 59.7013 86.0004 69.8582 86.0004 80.9998" stroke="#E12251" stroke-width="3" stroke-linecap="round"/>
</svg>
