<svg width="142" height="82" viewBox="0 0 142 82" fill="none" xmlns="http://www.w3.org/2000/svg">
<rect width="141.695" height="19.6324" rx="9.8162" fill="#C4D2D2"/>
<rect width="76.8224" height="19.6324" rx="9.8162" fill="#05A8AB"/>
<rect y="30.7295" width="141.695" height="19.6324" rx="9.8162" fill="#C4D2D2"/>
<path d="M0 40.5457C0 35.1244 4.39486 30.7295 9.8162 30.7295H110.112C115.534 30.7295 119.928 35.1244 119.928 40.5457V40.5457C119.928 45.967 115.534 50.3619 110.112 50.3619H9.81619C4.39486 50.3619 0 45.967 0 40.5457V40.5457Z" fill="#05A8AB"/>
<rect y="61.458" width="141.695" height="19.6324" rx="9.8162" fill="#C4D2D2"/>
<path d="M0 71.2742C0 65.8529 4.39486 61.458 9.8162 61.458H87.919C93.3403 61.458 97.7352 65.8529 97.7352 71.2742V71.2742C97.7352 76.6955 93.3404 81.0904 87.919 81.0904H9.81621C4.39488 81.0904 0 76.6955 0 71.2742V71.2742Z" fill="#05A8AB"/>
</svg>
