<svg width="132" height="68" viewBox="0 0 132 68" fill="none" xmlns="http://www.w3.org/2000/svg">
<ellipse cx="60.9136" cy="29.9352" rx="23.621" ry="20.54" transform="rotate(176.251 60.9136 29.9352)" fill="black"/>
<path d="M1 40.3948C19 50.8944 88.1 66.9938 124.5 37.3947C110.833 59.394 47.8 88.7932 1 40.3948Z" fill="black"/>
<path d="M47.5 2.39492C17.5 9.5947 4 28.7285 1 37.3949C33.4 -1.40365 98.6667 23.3952 131.5 37.3947C131.5 37.3947 85 -6.60479 47.5 2.39492Z" fill="black"/>
<path d="M1 40.3948C19 50.8944 88.1 66.9938 124.5 37.3947C110.833 59.394 47.8 88.7932 1 40.3948Z" stroke="black"/>
<path d="M47.5 2.39492C17.5 9.5947 4 28.7285 1 37.3949C33.4 -1.40365 98.6667 23.3952 131.5 37.3947C131.5 37.3947 85 -6.60479 47.5 2.39492Z" stroke="black"/>
<circle cx="73.5" cy="25.5" r="6.5" fill="white"/>
</svg>
