<svg width="280" height="69" viewBox="0 0 280 69" fill="none" xmlns="http://www.w3.org/2000/svg">
<path d="M44.7914 39.4531H11.2758V57.5469H44.7914C46.2289 57.5469 47.4477 58.0625 48.4477 59.0938C49.4789 60.0938 49.9945 61.3281 49.9945 62.7969C49.9945 64.2656 49.4789 65.5 48.4477 66.5C47.4477 67.5 46.2289 68 44.7914 68H6.02579C4.55704 68 3.32266 67.5 2.32266 66.5C1.32266 65.5 0.822662 64.2656 0.822662 62.7969V5.70312C0.822662 4.23438 1.32266 3 2.32266 2C3.32266 1 4.55704 0.5 6.02579 0.5H44.7914C46.2289 0.5 47.4477 1 48.4477 2C49.4789 3 49.9945 4.23438 49.9945 5.70312C49.9945 7.17187 49.4789 8.40625 48.4477 9.40625C47.4477 10.4062 46.2289 10.9062 44.7914 10.9062H11.2758V29H44.7914C46.2289 29 47.4477 29.5156 48.4477 30.5469C49.4789 31.5469 49.9945 32.7812 49.9945 34.25C49.9945 35.6875 49.4789 36.9219 48.4477 37.9531C47.4477 38.9531 46.2289 39.4531 44.7914 39.4531ZM63.307 28.5781C67.7445 24.1406 73.0883 21.9219 79.3383 21.9219C85.5883 21.9219 90.9164 24.1406 95.3227 28.5781C99.7602 32.9844 101.979 38.3125 101.979 44.5625V62.7969C101.979 64.3906 101.37 65.7031 100.151 66.7344C98.932 67.7656 97.5102 68.1562 95.8852 67.9062C94.6039 67.6875 93.557 67.0625 92.7445 66.0312C91.932 65 91.5258 63.8281 91.5258 62.5156V44.5625C91.5258 41.1875 90.3383 38.3125 87.9633 35.9375C85.5883 33.5625 82.7133 32.375 79.3383 32.375C75.9633 32.375 73.0727 33.5625 70.6664 35.9375C68.2914 38.3125 67.1039 41.1875 67.1039 44.5625V62.7969C67.1039 64.3906 66.4945 65.7031 65.2758 66.7344C64.057 67.7656 62.6352 68.1562 61.0102 67.9062C59.7289 67.6875 58.682 67.0625 57.8695 66.0312C57.057 65 56.6508 63.8281 56.6508 62.5156V44.5625C56.6508 38.3125 58.8695 32.9844 63.307 28.5781ZM113.463 28.6719C117.963 24.1719 123.385 21.9219 129.729 21.9219C136.073 21.9219 141.495 24.1719 145.995 28.6719C150.526 33.1719 152.791 38.5938 152.791 44.9375V62.7969C152.791 64.2656 152.291 65.5 151.291 66.5C150.291 67.5 149.057 68 147.588 68C146.37 68 145.291 67.6406 144.354 66.9219C143.448 66.1719 142.838 65.2344 142.526 64.1094C138.62 66.7031 134.354 68 129.729 68C123.385 68 117.963 65.75 113.463 61.25C108.963 56.7188 106.713 51.2812 106.713 44.9375C106.713 38.5938 108.963 33.1719 113.463 28.6719ZM120.823 53.8438C123.291 56.3125 126.26 57.5469 129.729 57.5469C133.198 57.5469 136.166 56.3125 138.635 53.8438C141.104 51.375 142.338 48.4062 142.338 44.9375C142.338 41.4688 141.104 38.5156 138.635 36.0781C136.166 33.6094 133.198 32.375 129.729 32.375C126.26 32.375 123.291 33.6094 120.823 36.0781C118.385 38.5156 117.166 41.4688 117.166 44.9375C117.166 48.4062 118.385 51.375 120.823 53.8438ZM181.62 21.9219C187.963 21.9219 193.385 24.1719 197.885 28.6719C202.416 33.1719 204.682 38.5938 204.682 44.9375C204.682 51.2812 202.416 56.7188 197.885 61.25C193.385 65.75 187.963 68 181.62 68C175.276 68 169.838 65.75 165.307 61.25C160.807 56.7188 158.557 51.2812 158.557 44.9375V5.70312C158.557 4.23438 159.057 3 160.057 2C161.088 0.96875 162.338 0.453125 163.807 0.453125C165.245 0.453125 166.463 0.96875 167.463 2C168.495 3 169.01 4.23438 169.01 5.70312V25.6719C172.791 23.1719 176.995 21.9219 181.62 21.9219ZM172.713 53.8438C175.182 56.3125 178.151 57.5469 181.62 57.5469C185.088 57.5469 188.057 56.3125 190.526 53.8438C192.995 51.375 194.229 48.4062 194.229 44.9375C194.229 41.4688 192.995 38.5156 190.526 36.0781C188.057 33.6094 185.088 32.375 181.62 32.375C178.151 32.375 175.182 33.6094 172.713 36.0781C170.245 38.5156 169.01 41.4688 169.01 44.9375C169.01 48.4062 170.245 51.375 172.713 53.8438ZM228.26 56.9844C229.385 57.3281 230.291 57.9688 230.979 58.9062C231.666 59.8125 232.01 60.8438 232.01 62C232.01 63.75 231.307 65.1562 229.901 66.2188C228.526 67.25 227.01 67.5156 225.354 67.0156C220.666 65.5781 216.823 62.875 213.823 58.9062C210.854 54.9062 209.37 50.3906 209.37 45.3594V5.70312C209.37 4.10938 209.979 2.79688 211.198 1.76562C212.448 0.703125 213.885 0.296875 215.51 0.546875C216.76 0.765625 217.791 1.40625 218.604 2.46875C219.416 3.5 219.823 4.67188 219.823 5.98438V45.3594C219.823 48.0469 220.604 50.4531 222.166 52.5781C223.76 54.7031 225.791 56.1719 228.26 56.9844ZM279.073 38.2344C279.573 39.8906 279.291 41.4219 278.229 42.8281C277.198 44.2344 275.807 44.9375 274.057 44.9375H244.385C244.573 48.3125 245.885 51.2656 248.323 53.7969C250.76 56.2969 253.635 57.5469 256.948 57.5469C259.979 57.5469 262.651 56.5938 264.963 54.6875C265.87 53.9375 266.932 53.5625 268.151 53.5625C269.682 53.5625 270.948 54.0938 271.948 55.1562C272.948 56.2188 273.432 57.4844 273.401 58.9531C273.37 60.3906 272.776 61.5938 271.62 62.5625C267.276 66.1875 262.385 68 256.948 68C252.791 68 248.932 66.9062 245.37 64.7188C241.838 62.5312 239.041 59.625 236.979 56C234.948 52.3438 233.932 48.4219 233.932 44.2344H234.026C234.151 40.2969 235.229 36.6406 237.26 33.2656C239.291 29.8594 241.995 27.1406 245.37 25.1094C248.776 23.0781 252.448 22.0156 256.385 21.9219C261.635 21.7969 266.354 23.2656 270.541 26.3281C274.729 29.3906 277.573 33.3594 279.073 38.2344ZM248.651 36.4531L266.229 36.3594C264.76 34.7969 262.979 33.6719 260.885 32.9844C258.791 32.2969 256.604 32.1875 254.323 32.6562C252.416 33.0625 250.526 34.3281 248.651 36.4531Z" fill="white"/>
</svg>
