<svg width="178" height="39" viewBox="0 0 178 39" fill="none" xmlns="http://www.w3.org/2000/svg">
<rect x="0.5" y="0.5" width="177" height="38" rx="9.5" fill="white" stroke="white"/>
<path d="M159 30L155.536 24L162.464 24L159 30Z" fill="#C3C0C0"/>
<path d="M159 10L162.464 16H155.536L159 10Z" fill="#C3C0C0"/>
<path d="M26.1391 19.5625C25.7328 19.5625 25.3813 19.6133 25.0844 19.7148C24.5609 19.9023 24.1664 20.25 23.9008 20.7578L20.9008 20.6172L22.0961 11.2305H31.4594V14.0664H24.5102L23.9008 17.7812C24.4164 17.4453 24.8188 17.2227 25.1078 17.1133C25.5922 16.9336 26.182 16.8438 26.8773 16.8438C28.2836 16.8438 29.5102 17.3164 30.557 18.2617C31.6039 19.207 32.1273 20.582 32.1273 22.3867C32.1273 23.957 31.6234 25.3594 30.6156 26.5938C29.6078 27.8281 28.1 28.4453 26.0922 28.4453C24.475 28.4453 23.1469 28.0117 22.1078 27.1445C21.0688 26.2773 20.4906 25.0469 20.3734 23.4531H23.7016C23.8344 24.1797 24.0883 24.7422 24.4633 25.1406C24.8383 25.5312 25.3852 25.7266 26.1039 25.7266C26.932 25.7266 27.5609 25.4375 27.9906 24.8594C28.4281 24.2734 28.6469 23.5391 28.6469 22.6562C28.6469 21.7891 28.4438 21.0586 28.0375 20.4648C27.6313 19.8633 26.9984 19.5625 26.1391 19.5625ZM38.5094 28.4219C36.3453 28.4219 34.8258 27.6641 33.9508 26.1484C33.0836 24.6328 32.65 22.4727 32.65 19.668C32.65 16.8633 33.0836 14.6992 33.9508 13.1758C34.8258 11.6523 36.3453 10.8906 38.5094 10.8906C40.6734 10.8906 42.193 11.6523 43.068 13.1758C43.9352 14.6992 44.3688 16.8633 44.3688 19.668C44.3688 22.4727 43.9313 24.6328 43.0563 26.1484C42.1891 27.6641 40.6734 28.4219 38.5094 28.4219ZM40.4664 24.1445C40.7711 23.1133 40.9234 21.6211 40.9234 19.668C40.9234 17.6211 40.7672 16.1055 40.4547 15.1211C40.15 14.1367 39.5016 13.6445 38.5094 13.6445C37.5172 13.6445 36.8609 14.1367 36.5406 15.1211C36.2203 16.1055 36.0602 17.6211 36.0602 19.668C36.0602 21.6211 36.2203 23.1172 36.5406 24.1562C36.8609 25.1875 37.5172 25.7031 38.5094 25.7031C39.5016 25.7031 40.1539 25.1836 40.4664 24.1445Z" fill="black"/>
</svg>
