<svg width="218" height="130" viewBox="0 0 218 130" fill="none" xmlns="http://www.w3.org/2000/svg">
<rect width="218" height="82" rx="5" fill="white"/>
<mask id="mask0_245_352" style="mask-type:alpha" maskUnits="userSpaceOnUse" x="0" y="1" width="218" height="82">
<rect y="1" width="218" height="82" rx="5" fill="white"/>
</mask>
<g mask="url(#mask0_245_352)">
<line x1="4.37114e-08" y1="26.5" x2="218" y2="26.5" stroke="#C3C0C0"/>
<line x1="4.37114e-08" y1="51.5" x2="218" y2="51.5" stroke="#C3C0C0"/>
<line x1="82.5" y1="1.0061" x2="81.5" y2="83.0061" stroke="#C3C0C0"/>
<line x1="0.997685" y1="1.50001" x2="216.998" y2="0.500005" stroke="#C3C0C0"/>
<path d="M102 15L150 15" stroke="#C3C0C0" stroke-width="3" stroke-linecap="round"/>
<path d="M17 15L65 15" stroke="#C3C0C0" stroke-width="3" stroke-linecap="round"/>
<path d="M102 39L150 39" stroke="#C3C0C0" stroke-width="3" stroke-linecap="round"/>
<path d="M102 64L150 64" stroke="#C3C0C0" stroke-width="3" stroke-linecap="round"/>
<path d="M181 39L217 39" stroke="#C3C0C0" stroke-width="3" stroke-linecap="round"/>
<path d="M182 64H217" stroke="#C3C0C0" stroke-width="3" stroke-linecap="round"/>
<path d="M181 15L217 15" stroke="#C3C0C0" stroke-width="3" stroke-linecap="round"/>
<line x1="166.5" y1="1" x2="166.5" y2="82" stroke="#C3C0C0"/>
<path d="M0.5 1L0.5 82" stroke="#C3C0C0"/>
<path d="M0.5 1L0.5 82" stroke="#C3C0C0"/>
<line x1="1" y1="75.5" x2="218" y2="75.5" stroke="#C3C0C0"/>
<path d="M17 39L65 39" stroke="#C3C0C0" stroke-width="3" stroke-linecap="round"/>
<path d="M17 64L65 64" stroke="#C3C0C0" stroke-width="3" stroke-linecap="round"/>
</g>
<path d="M78.5684 125H75.7168V115.234H72.3867V113.34C73.2656 113.301 73.8809 113.242 74.2324 113.164C74.7923 113.04 75.248 112.793 75.5996 112.422C75.8405 112.168 76.0228 111.829 76.1465 111.406C76.2181 111.152 76.2539 110.964 76.2539 110.84H78.5684V125Z" fill="#05A8AB"/>
<path d="M95.9531 113.721C95.6211 113.324 95.1458 113.125 94.5273 113.125C93.681 113.125 93.1048 113.441 92.7988 114.072C92.623 114.437 92.5189 115.016 92.4863 115.811H89.7812C89.8268 114.606 90.0449 113.633 90.4355 112.891C91.1777 111.478 92.4961 110.771 94.3906 110.771C95.888 110.771 97.0794 111.188 97.9648 112.021C98.8503 112.848 99.293 113.945 99.293 115.312C99.293 116.361 98.9805 117.292 98.3555 118.105C97.9453 118.646 97.2715 119.248 96.334 119.912L95.2207 120.703C94.5241 121.198 94.0456 121.556 93.7852 121.777C93.5312 121.999 93.3164 122.256 93.1406 122.549H99.3223V125H89.625C89.651 123.984 89.8691 123.057 90.2793 122.217C90.6764 121.273 91.6139 120.273 93.0918 119.219C94.3743 118.301 95.2044 117.643 95.582 117.246C96.1615 116.628 96.4512 115.951 96.4512 115.215C96.4512 114.616 96.2852 114.118 95.9531 113.721Z" fill="#05A8AB"/>
<path d="M110.828 113.662C110.516 114.079 110.366 114.635 110.379 115.332H107.781C107.807 114.629 107.928 113.962 108.143 113.33C108.37 112.777 108.729 112.266 109.217 111.797C109.581 111.465 110.014 111.211 110.516 111.035C111.017 110.859 111.632 110.771 112.361 110.771C113.715 110.771 114.806 111.123 115.633 111.826C116.466 112.523 116.883 113.46 116.883 114.639C116.883 115.472 116.635 116.175 116.141 116.748C115.828 117.106 115.503 117.35 115.164 117.48C115.418 117.48 115.783 117.699 116.258 118.135C116.967 118.792 117.322 119.691 117.322 120.83C117.322 122.028 116.906 123.083 116.072 123.994C115.245 124.899 114.018 125.352 112.391 125.352C110.385 125.352 108.992 124.697 108.211 123.389C107.801 122.692 107.573 121.781 107.527 120.654H110.262C110.262 121.221 110.353 121.689 110.535 122.061C110.874 122.744 111.489 123.086 112.381 123.086C112.928 123.086 113.403 122.9 113.807 122.529C114.217 122.152 114.422 121.611 114.422 120.908C114.422 119.977 114.044 119.355 113.289 119.043C112.859 118.867 112.182 118.779 111.258 118.779V116.787C112.163 116.774 112.794 116.686 113.152 116.523C113.771 116.25 114.08 115.697 114.08 114.863C114.08 114.323 113.921 113.883 113.602 113.545C113.289 113.206 112.846 113.037 112.273 113.037C111.616 113.037 111.134 113.245 110.828 113.662Z" fill="#05A8AB"/>
<path d="M135.459 119.775V121.953H133.857V125H131.133V121.953H125.527V119.521L130.732 110.928H133.857V119.775H135.459ZM127.588 119.775H131.133V113.662L127.588 119.775Z" fill="#05A8AB"/>
<path d="M148.332 117.969C147.993 117.969 147.701 118.011 147.453 118.096C147.017 118.252 146.688 118.542 146.467 118.965L143.967 118.848L144.963 111.025H152.766V113.389H146.975L146.467 116.484C146.896 116.204 147.232 116.019 147.473 115.928C147.876 115.778 148.368 115.703 148.947 115.703C150.119 115.703 151.141 116.097 152.014 116.885C152.886 117.673 153.322 118.818 153.322 120.322C153.322 121.631 152.902 122.799 152.062 123.828C151.223 124.857 149.966 125.371 148.293 125.371C146.945 125.371 145.839 125.01 144.973 124.287C144.107 123.564 143.625 122.539 143.527 121.211H146.301C146.411 121.816 146.623 122.285 146.936 122.617C147.248 122.943 147.704 123.105 148.303 123.105C148.993 123.105 149.517 122.865 149.875 122.383C150.24 121.895 150.422 121.283 150.422 120.547C150.422 119.824 150.253 119.215 149.914 118.721C149.576 118.219 149.048 117.969 148.332 117.969Z" fill="#05A8AB"/>
<path d="M55 118.5L61.75 114.603L61.75 122.397L55 118.5Z" fill="#D9D9D9"/>
<path d="M170 118.5L163.25 122.397L163.25 114.603L170 118.5Z" fill="#05A8AB"/>
</svg>
