<svg width="179" height="42" viewBox="0 0 179 42" fill="none" xmlns="http://www.w3.org/2000/svg">
<rect x="2.5" y="15.5" width="169" height="26" rx="9.5" fill="#D9D9D9" stroke="#D9D9D9"/>
<rect x="1.5" y="12.5" width="169" height="26" rx="9.5" fill="white" stroke="white"/>
<rect x="3" y="14" width="166" height="23" rx="10" fill="#C4D2D2"/>
<rect x="3" y="14" width="135" height="23" rx="10" fill="#05A8AB"/>
<path d="M2.20312 7.14062C1.48177 7.14062 0.97526 6.88802 0.683594 6.38281C0.394531 5.8776 0.25 5.15755 0.25 4.22266C0.25 3.28776 0.394531 2.56641 0.683594 2.05859C0.97526 1.55078 1.48177 1.29688 2.20312 1.29688C2.92448 1.29688 3.43099 1.55078 3.72266 2.05859C4.01172 2.56641 4.15625 3.28776 4.15625 4.22266C4.15625 5.15755 4.01042 5.8776 3.71875 6.38281C3.42969 6.88802 2.92448 7.14062 2.20312 7.14062ZM2.85547 5.71484C2.95703 5.37109 3.00781 4.8737 3.00781 4.22266C3.00781 3.54036 2.95573 3.03516 2.85156 2.70703C2.75 2.37891 2.53385 2.21484 2.20312 2.21484C1.8724 2.21484 1.65365 2.37891 1.54688 2.70703C1.4401 3.03516 1.38672 3.54036 1.38672 4.22266C1.38672 4.8737 1.4401 5.3724 1.54688 5.71875C1.65365 6.0625 1.8724 6.23438 2.20312 6.23438C2.53385 6.23438 2.7513 6.0612 2.85547 5.71484Z" fill="#C3C0C0"/>
<path d="M162.027 7H160.887V3.09375H159.555V2.33594C159.906 2.32031 160.152 2.29688 160.293 2.26562C160.517 2.21615 160.699 2.11719 160.84 1.96875C160.936 1.86719 161.009 1.73177 161.059 1.5625C161.087 1.46094 161.102 1.38542 161.102 1.33594H162.027V7ZM165.256 7.14062C164.535 7.14062 164.028 6.88802 163.737 6.38281C163.448 5.8776 163.303 5.15755 163.303 4.22266C163.303 3.28776 163.448 2.56641 163.737 2.05859C164.028 1.55078 164.535 1.29688 165.256 1.29688C165.978 1.29688 166.484 1.55078 166.776 2.05859C167.065 2.56641 167.209 3.28776 167.209 4.22266C167.209 5.15755 167.064 5.8776 166.772 6.38281C166.483 6.88802 165.978 7.14062 165.256 7.14062ZM165.909 5.71484C166.01 5.37109 166.061 4.8737 166.061 4.22266C166.061 3.54036 166.009 3.03516 165.905 2.70703C165.803 2.37891 165.587 2.21484 165.256 2.21484C164.926 2.21484 164.707 2.37891 164.6 2.70703C164.493 3.03516 164.44 3.54036 164.44 4.22266C164.44 4.8737 164.493 5.3724 164.6 5.71875C164.707 6.0625 164.926 6.23438 165.256 6.23438C165.587 6.23438 165.804 6.0612 165.909 5.71484ZM169.309 7.14062C168.588 7.14062 168.082 6.88802 167.79 6.38281C167.501 5.8776 167.356 5.15755 167.356 4.22266C167.356 3.28776 167.501 2.56641 167.79 2.05859C168.082 1.55078 168.588 1.29688 169.309 1.29688C170.031 1.29688 170.537 1.55078 170.829 2.05859C171.118 2.56641 171.262 3.28776 171.262 4.22266C171.262 5.15755 171.117 5.8776 170.825 6.38281C170.536 6.88802 170.031 7.14062 169.309 7.14062ZM169.962 5.71484C170.063 5.37109 170.114 4.8737 170.114 4.22266C170.114 3.54036 170.062 3.03516 169.958 2.70703C169.856 2.37891 169.64 2.21484 169.309 2.21484C168.979 2.21484 168.76 2.37891 168.653 2.70703C168.546 3.03516 168.493 3.54036 168.493 4.22266C168.493 4.8737 168.546 5.3724 168.653 5.71875C168.76 6.0625 168.979 6.23438 169.309 6.23438C169.64 6.23438 169.858 6.0612 169.962 5.71484ZM175.14 5.66016C175.14 5.25651 175.282 4.91276 175.566 4.62891C175.849 4.34766 176.192 4.20703 176.593 4.20703C176.994 4.20703 177.336 4.34896 177.62 4.63281C177.904 4.91667 178.046 5.25911 178.046 5.66016C178.046 6.0612 177.904 6.40365 177.62 6.6875C177.336 6.97135 176.994 7.11328 176.593 7.11328C176.192 7.11328 175.849 6.97135 175.566 6.6875C175.282 6.40365 175.14 6.0612 175.14 5.66016ZM171.769 3.84375C171.485 3.5599 171.343 3.21745 171.343 2.81641C171.343 2.41536 171.485 2.07292 171.769 1.78906C172.053 1.50521 172.395 1.36328 172.796 1.36328C173.197 1.36328 173.54 1.50521 173.823 1.78906C174.107 2.07292 174.249 2.41536 174.249 2.81641C174.249 3.21745 174.107 3.5599 173.823 3.84375C173.542 4.1276 173.2 4.26953 172.796 4.26953C172.395 4.26953 172.053 4.1276 171.769 3.84375ZM173.409 7.14844H172.804L175.972 1.33594H176.566L173.409 7.14844ZM176.155 6.09766C176.275 6.22005 176.421 6.28125 176.593 6.28125C176.765 6.28125 176.911 6.22135 177.03 6.10156C177.153 5.97917 177.214 5.83203 177.214 5.66016C177.214 5.48828 177.153 5.34245 177.03 5.22266C176.911 5.10026 176.765 5.03906 176.593 5.03906C176.421 5.03906 176.274 5.10026 176.152 5.22266C176.032 5.34245 175.972 5.48828 175.972 5.66016C175.972 5.83203 176.033 5.97786 176.155 6.09766ZM172.359 3.25391C172.478 3.3763 172.624 3.4375 172.796 3.4375C172.968 3.4375 173.114 3.3776 173.234 3.25781C173.356 3.13542 173.417 2.98828 173.417 2.81641C173.417 2.64453 173.356 2.4987 173.234 2.37891C173.114 2.25651 172.968 2.19531 172.796 2.19531C172.624 2.19531 172.477 2.25651 172.355 2.37891C172.235 2.4987 172.175 2.64453 172.175 2.81641C172.175 2.98828 172.236 3.13411 172.359 3.25391Z" fill="#C3C0C0"/>
</svg>
