<svg width="219" height="84" viewBox="0 0 219 84" fill="none" xmlns="http://www.w3.org/2000/svg">
<rect width="218" height="82" rx="5" fill="white"/>
<line x1="83.9999" y1="2.01219" x2="83.0121" y2="83.0123" stroke="#D9D9D9" stroke-width="2"/>
<path d="M103 14.0001L141 14" stroke="#D9D9D9" stroke-width="3" stroke-linecap="round"/>
<path d="M103 39L151 39" stroke="#D9D9D9" stroke-width="3" stroke-linecap="round"/>
<path d="M103 64L151 64" stroke="#D9D9D9" stroke-width="3" stroke-linecap="round"/>
<path d="M182 39L217 39" stroke="#D9D9D9" stroke-width="3" stroke-linecap="round"/>
<path d="M182 64H217" stroke="#D9D9D9" stroke-width="3" stroke-linecap="round"/>
<path d="M182 14L217 14" stroke="#D9D9D9" stroke-width="3" stroke-linecap="round"/>
<line x1="168" y1="2" x2="168" y2="83" stroke="#D9D9D9" stroke-width="2"/>
<line x1="2" y1="27" x2="2" y2="83" stroke="#D9D9D9" stroke-width="2"/>
<line x1="83" y1="2" x2="219" y2="2" stroke="#D9D9D9" stroke-width="2"/>
<line x1="1" y1="26" x2="219" y2="26" stroke="#D9D9D9" stroke-width="2"/>
<line x1="1" y1="51" x2="219" y2="51" stroke="#D9D9D9" stroke-width="2"/>
<line x1="1" y1="76" x2="219" y2="76" stroke="#D9D9D9" stroke-width="2"/>
<path d="M18 39L66 39" stroke="#D9D9D9" stroke-width="3" stroke-linecap="round"/>
<path d="M18 64L66 64" stroke="#D9D9D9" stroke-width="3" stroke-linecap="round"/>
<line x1="82.9999" y1="1.01219" x2="82.0121" y2="82.0123" stroke="#05A8AB" stroke-width="2"/>
<path d="M102 13.0001L140 13" stroke="#05A8AB" stroke-width="3" stroke-linecap="round"/>
<path d="M102 38L150 38" stroke="#05A8AB" stroke-width="3" stroke-linecap="round"/>
<path d="M102 63L150 63" stroke="#05A8AB" stroke-width="3" stroke-linecap="round"/>
<path d="M181 38L216 38" stroke="#C3C0C0" stroke-width="3" stroke-linecap="round"/>
<path d="M181 63H216" stroke="#C3C0C0" stroke-width="3" stroke-linecap="round"/>
<path d="M181 13L216 13" stroke="#C3C0C0" stroke-width="3" stroke-linecap="round"/>
<line x1="167" y1="1" x2="167" y2="82" stroke="#05A8AB" stroke-width="2"/>
<line x1="1" y1="26" x2="1" y2="82" stroke="#05A8AB" stroke-width="2"/>
<line x1="82" y1="1" x2="218" y2="1" stroke="#05A8AB" stroke-width="2"/>
<line x1="8.74228e-08" y1="25" x2="218" y2="25" stroke="#05A8AB" stroke-width="2"/>
<line x1="8.74228e-08" y1="50" x2="218" y2="50" stroke="#05A8AB" stroke-width="2"/>
<line y1="75" x2="218" y2="75" stroke="#05A8AB" stroke-width="2"/>
<path d="M17 38L65 38" stroke="#C3C0C0" stroke-width="3" stroke-linecap="round"/>
<path d="M17 63L65 63" stroke="#C3C0C0" stroke-width="3" stroke-linecap="round"/>
<path d="M157.5 18L153.603 10.5L161.397 10.5L157.5 18Z" fill="#D9D9D9"/>
<path d="M155.5 17L151.603 9.5L159.397 9.5L155.5 17Z" fill="#05A8AB"/>
</svg>
