<svg width="281" height="55" viewBox="0 0 281 55" fill="none" xmlns="http://www.w3.org/2000/svg">
<rect y="1" width="212" height="54" rx="5" fill="#D9D9D9"/>
<path d="M35 28H177" stroke="#05A8AB" stroke-width="10" stroke-linecap="round"/>
<path d="M229 29.6673C230.749 29.6673 232.167 28.2496 232.167 26.5007C232.167 24.7517 230.749 23.334 229 23.334" stroke="#C3C0C0" stroke-width="2" stroke-linecap="round"/>
<path d="M229 32.8327C232.498 32.8327 235.333 29.9972 235.333 26.4993C235.333 23.0015 232.498 20.166 229 20.166" stroke="#C3C0C0" stroke-width="2" stroke-linecap="round"/>
<path d="M229 36C234.247 36 238.5 31.7467 238.5 26.5C238.5 21.2533 234.247 17 229 17" stroke="#C3C0C0" stroke-width="2" stroke-linecap="round"/>
<path d="M257.5 6.00154C260.836 3.86557 267.118 3.92361 269.023 4.44063C277.5 6.74111 278.946 14.7174 276.5 20.5006C271 33.5066 274.477 28.0006 271 33.5006" stroke="#C3C0C0" stroke-width="2"/>
<path opacity="0.6" d="M256 6.4384C261.841 -0.305893 275.215 -0.00569248 278.499 11.8145C280.155 17.7773 275.001 26.5 274 33C273.462 36.5 275.059 37.5062 274 40.5C270.861 49.3728 258.499 50.5584 258.499 43.8145" stroke="black" stroke-width="3" stroke-linecap="round"/>
<path d="M264.562 10.014C270.055 13.2733 269 14.4989 269 14.4989C268.5 15.4989 263.199 12.7145 262.466 13.0003C261.008 13.5683 259.766 14.3656 261.027 15.0003C265.342 17.1721 271 15.0004 270.5 22.9997C270.309 26.061 271.373 26.7089 269.5 29.5006C265.5 30 265.258 30.9854 264.5 32.0006C262.892 34.157 262.768 34.2598 262.347 34.5006C261.652 33.7395 260.664 33.9152 260.847 32.8289C260.789 31.3564 262.646 32.1428 262.347 29.5006C262.18 28.0183 264.181 28.6018 263.5 27.0006C263.07 25.9872 261.439 24.3497 261.027 22.5006C259.885 17.3727 252.5 8.99985 264.562 10.014Z" fill="#C3C0C0"/>
<path opacity="0.5" d="M270.5 22.5C269.945 20 262.5 19 260.5 19C260.5 21 261.999 25.4996 263 26C263.395 26.6716 263.5 27 263.5 28C263.5 29 262.384 28.2571 262.5 29C262.701 30.2841 260.946 32.0168 261 33C261.119 35.1755 262.5 34.5 263.5 34C264.353 32.9332 265.5 29 269.5 30C271.347 27.3122 270.722 23.5011 270.5 22.5Z" fill="black"/>
</svg>
