<svg width="229" height="132" viewBox="0 0 229 132" fill="none" xmlns="http://www.w3.org/2000/svg">
<rect width="229" height="132" rx="5" fill="#C3C0C0"/>
<path d="M60.0156 51.4512C58.9531 52.8678 58.444 54.7604 58.4883 57.1289H49.6562C49.7448 54.7383 50.1543 52.4694 50.8848 50.3223C51.6595 48.4408 52.877 46.7031 54.5371 45.1094C55.7767 43.9805 57.2487 43.1172 58.9531 42.5195C60.6576 41.9219 62.7493 41.623 65.2285 41.623C69.8327 41.623 73.5404 42.8184 76.3516 45.209C79.1849 47.5775 80.6016 50.765 80.6016 54.7715C80.6016 57.6048 79.7604 59.9954 78.0781 61.9434C77.0156 63.1608 75.9089 63.9909 74.7578 64.4336C75.6211 64.4336 76.8607 65.1751 78.4766 66.6582C80.8893 68.8939 82.0957 71.9486 82.0957 75.8223C82.0957 79.8952 80.679 83.4811 77.8457 86.5801C75.0345 89.6569 70.862 91.1953 65.3281 91.1953C58.5104 91.1953 53.7734 88.9707 51.1172 84.5215C49.7227 82.153 48.9479 79.054 48.793 75.2246H58.0898C58.0898 77.1504 58.3997 78.7441 59.0195 80.0059C60.1706 82.3301 62.2624 83.4922 65.2949 83.4922C67.1543 83.4922 68.7702 82.8613 70.1426 81.5996C71.5371 80.3158 72.2344 78.4785 72.2344 76.0879C72.2344 72.9225 70.9505 70.8086 68.3828 69.7461C66.9219 69.1484 64.6198 68.8496 61.4766 68.8496V62.0762C64.5534 62.0319 66.7005 61.7331 67.918 61.1797C70.0208 60.25 71.0723 58.3685 71.0723 55.5352C71.0723 53.6979 70.5299 52.2038 69.4453 51.0527C68.3828 49.9017 66.8776 49.3262 64.9297 49.3262C62.694 49.3262 61.056 50.0345 60.0156 51.4512ZM104.655 80.1055V90H94.5947V80.1055H104.655ZM94.5947 65.1309V55.2363H104.655V65.1309H94.5947ZM129.705 66.0938C128.554 66.0938 127.558 66.2376 126.717 66.5254C125.234 67.0566 124.116 68.0417 123.363 69.4805L114.863 69.082L118.25 42.4863H144.779V50.5215H125.09L123.363 61.0469C124.824 60.0951 125.964 59.4642 126.783 59.1543C128.156 58.6452 129.827 58.3906 131.797 58.3906C135.781 58.3906 139.256 59.7298 142.223 62.4082C145.189 65.0866 146.672 68.9824 146.672 74.0957C146.672 78.5449 145.244 82.5182 142.389 86.0156C139.533 89.513 135.261 91.2617 129.572 91.2617C124.99 91.2617 121.227 90.0332 118.283 87.5762C115.339 85.1191 113.701 81.6328 113.369 77.1172H122.799C123.175 79.1758 123.894 80.7695 124.957 81.8984C126.019 83.0052 127.569 83.5586 129.605 83.5586C131.952 83.5586 133.734 82.7396 134.951 81.1016C136.191 79.4414 136.81 77.3607 136.81 74.8594C136.81 72.4023 136.235 70.3327 135.084 68.6504C133.933 66.946 132.14 66.0938 129.705 66.0938ZM164.483 51.4512C163.421 52.8678 162.912 54.7604 162.956 57.1289H154.124C154.212 54.7383 154.622 52.4694 155.352 50.3223C156.127 48.4408 157.345 46.7031 159.005 45.1094C160.244 43.9805 161.716 43.1172 163.421 42.5195C165.125 41.9219 167.217 41.623 169.696 41.623C174.3 41.623 178.008 42.8184 180.819 45.209C183.653 47.5775 185.069 50.765 185.069 54.7715C185.069 57.6048 184.228 59.9954 182.546 61.9434C181.483 63.1608 180.377 63.9909 179.225 64.4336C180.089 64.4336 181.328 65.1751 182.944 66.6582C185.357 68.8939 186.563 71.9486 186.563 75.8223C186.563 79.8952 185.147 83.4811 182.313 86.5801C179.502 89.6569 175.33 91.1953 169.796 91.1953C162.978 91.1953 158.241 88.9707 155.585 84.5215C154.19 82.153 153.416 79.054 153.261 75.2246H162.558C162.558 77.1504 162.867 78.7441 163.487 80.0059C164.638 82.3301 166.73 83.4922 169.763 83.4922C171.622 83.4922 173.238 82.8613 174.61 81.5996C176.005 80.3158 176.702 78.4785 176.702 76.0879C176.702 72.9225 175.418 70.8086 172.85 69.7461C171.39 69.1484 169.087 68.8496 165.944 68.8496V62.0762C169.021 62.0319 171.168 61.7331 172.386 61.1797C174.488 60.25 175.54 58.3685 175.54 55.5352C175.54 53.6979 174.998 52.2038 173.913 51.0527C172.85 49.9017 171.345 49.3262 169.397 49.3262C167.162 49.3262 165.524 50.0345 164.483 51.4512Z" fill="white"/>
</svg>
