<svg xmlns="http://www.w3.org/2000/svg" id="Layer_1" enable-background="new 0 0 500 500" viewBox="0 0 500 500" width="500" height="500"><style>.st0{fill:url(#base_x27_s_outline_1_)}.st1{fill:url(#base_1_)}.st2{filter:url(#Adobe_OpacityMaskFilter)}.st3{fill:url(#XMLID_49_)}.st4{fill:url(#XMLID_50_)}.st5{fill:url(#SVGID_1_)}.st6{opacity:.8;mask:url(#SHINING_3_);fill:#fff;enable-background:new}.st7{fill:url(#XMLID_51_)}.st8{fill:url(#SVGID_2_)}.st9{filter:url(#Adobe_OpacityMaskFilter_1_)}.st10{filter:url(#Adobe_OpacityMaskFilter_2_)}.st11{mask:url(#XMLID_52_);fill:url(#XMLID_53_)}.st12{opacity:.8;fill:url(#XMLID_54_);enable-background:new}.st13{fill:url(#XMLID_55_)}</style><g id="_x3C_Grupo_x3E___x2F__BODY"><linearGradient id="base_x27_s_outline_1_" x1="336.82" x2="336.82" y1="284.47" y2="186.63" gradientTransform="matrix(1 0 0 -1 0 502)" gradientUnits="userSpaceOnUse"><stop offset="0" stop-color="#666"/><stop offset=".5" stop-color="#ccc"/><stop offset=".59" stop-color="silver"/><stop offset=".75" stop-color="#a2a2a2"/><stop offset=".96" stop-color="#707070"/><stop offset="1" stop-color="#666"/></linearGradient><path id="base_x27_s_outline" d="M396 315.4c-9.3 0-19.8-2.5-25.5-6l-.8-.5.2-.9 3.8-13.9.4-1.5 1.4.8c4.7 2.8 12.8 5.7 21.6 5.7 9.6 0 15.4-4.2 15.4-11.3 0-6.2-4.2-10-15.4-14.1-17.3-6.2-25.7-15.3-25.7-27.8 0-16.3 13.9-27.6 33.7-27.6 10.9 0 18.2 2.6 22.5 4.8l.9.5-.3 1-3.9 13.5-.4 1.4-1.3-.7c-3.7-1.9-9.8-4.2-17.8-4.2-10.3 0-13.9 5.3-13.9 9.8 0 6.4 5 9.4 16.8 14 16.8 6.3 24.3 15.1 24.3 28.3-.1 13.1-9.5 28.7-36 28.7zm-79.1 0c-25.6 0-43.5-19.7-43.5-47.9 0-29.1 18.5-49.4 44.9-49.4 26.1 0 43.7 19.2 43.7 47.8 0 30-17.7 49.5-45.1 49.5zm.9-81.4c-14.7 0-24.2 13-24.2 33.1 0 19.4 9.7 32.4 24.2 32.4 14.4 0 24.1-13.3 24.1-33.1 0-15.6-7.6-32.4-24.1-32.4zm-56 79.9h-19.1v-68.7h19.1v68.7zm-9.6-75.8c-6 0-10.5-4.4-10.5-10.2 0-6 4.5-10.3 10.6-10.3s10.4 4.2 10.6 10.3c0 5.9-4.5 10.2-10.7 10.2z" class="st0"/><linearGradient id="base_1_" x1="336.82" x2="336.82" y1="187.84" y2="283.26" gradientTransform="matrix(1 0 0 -1 0 502)" gradientUnits="userSpaceOnUse"><stop offset=".05" stop-color="#ccc"/><stop offset=".06" stop-color="#c4c4c4"/><stop offset=".13" stop-color="#9c9c9c"/><stop offset=".2" stop-color="#797979"/><stop offset=".28" stop-color="#5d5d5d"/><stop offset=".36" stop-color="#474747"/><stop offset=".45" stop-color="#373737"/><stop offset=".55" stop-color="#2e2e2e"/><stop offset=".69" stop-color="#2b2b2b"/></linearGradient><path id="base" d="M252.3 218.7c-5.6 0-9.4 3.9-9.4 9.1 0 4.9 3.7 9 9.3 9 5.9 0 9.5-4.1 9.5-9-.2-5.1-3.7-9.1-9.4-9.1zm-8.4 94h16.7v-66.3h-16.7v66.3zm74.4-93.4c-25.9 0-43.7 19.9-43.7 48.2 0 26.8 16.3 46.7 42.3 46.7 25.2 0 43.8-17.6 43.8-48.3.1-26.3-15.7-46.6-42.4-46.6zm-.5 81.4c-16.1 0-25.5-14.8-25.5-33.6 0-18.9 8.8-34.3 25.5-34.3s25.3 16.3 25.3 33.6c0 19.2-9.1 34.3-25.3 34.3zm89.4-41.4c-12.2-4.8-17.6-8-17.6-15.1 0-5.4 4.5-11 15.1-11 8.6 0 15 2.6 18.4 4.4l3.9-13.5c-4.8-2.4-12-4.6-21.9-4.6-20 0-32.5 11.3-32.5 26.4 0 13.2 9.7 21.2 24.9 26.7 11.6 4.2 16.2 8.3 16.2 15.2 0 7.5-6 12.5-16.6 12.5-8.6 0-16.9-2.7-22.2-5.9l-3.8 13.9c5 3.1 15.1 5.9 24.9 5.9 23.5 0 34.7-12.8 34.7-27.6 0-13.3-7.6-21.3-23.5-27.3z" class="st1"/></g><defs><filter id="Adobe_OpacityMaskFilter" width="184.2" height="71.3" x="242.9" y="218.7" filterUnits="userSpaceOnUse"><feColorMatrix values="1 0 0 0 0 0 1 0 0 0 0 0 1 0 0 0 0 0 1 0"/></filter></defs><mask id="SHINING_3_" width="184.2" height="71.3" x="242.9" y="218.7" maskUnits="userSpaceOnUse"><g id="XMLID_5_" class="st2"><linearGradient id="XMLID_49_" x1="399.84" x2="399.84" y1="242.17" y2="282.58" gradientTransform="matrix(1 0 0 -1 0 502)" gradientUnits="userSpaceOnUse"><stop offset=".2" stop-color="#fff"/><stop offset="1"/></linearGradient><path id="XMLID_9_" d="M405.1 219.4c-20 0-32.5 11.3-32.5 26.4 0 5.5 1.7 10.1 4.8 14 8.3-.9 16.7-1.7 25.2-2.4-9-3.9-13-7.1-13-13.2 0-5.4 4.5-11 15.1-11 8.6 0 15 2.6 18.4 4.4l3.9-13.5c-4.7-2.5-11.9-4.7-21.9-4.7z" class="st3"/><linearGradient id="XMLID_50_" x1="317.63" x2="317.63" y1="222.55" y2="282.72" gradientTransform="matrix(1 0 0 -1 0 502)" gradientUnits="userSpaceOnUse"><stop offset=".2" stop-color="#fff"/><stop offset="1"/></linearGradient><path id="XMLID_8_" d="M318.3 219.3c-25.9 0-43.7 19.9-43.7 48.2 0 4.2.4 8.2 1.2 12 5.6-1.6 11.3-3.2 17.1-4.6-.4-2.5-.6-5.1-.6-7.8 0-18.9 8.8-34.3 25.5-34.3 16.1 0 24.7 15.2 25.3 31.8 5.8-.9 11.7-1.8 17.6-2.6-1.6-24.4-17.1-42.7-42.4-42.7z" class="st4"/><g id="XMLID_6_"><g id="XMLID_7_"><linearGradient id="SVGID_1_" x1="242.29" x2="242.29" y1="221.93" y2="293.26" gradientTransform="matrix(1 0 0 -1 10 512)" gradientUnits="userSpaceOnUse"><stop offset=".2" stop-color="#fff"/><stop offset="1"/></linearGradient><path d="M243.9 290.1c5.4-2 11-4 16.7-5.9v-37.8h-16.7v43.7zm8.3-53.3c5.9 0 9.5-4.1 9.5-9-.1-5.2-3.7-9.1-9.4-9.1-5.6 0-9.4 3.9-9.4 9.1 0 5 3.7 9 9.3 9z" class="st5"/></g></g></g></mask><path id="SHINING" d="M243.9 290.1c5.4-2 11-4 16.7-5.9v-37.8h-16.7v43.7zm161.2-70.7c-20 0-32.5 11.3-32.5 26.4 0 5.5 1.7 10.1 4.8 14 8.3-.9 16.7-1.7 25.2-2.4-9-3.9-13-7.1-13-13.2 0-5.4 4.5-11 15.1-11 8.6 0 15 2.6 18.4 4.4l3.9-13.5c-4.7-2.5-11.9-4.7-21.9-4.7zm-86.8-.1c-25.9 0-43.7 19.9-43.7 48.2 0 4.2.4 8.2 1.2 12 5.6-1.6 11.3-3.2 17.1-4.6-.4-2.5-.6-5.1-.6-7.8 0-18.9 8.8-34.3 25.5-34.3 16.1 0 24.7 15.2 25.3 31.8 5.8-.9 11.7-1.8 17.6-2.6-1.6-24.4-17.1-42.7-42.4-42.7zm-66-.6c-5.6 0-9.4 3.9-9.4 9.1 0 4.9 3.7 9 9.3 9 5.9 0 9.5-4.1 9.5-9-.2-5.1-3.7-9.1-9.4-9.1z" class="st6"/><linearGradient id="XMLID_51_" x1="146.29" x2="146.29" y1="323.94" y2="-80.78" gradientTransform="matrix(1 0 0 -1 0 502)" gradientUnits="userSpaceOnUse"><stop offset="0" stop-color="#666"/><stop offset=".5" stop-color="#ccc"/><stop offset=".59" stop-color="silver"/><stop offset=".75" stop-color="#a2a2a2"/><stop offset=".96" stop-color="#707070"/><stop offset="1" stop-color="#666"/></linearGradient><path id="XMLID_1_" d="M118.6 344.6c-12.2 0-23.7-9.7-35.2-29.7-10.9-19.4-16.5-38.4-16.5-56.5 0-17.2 4.4-31.5 12.9-42.6C88.6 204.6 99.7 199 113 199c5.6 0 12.1 1.1 20.1 3.4 3.8 1.1 6.7 1.9 8.9 2.3v-1.1c.2-11.4 3.3-21.3 9-29.6 5.8-8.3 15.5-14.1 28.9-17.3l2.4-.5.5 2.4c.1.4.2.7.2 1 .1.5.3 1 .3 1.5v1.3c0 .4.1.8.1 1.3 0 4.8-1.1 10.1-3.4 15.8-2.3 5.8-5.9 11.2-10.8 16-3.5 3.5-7 6-10.6 7.6 1.1-.4 2.4-.8 3.7-1.2 7.8-2.6 14.3-3.9 19.8-3.9 9.2 0 17.5 2.5 24.8 7.6 4 2.7 8 6.6 11.9 11.5l1.5 1.8-1.8 1.5c-5.7 4.8-9.6 8.9-12.1 12.5-4.5 6.4-6.7 13.7-6.7 21.4 0 8.6 2.4 16.4 7.2 23.2 4.7 6.8 10.1 11.1 16.1 12.9l2.3.7-.7 2.3c-2.9 9.3-7.6 18.8-13.8 28.1-9.9 15-20 22.6-30.3 22.6-3.9 0-9.1-1.2-16.2-3.7-6-2.2-11.4-3.4-15.8-3.4-4.1 0-9.1 1.2-14.7 3.5-5.9 2.8-11.1 4.1-15.2 4.1z" class="st7"/><linearGradient id="SVGID_2_" x1="145.98" x2="145.98" y1="158.55" y2="380.99" gradientTransform="matrix(1 0 0 -1 0 502)" gradientUnits="userSpaceOnUse"><stop offset=".05" stop-color="#ccc"/><stop offset=".06" stop-color="#c4c4c4"/><stop offset=".13" stop-color="#9c9c9c"/><stop offset=".2" stop-color="#797979"/><stop offset=".28" stop-color="#5d5d5d"/><stop offset=".36" stop-color="#474747"/><stop offset=".45" stop-color="#373737"/><stop offset=".55" stop-color="#2e2e2e"/><stop offset=".69" stop-color="#2b2b2b"/></linearGradient><path d="M209.1 320.3c-9.5 14.4-18.9 21.6-28.3 21.6-3.7 0-8.8-1.2-15.4-3.5-6.5-2.4-12.1-3.5-16.6-3.5-4.4 0-9.7 1.2-15.6 3.6-6.1 2.5-10.9 3.7-14.5 3.7-11.3 0-22.2-9.6-33.1-28.5-10.7-18.9-16.2-37.3-16.2-55.3 0-16.8 4.2-30.5 12.4-41.2 8.3-10.6 18.6-15.8 31.2-15.8 5.4 0 11.8 1.1 19.5 3.3 7.6 2.2 12.7 3.3 15.2 3.3 3.2 0 8.5-1.2 15.7-3.7 7.3-2.4 13.6-3.7 19-3.7 8.8 0 16.6 2.4 23.4 7.2 3.9 2.6 7.7 6.4 11.4 11-5.7 4.8-9.9 9.1-12.5 13-4.7 6.8-7.2 14.4-7.2 22.8 0 9 2.5 17.3 7.6 24.5 5.1 7.3 10.9 11.9 17.4 13.9-2.6 8.5-7 17.8-13.4 27.3zm-31-141.6c-2.2 5.5-5.6 10.6-10.2 15.2-4 4-7.9 6.6-11.9 7.9-2.5.8-6.3 1.4-11.4 1.9.2-10.9 3.1-20.4 8.6-28.3 5.5-7.9 14.7-13.3 27.5-16.3.2 1 .4 1.8.6 2.4 0 .8.1 1.4.1 2.2-.2 4.6-1.3 9.6-3.3 15z" class="st8"/><defs><filter id="Adobe_OpacityMaskFilter_1_" width="148" height="107.8" x="69.3" y="200.5" filterUnits="userSpaceOnUse"><feFlood flood-color="#fff" flood-opacity="1" result="back"/><feBlend in="SourceGraphic" in2="back"/></filter></defs><mask id="XMLID_52_" width="148" height="107.8" x="69.3" y="200.5" maskUnits="userSpaceOnUse"><g id="XMLID_29_" class="st9"><defs><filter id="Adobe_OpacityMaskFilter_2_" width="148" height="107.8" x="69.3" y="200.5" filterUnits="userSpaceOnUse"><feFlood flood-color="#fff" flood-opacity="1" result="back"/><feBlend in="SourceGraphic" in2="back"/></filter></defs><linearGradient id="XMLID_53_" x1="157.99" x2="73.14" y1="223.93" y2="378.1" gradientTransform="matrix(1 0 0 -1 0 502)" gradientUnits="userSpaceOnUse"><stop offset=".23" stop-color="#fff"/><stop offset=".24" stop-color="#fcfcfc"/><stop offset=".39" stop-color="#cbcbcb"/><stop offset=".55" stop-color="#959595"/><stop offset=".74" stop-color="#585858"/><stop offset="1"/></linearGradient><path id="XMLID_30_" d="M199.9 224.1c3.7 0 7.3.2 10.9.5 1.9-1.9 4.1-3.9 6.6-6-3.7-4.6-7.6-8.4-11.4-11-6.8-4.7-14.6-7.2-23.4-7.2-5.4 0-11.8 1.3-19 3.7-7.3 2.5-12.5 3.7-15.7 3.7-2.5 0-7.6-1.1-15.2-3.3-7.7-2.2-14.1-3.3-19.5-3.3-12.7 0-23 5.3-31.2 15.8-8.3 10.7-12.4 24.3-12.4 41.2 0 16.3 4.5 32.9 13.3 49.9 16.2-48.7 62.5-84 117-84z" class="st11"/></g></mask><linearGradient id="XMLID_54_" x1="157.99" x2="73.14" y1="223.93" y2="378.1" gradientTransform="matrix(1 0 0 -1 0 502)" gradientUnits="userSpaceOnUse"><stop offset=".23" stop-color="#ccc"/><stop offset=".24" stop-color="#cecece"/><stop offset=".39" stop-color="#e4e4e4"/><stop offset=".55" stop-color="#f3f3f3"/><stop offset=".74" stop-color="#fcfcfc"/><stop offset="1" stop-color="#fff"/></linearGradient><path id="XMLID_2_" d="M199.9 224.1c3.7 0 7.3.2 10.9.5 1.9-1.9 4.1-3.9 6.6-6-3.7-4.6-7.6-8.4-11.4-11-6.8-4.7-14.6-7.2-23.4-7.2-5.4 0-11.8 1.3-19 3.7-7.3 2.5-12.5 3.7-15.7 3.7-2.5 0-7.6-1.1-15.2-3.3-7.7-2.2-14.1-3.3-19.5-3.3-12.7 0-23 5.3-31.2 15.8-8.3 10.7-12.4 24.3-12.4 41.2 0 16.3 4.5 32.9 13.3 49.9 16.2-48.7 62.5-84 117-84z" class="st12"/><linearGradient id="XMLID_55_" x1="152.6" x2="152.6" y1="158.55" y2="380.99" gradientTransform="matrix(1 0 0 -1 0 502)" gradientUnits="userSpaceOnUse"><stop offset=".05" stop-color="#ccc"/><stop offset=".06" stop-color="#c4c4c4"/><stop offset=".13" stop-color="#9c9c9c"/><stop offset=".2" stop-color="#797979"/><stop offset=".28" stop-color="#5d5d5d"/><stop offset=".36" stop-color="#474747"/><stop offset=".45" stop-color="#373737"/><stop offset=".55" stop-color="#2e2e2e"/><stop offset=".69" stop-color="#2b2b2b"/></linearGradient><path id="XMLID_27_" d="M118.6 342.2c3.6 0 8.5-1.2 14.5-3.7 5.9-2.4 11.2-3.6 15.6-3.6 4.5 0 10.1 1.1 16.6 3.5 6.6 2.3 11.7 3.5 15.4 3.5 9.4 0 18.8-7.2 28.3-21.6 6.4-9.6 10.8-18.8 13.5-27.5-6.5-2-12.3-6.6-17.4-13.9-5.1-7.3-7.6-15.5-7.6-24.5 0-8.4 2.4-16 7.2-22.8 1.5-2.2 3.5-4.5 6-7-3.6-.3-7.2-.5-10.9-.5-54.5 0-100.8 35.2-117.3 84.2.9 1.8 1.9 3.6 2.9 5.4 11 19 21.9 28.5 33.2 28.5z" class="st13"/></svg>