<svg width="49" height="49" viewBox="0 0 49 49" fill="none" xmlns="http://www.w3.org/2000/svg">
<rect x="4" y="8" width="45" height="41" rx="10" fill="#D9D9D9" fill-opacity="0.48"/>
<rect width="44" height="44" rx="10" fill="#C3C0C0"/>
<rect x="2" y="2" width="40" height="40" rx="10" fill="white"/>
<path d="M17.5 33.5C17.064 33.5 11.3063 25.5173 9.83861 23.4726C9.64216 23.1989 9.6746 22.8254 9.91282 22.5872C10.2179 22.2821 10.723 22.3258 10.9671 22.6817C12.466 24.8672 17.0818 31.5818 17.5 32C17.949 32.449 31.2982 16.7726 34.0188 13.5675C34.282 13.2574 34.7467 13.2467 35.0343 13.5343C35.2955 13.7955 35.3076 14.2143 35.0607 14.489C32.3459 17.5096 17.9528 33.5 17.5 33.5Z" stroke="#05A8AB" stroke-width="3"/>
</svg>
