<svg width="156" height="135" viewBox="0 0 156 135" fill="none" xmlns="http://www.w3.org/2000/svg">
<path d="M6.95312 6.7207C6.62109 6.32357 6.14583 6.125 5.52734 6.125C4.68099 6.125 4.10482 6.44076 3.79883 7.07227C3.62305 7.43685 3.51888 8.01628 3.48633 8.81055H0.78125C0.826823 7.60612 1.04492 6.63281 1.43555 5.89062C2.17773 4.47786 3.49609 3.77148 5.39062 3.77148C6.88802 3.77148 8.07943 4.18815 8.96484 5.02148C9.85026 5.84831 10.293 6.94531 10.293 8.3125C10.293 9.36068 9.98047 10.2917 9.35547 11.1055C8.94531 11.6458 8.27148 12.248 7.33398 12.9121L6.2207 13.7031C5.52409 14.1979 5.04557 14.556 4.78516 14.7773C4.53125 14.9987 4.31641 15.2559 4.14062 15.5488H10.3223V18H0.625C0.651042 16.9844 0.869141 16.0566 1.2793 15.2168C1.67643 14.2728 2.61393 13.2734 4.0918 12.2188C5.37435 11.3008 6.20443 10.6432 6.58203 10.2461C7.16146 9.6276 7.45117 8.95052 7.45117 8.21484C7.45117 7.61589 7.28516 7.11784 6.95312 6.7207ZM21.3012 18H18.4496V8.23438H15.1195V6.33984C15.9984 6.30078 16.6137 6.24219 16.9652 6.16406C17.5251 6.04036 17.9809 5.79297 18.3324 5.42188C18.5733 5.16797 18.7556 4.82943 18.8793 4.40625C18.9509 4.15234 18.9867 3.96354 18.9867 3.83984H21.3012V18ZM34.4188 6.7207C34.0867 6.32357 33.6115 6.125 32.993 6.125C32.1466 6.125 31.5704 6.44076 31.2645 7.07227C31.0887 7.43685 30.9845 8.01628 30.952 8.81055H28.2469C28.2924 7.60612 28.5105 6.63281 28.9012 5.89062C29.6434 4.47786 30.9617 3.77148 32.8563 3.77148C34.3536 3.77148 35.5451 4.18815 36.4305 5.02148C37.3159 5.84831 37.7586 6.94531 37.7586 8.3125C37.7586 9.36068 37.4461 10.2917 36.8211 11.1055C36.4109 11.6458 35.7371 12.248 34.7996 12.9121L33.6863 13.7031C32.9897 14.1979 32.5112 14.556 32.2508 14.7773C31.9969 14.9987 31.782 15.2559 31.6063 15.5488H37.7879V18H28.0906C28.1167 16.9844 28.3348 16.0566 28.7449 15.2168C29.1421 14.2728 30.0796 13.2734 31.5574 12.2188C32.84 11.3008 33.6701 10.6432 34.0477 10.2461C34.6271 9.6276 34.9168 8.95052 34.9168 8.21484C34.9168 7.61589 34.7508 7.11784 34.4188 6.7207ZM41.6574 11.1055H47.2629V13.7422H41.6574V11.1055ZM54.2867 6.66211C53.9742 7.07878 53.8245 7.63542 53.8375 8.33203H51.2398C51.2659 7.62891 51.3863 6.96159 51.6012 6.33008C51.829 5.77669 52.1871 5.26562 52.6754 4.79688C53.04 4.46484 53.4729 4.21094 53.9742 4.03516C54.4755 3.85938 55.0908 3.77148 55.8199 3.77148C57.1741 3.77148 58.2646 4.12305 59.0914 4.82617C59.9247 5.52279 60.3414 6.46029 60.3414 7.63867C60.3414 8.47201 60.094 9.17513 59.5992 9.74805C59.2867 10.1061 58.9612 10.3503 58.6227 10.4805C58.8766 10.4805 59.2411 10.6986 59.7164 11.1348C60.426 11.7923 60.7809 12.6908 60.7809 13.8301C60.7809 15.028 60.3642 16.0827 59.5309 16.9941C58.704 17.8991 57.4768 18.3516 55.8492 18.3516C53.844 18.3516 52.4508 17.6973 51.6695 16.3887C51.2594 15.6921 51.0315 14.7806 50.9859 13.6543H53.7203C53.7203 14.2207 53.8115 14.6895 53.9938 15.0605C54.3323 15.7441 54.9475 16.0859 55.8395 16.0859C56.3863 16.0859 56.8616 15.9004 57.2652 15.5293C57.6754 15.1517 57.8805 14.6113 57.8805 13.9082C57.8805 12.9772 57.5029 12.3555 56.7477 12.043C56.318 11.8672 55.6409 11.7793 54.7164 11.7793V9.78711C55.6214 9.77409 56.2529 9.6862 56.6109 9.52344C57.2294 9.25 57.5387 8.69661 57.5387 7.86328C57.5387 7.32292 57.3792 6.88346 57.0602 6.54492C56.7477 6.20638 56.3049 6.03711 55.732 6.03711C55.0745 6.03711 54.5927 6.24544 54.2867 6.66211ZM74.6504 12.7754V14.9531H73.0488V18H70.3242V14.9531H64.7188V12.5215L69.9238 3.92773H73.0488V12.7754H74.6504ZM66.7793 12.7754H70.3242V6.66211L66.7793 12.7754ZM83.2562 10.9688C82.9177 10.9688 82.6247 11.0111 82.3773 11.0957C81.9411 11.252 81.6124 11.5417 81.391 11.9648L78.891 11.8477L79.8871 4.02539H87.6898V6.38867H81.8988L81.391 9.48438C81.8207 9.20443 82.156 9.01888 82.3969 8.92773C82.8005 8.77799 83.2921 8.70312 83.8715 8.70312C85.0434 8.70312 86.0655 9.09701 86.9379 9.88477C87.8103 10.6725 88.2465 11.8184 88.2465 13.3223C88.2465 14.6309 87.8266 15.7995 86.9867 16.8281C86.1469 17.8568 84.8904 18.3711 83.2172 18.3711C81.8695 18.3711 80.7628 18.0098 79.8969 17.2871C79.031 16.5645 78.5492 15.5391 78.4516 14.2109H81.225C81.3357 14.8164 81.5473 15.2852 81.8598 15.6172C82.1723 15.9427 82.628 16.1055 83.227 16.1055C83.9171 16.1055 84.4411 15.8646 84.7992 15.3828C85.1638 14.8945 85.3461 14.2826 85.3461 13.5469C85.3461 12.8242 85.1768 12.2155 84.8383 11.7207C84.4997 11.2194 83.9724 10.9688 83.2562 10.9688ZM92.116 11.1055H97.7215V13.7422H92.116V11.1055ZM106.249 10.9688C105.911 10.9688 105.618 11.0111 105.37 11.0957C104.934 11.252 104.605 11.5417 104.384 11.9648L101.884 11.8477L102.88 4.02539H110.683V6.38867H104.892L104.384 9.48438C104.814 9.20443 105.149 9.01888 105.39 8.92773C105.793 8.77799 106.285 8.70312 106.864 8.70312C108.036 8.70312 109.058 9.09701 109.931 9.88477C110.803 10.6725 111.239 11.8184 111.239 13.3223C111.239 14.6309 110.82 15.7995 109.98 16.8281C109.14 17.8568 107.883 18.3711 106.21 18.3711C104.863 18.3711 103.756 18.0098 102.89 17.2871C102.024 16.5645 101.542 15.5391 101.445 14.2109H104.218C104.329 14.8164 104.54 15.2852 104.853 15.6172C105.165 15.9427 105.621 16.1055 106.22 16.1055C106.91 16.1055 107.434 15.8646 107.792 15.3828C108.157 14.8945 108.339 14.2826 108.339 13.5469C108.339 12.8242 108.17 12.2155 107.831 11.7207C107.493 11.2194 106.965 10.9688 106.249 10.9688ZM120.763 8.81055C122.02 8.81055 123.048 9.23698 123.849 10.0898C124.657 10.9427 125.06 12.0332 125.06 13.3613C125.06 14.6829 124.666 15.8483 123.879 16.8574C123.091 17.8665 121.867 18.3711 120.207 18.3711C118.423 18.3711 117.108 17.6257 116.261 16.1348C115.604 14.9694 115.275 13.4655 115.275 11.623C115.275 10.5423 115.321 9.66341 115.412 8.98633C115.574 7.7819 115.89 6.7793 116.359 5.97852C116.763 5.29492 117.29 4.74479 117.941 4.32812C118.599 3.91146 119.383 3.70312 120.295 3.70312C121.61 3.70312 122.658 4.04167 123.439 4.71875C124.22 5.38932 124.66 6.28451 124.757 7.4043H121.984C121.984 7.17643 121.896 6.92578 121.72 6.65234C121.421 6.20964 120.968 5.98828 120.363 5.98828C119.458 5.98828 118.813 6.49609 118.429 7.51172C118.221 8.07161 118.078 8.89844 118 9.99219C118.345 9.58203 118.745 9.28255 119.201 9.09375C119.657 8.90495 120.177 8.81055 120.763 8.81055ZM118.888 11.4668C118.341 11.89 118.068 12.5736 118.068 13.5176C118.068 14.2793 118.273 14.901 118.683 15.3828C119.093 15.8646 119.614 16.1055 120.246 16.1055C120.864 16.1055 121.349 15.8743 121.701 15.4121C122.059 14.9434 122.238 14.3379 122.238 13.5957C122.238 12.7689 122.036 12.1374 121.632 11.7012C121.229 11.2585 120.734 11.0371 120.148 11.0371C119.673 11.0371 119.253 11.1803 118.888 11.4668ZM137.191 8.39062C136.449 9.44531 135.827 10.5326 135.326 11.6523C134.929 12.5312 134.571 13.6055 134.252 14.875C133.933 16.1445 133.773 17.1862 133.773 18H130.883C130.967 15.4609 131.801 12.821 133.383 10.0801C134.405 8.38086 135.261 7.19596 135.951 6.52539H128.891L128.93 4.02539H138.93V6.20312C138.513 6.61328 137.934 7.34245 137.191 8.39062ZM143.864 17.1113C143.05 16.278 142.643 15.2656 142.643 14.0742C142.643 13.2799 142.822 12.5605 143.18 11.916C143.545 11.2715 144.075 10.7865 144.772 10.4609C144.088 10.0052 143.642 9.51367 143.434 8.98633C143.232 8.45247 143.131 7.95443 143.131 7.49219C143.131 6.46354 143.519 5.58789 144.293 4.86523C145.068 4.13607 146.162 3.77148 147.575 3.77148C148.987 3.77148 150.081 4.13607 150.856 4.86523C151.631 5.58789 152.018 6.46354 152.018 7.49219C152.018 7.95443 151.914 8.45247 151.705 8.98633C151.504 9.51367 151.061 9.97266 150.377 10.3633C151.074 10.7539 151.598 11.2715 151.95 11.916C152.301 12.5605 152.477 13.2799 152.477 14.0742C152.477 15.2656 152.034 16.2812 151.149 17.1211C150.27 17.9544 149.039 18.3711 147.457 18.3711C145.875 18.3711 144.677 17.9512 143.864 17.1113ZM145.534 13.8887C145.534 14.5853 145.713 15.1257 146.071 15.5098C146.435 15.8939 146.937 16.0859 147.575 16.0859C148.213 16.0859 148.711 15.8939 149.069 15.5098C149.433 15.1257 149.616 14.5853 149.616 13.8887C149.616 13.166 149.43 12.6191 149.059 12.248C148.694 11.8704 148.2 11.6816 147.575 11.6816C146.95 11.6816 146.452 11.8704 146.08 12.248C145.716 12.6191 145.534 13.166 145.534 13.8887ZM146.266 9.06445C146.579 9.38997 147.015 9.55273 147.575 9.55273C148.141 9.55273 148.577 9.38997 148.883 9.06445C149.196 8.73893 149.352 8.31901 149.352 7.80469C149.352 7.24479 149.196 6.80859 148.883 6.49609C148.577 6.17708 148.141 6.01758 147.575 6.01758C147.015 6.01758 146.575 6.17708 146.256 6.49609C145.944 6.80859 145.788 7.24479 145.788 7.80469C145.788 8.31901 145.947 8.73893 146.266 9.06445Z" fill="black"/>
<path d="M6.95312 117.721C6.62109 117.324 6.14583 117.125 5.52734 117.125C4.68099 117.125 4.10482 117.441 3.79883 118.072C3.62305 118.437 3.51888 119.016 3.48633 119.811H0.78125C0.826823 118.606 1.04492 117.633 1.43555 116.891C2.17773 115.478 3.49609 114.771 5.39062 114.771C6.88802 114.771 8.07943 115.188 8.96484 116.021C9.85026 116.848 10.293 117.945 10.293 119.312C10.293 120.361 9.98047 121.292 9.35547 122.105C8.94531 122.646 8.27148 123.248 7.33398 123.912L6.2207 124.703C5.52409 125.198 5.04557 125.556 4.78516 125.777C4.53125 125.999 4.31641 126.256 4.14062 126.549H10.3223V129H0.625C0.651042 127.984 0.869141 127.057 1.2793 126.217C1.67643 125.273 2.61393 124.273 4.0918 123.219C5.37435 122.301 6.20443 121.643 6.58203 121.246C7.16146 120.628 7.45117 119.951 7.45117 119.215C7.45117 118.616 7.28516 118.118 6.95312 117.721ZM21.3012 129H18.4496V119.234H15.1195V117.34C15.9984 117.301 16.6137 117.242 16.9652 117.164C17.5251 117.04 17.9809 116.793 18.3324 116.422C18.5733 116.168 18.7556 115.829 18.8793 115.406C18.9509 115.152 18.9867 114.964 18.9867 114.84H21.3012V129ZM34.4188 117.721C34.0867 117.324 33.6115 117.125 32.993 117.125C32.1466 117.125 31.5704 117.441 31.2645 118.072C31.0887 118.437 30.9845 119.016 30.952 119.811H28.2469C28.2924 118.606 28.5105 117.633 28.9012 116.891C29.6434 115.478 30.9617 114.771 32.8563 114.771C34.3536 114.771 35.5451 115.188 36.4305 116.021C37.3159 116.848 37.7586 117.945 37.7586 119.312C37.7586 120.361 37.4461 121.292 36.8211 122.105C36.4109 122.646 35.7371 123.248 34.7996 123.912L33.6863 124.703C32.9897 125.198 32.5112 125.556 32.2508 125.777C31.9969 125.999 31.782 126.256 31.6063 126.549H37.7879V129H28.0906C28.1167 127.984 28.3348 127.057 28.7449 126.217C29.1421 125.273 30.0796 124.273 31.5574 123.219C32.84 122.301 33.6701 121.643 34.0477 121.246C34.6271 120.628 34.9168 119.951 34.9168 119.215C34.9168 118.616 34.7508 118.118 34.4188 117.721ZM41.6574 122.105H47.2629V124.742H41.6574V122.105ZM54.2867 117.662C53.9742 118.079 53.8245 118.635 53.8375 119.332H51.2398C51.2659 118.629 51.3863 117.962 51.6012 117.33C51.829 116.777 52.1871 116.266 52.6754 115.797C53.04 115.465 53.4729 115.211 53.9742 115.035C54.4755 114.859 55.0908 114.771 55.8199 114.771C57.1741 114.771 58.2646 115.123 59.0914 115.826C59.9247 116.523 60.3414 117.46 60.3414 118.639C60.3414 119.472 60.094 120.175 59.5992 120.748C59.2867 121.106 58.9612 121.35 58.6227 121.48C58.8766 121.48 59.2411 121.699 59.7164 122.135C60.426 122.792 60.7809 123.691 60.7809 124.83C60.7809 126.028 60.3642 127.083 59.5309 127.994C58.704 128.899 57.4768 129.352 55.8492 129.352C53.844 129.352 52.4508 128.697 51.6695 127.389C51.2594 126.692 51.0315 125.781 50.9859 124.654H53.7203C53.7203 125.221 53.8115 125.689 53.9938 126.061C54.3323 126.744 54.9475 127.086 55.8395 127.086C56.3863 127.086 56.8616 126.9 57.2652 126.529C57.6754 126.152 57.8805 125.611 57.8805 124.908C57.8805 123.977 57.5029 123.355 56.7477 123.043C56.318 122.867 55.6409 122.779 54.7164 122.779V120.787C55.6214 120.774 56.2529 120.686 56.6109 120.523C57.2294 120.25 57.5387 119.697 57.5387 118.863C57.5387 118.323 57.3792 117.883 57.0602 117.545C56.7477 117.206 56.3049 117.037 55.732 117.037C55.0745 117.037 54.5927 117.245 54.2867 117.662ZM74.6504 123.775V125.953H73.0488V129H70.3242V125.953H64.7188V123.521L69.9238 114.928H73.0488V123.775H74.6504ZM66.7793 123.775H70.3242V117.662L66.7793 123.775ZM83.2562 121.969C82.9177 121.969 82.6247 122.011 82.3773 122.096C81.9411 122.252 81.6124 122.542 81.391 122.965L78.891 122.848L79.8871 115.025H87.6898V117.389H81.8988L81.391 120.484C81.8207 120.204 82.156 120.019 82.3969 119.928C82.8005 119.778 83.2921 119.703 83.8715 119.703C85.0434 119.703 86.0655 120.097 86.9379 120.885C87.8103 121.673 88.2465 122.818 88.2465 124.322C88.2465 125.631 87.8266 126.799 86.9867 127.828C86.1469 128.857 84.8904 129.371 83.2172 129.371C81.8695 129.371 80.7628 129.01 79.8969 128.287C79.031 127.564 78.5492 126.539 78.4516 125.211H81.225C81.3357 125.816 81.5473 126.285 81.8598 126.617C82.1723 126.943 82.628 127.105 83.227 127.105C83.9171 127.105 84.4411 126.865 84.7992 126.383C85.1638 125.895 85.3461 125.283 85.3461 124.547C85.3461 123.824 85.1768 123.215 84.8383 122.721C84.4997 122.219 83.9724 121.969 83.2562 121.969ZM92.116 122.105H97.7215V124.742H92.116V122.105ZM106.249 121.969C105.911 121.969 105.618 122.011 105.37 122.096C104.934 122.252 104.605 122.542 104.384 122.965L101.884 122.848L102.88 115.025H110.683V117.389H104.892L104.384 120.484C104.814 120.204 105.149 120.019 105.39 119.928C105.793 119.778 106.285 119.703 106.864 119.703C108.036 119.703 109.058 120.097 109.931 120.885C110.803 121.673 111.239 122.818 111.239 124.322C111.239 125.631 110.82 126.799 109.98 127.828C109.14 128.857 107.883 129.371 106.21 129.371C104.863 129.371 103.756 129.01 102.89 128.287C102.024 127.564 101.542 126.539 101.445 125.211H104.218C104.329 125.816 104.54 126.285 104.853 126.617C105.165 126.943 105.621 127.105 106.22 127.105C106.91 127.105 107.434 126.865 107.792 126.383C108.157 125.895 108.339 125.283 108.339 124.547C108.339 123.824 108.17 123.215 107.831 122.721C107.493 122.219 106.965 121.969 106.249 121.969ZM120.763 119.811C122.02 119.811 123.048 120.237 123.849 121.09C124.657 121.943 125.06 123.033 125.06 124.361C125.06 125.683 124.666 126.848 123.879 127.857C123.091 128.867 121.867 129.371 120.207 129.371C118.423 129.371 117.108 128.626 116.261 127.135C115.604 125.969 115.275 124.465 115.275 122.623C115.275 121.542 115.321 120.663 115.412 119.986C115.574 118.782 115.89 117.779 116.359 116.979C116.763 116.295 117.29 115.745 117.941 115.328C118.599 114.911 119.383 114.703 120.295 114.703C121.61 114.703 122.658 115.042 123.439 115.719C124.22 116.389 124.66 117.285 124.757 118.404H121.984C121.984 118.176 121.896 117.926 121.72 117.652C121.421 117.21 120.968 116.988 120.363 116.988C119.458 116.988 118.813 117.496 118.429 118.512C118.221 119.072 118.078 119.898 118 120.992C118.345 120.582 118.745 120.283 119.201 120.094C119.657 119.905 120.177 119.811 120.763 119.811ZM118.888 122.467C118.341 122.89 118.068 123.574 118.068 124.518C118.068 125.279 118.273 125.901 118.683 126.383C119.093 126.865 119.614 127.105 120.246 127.105C120.864 127.105 121.349 126.874 121.701 126.412C122.059 125.943 122.238 125.338 122.238 124.596C122.238 123.769 122.036 123.137 121.632 122.701C121.229 122.258 120.734 122.037 120.148 122.037C119.673 122.037 119.253 122.18 118.888 122.467ZM137.191 119.391C136.449 120.445 135.827 121.533 135.326 122.652C134.929 123.531 134.571 124.605 134.252 125.875C133.933 127.145 133.773 128.186 133.773 129H130.883C130.967 126.461 131.801 123.821 133.383 121.08C134.405 119.381 135.261 118.196 135.951 117.525H128.891L128.93 115.025H138.93V117.203C138.513 117.613 137.934 118.342 137.191 119.391ZM143.864 128.111C143.05 127.278 142.643 126.266 142.643 125.074C142.643 124.28 142.822 123.561 143.18 122.916C143.545 122.271 144.075 121.786 144.772 121.461C144.088 121.005 143.642 120.514 143.434 119.986C143.232 119.452 143.131 118.954 143.131 118.492C143.131 117.464 143.519 116.588 144.293 115.865C145.068 115.136 146.162 114.771 147.575 114.771C148.987 114.771 150.081 115.136 150.856 115.865C151.631 116.588 152.018 117.464 152.018 118.492C152.018 118.954 151.914 119.452 151.705 119.986C151.504 120.514 151.061 120.973 150.377 121.363C151.074 121.754 151.598 122.271 151.95 122.916C152.301 123.561 152.477 124.28 152.477 125.074C152.477 126.266 152.034 127.281 151.149 128.121C150.27 128.954 149.039 129.371 147.457 129.371C145.875 129.371 144.677 128.951 143.864 128.111ZM145.534 124.889C145.534 125.585 145.713 126.126 146.071 126.51C146.435 126.894 146.937 127.086 147.575 127.086C148.213 127.086 148.711 126.894 149.069 126.51C149.433 126.126 149.616 125.585 149.616 124.889C149.616 124.166 149.43 123.619 149.059 123.248C148.694 122.87 148.2 122.682 147.575 122.682C146.95 122.682 146.452 122.87 146.08 123.248C145.716 123.619 145.534 124.166 145.534 124.889ZM146.266 120.064C146.579 120.39 147.015 120.553 147.575 120.553C148.141 120.553 148.577 120.39 148.883 120.064C149.196 119.739 149.352 119.319 149.352 118.805C149.352 118.245 149.196 117.809 148.883 117.496C148.577 117.177 148.141 117.018 147.575 117.018C147.015 117.018 146.575 117.177 146.256 117.496C145.944 117.809 145.788 118.245 145.788 118.805C145.788 119.319 145.947 119.739 146.266 120.064Z" fill="black"/>
<path d="M75.8787 97.1213C77.0503 98.2929 78.9497 98.2929 80.1213 97.1213L99.2132 78.0294C100.385 76.8579 100.385 74.9584 99.2132 73.7868C98.0416 72.6152 96.1421 72.6152 94.9706 73.7868L78 90.7574L61.0294 73.7868C59.8579 72.6152 57.9584 72.6152 56.7868 73.7868C55.6152 74.9584 55.6152 76.8579 56.7868 78.0294L75.8787 97.1213ZM75 41L75 95L81 95L81 41L75 41Z" fill="#C4D2D2"/>
<rect y="114" width="11" height="16" fill="#D9D9D9"/>
<rect x="14" y="114" width="11" height="16" fill="#D9D9D9"/>
<rect x="28" y="114" width="11" height="16" fill="#D9D9D9"/>
<rect x="51" y="114" width="11" height="16" fill="#D9D9D9"/>
<rect x="64" y="114" width="11" height="16" fill="#D9D9D9"/>
<rect x="77" y="114" width="12" height="16" fill="#D9D9D9"/>
<rect x="101" y="114" width="12" height="16" fill="#D9D9D9"/>
<rect x="115" y="114" width="11" height="16" fill="#D9D9D9"/>
<rect x="128" y="114" width="12" height="16" fill="#D9D9D9"/>
<rect x="142" y="114" width="12" height="16" fill="#D9D9D9"/>
</svg>
