<svg width="25" height="25" viewBox="0 0 25 25" fill="none" xmlns="http://www.w3.org/2000/svg">
<path d="M12.5 5H6C3.79086 5 2 6.79086 2 9V19C2 21.2091 3.79086 23 6 23H16C18.2091 23 20 21.2091 20 19V13.9995C20 13.7234 20.2239 13.5 20.5 13.5C20.7761 13.5 21 13.7239 21 14V19C21 21.7614 18.7614 24 16 24H6C3.23858 24 1 21.7614 1 19V9C1 6.23858 3.23858 4 6 4H12.5C12.7761 4 13 4.22386 13 4.5C13 4.77614 12.7761 5 12.5 5Z" fill="black"/>
<path d="M23.3346 1.00021C23.9028 0.988646 24.3663 1.45223 24.3548 2.02036L24.182 10.51C24.164 11.3909 23.0981 11.8198 22.4751 11.1967L14.1583 2.87994C13.5352 2.2569 13.9641 1.19098 14.845 1.17304L23.3346 1.00021Z" fill="black"/>
<path fill-rule="evenodd" clip-rule="evenodd" d="M9.91784 15.0169C9.5215 14.6323 9.512 13.9992 9.89663 13.6029L17.8466 5.41073C18.2313 5.0144 18.8644 5.0049 19.2607 5.38952L19.9783 6.08595C20.3747 6.47057 20.3842 7.10366 19.9995 7.5L12.0495 15.6921C11.6649 16.0885 11.0318 16.098 10.6355 15.7133L9.91784 15.0169Z" fill="black"/>
<path d="M12.5 5H6C3.79086 5 2 6.79086 2 9V19C2 21.2091 3.79086 23 6 23H16C18.2091 23 20 21.2091 20 19V13.9995C20 13.7234 20.2239 13.5 20.5 13.5C20.7761 13.5 21 13.7239 21 14V19C21 21.7614 18.7614 24 16 24H6C3.23858 24 1 21.7614 1 19V9C1 6.23858 3.23858 4 6 4H12.5C12.7761 4 13 4.22386 13 4.5C13 4.77614 12.7761 5 12.5 5Z" stroke="black"/>
<path d="M23.3346 1.00021C23.9028 0.988646 24.3663 1.45223 24.3548 2.02036L24.182 10.51C24.164 11.3909 23.0981 11.8198 22.4751 11.1967L14.1583 2.87994C13.5352 2.2569 13.9641 1.19098 14.845 1.17304L23.3346 1.00021Z" stroke="black"/>
<path fill-rule="evenodd" clip-rule="evenodd" d="M9.91784 15.0169C9.5215 14.6323 9.512 13.9992 9.89663 13.6029L17.8466 5.41073C18.2313 5.0144 18.8644 5.0049 19.2607 5.38952L19.9783 6.08595C20.3747 6.47057 20.3842 7.10366 19.9995 7.5L12.0495 15.6921C11.6649 16.0885 11.0318 16.098 10.6355 15.7133L9.91784 15.0169Z" stroke="black"/>
</svg>
