<?xml version="1.0" encoding="UTF-8"?>
<svg width="110px" height="60px" viewBox="0 0 110 60" version="1.1" xmlns="http://www.w3.org/2000/svg" xmlns:xlink="http://www.w3.org/1999/xlink">
    <title>Logo</title>
    <g id="New-Nav" stroke="none" stroke-width="1" fill="none" fill-rule="evenodd">
        <g id="Artboard" transform="translate(-37, -74)" fill="#FFFFFF" fill-rule="nonzero">
            <g id="Group-3" transform="translate(0, 46)">
                <g id="Logo" transform="translate(37, 28)">
                    <g id="Group-2" transform="translate(0.1103, 0)">
                        <path d="M85.0367661,18.8602939 C83.8235308,19.7426468 82.3897071,20.2941175 80.7352953,20.2941175 C76.9852953,20.2941175 74.0073543,17.3161762 74.0073543,13.6764703 C74.0073543,10.0367644 77.0955894,7.05882359 80.7352953,7.05882359 C82.3897071,7.05882359 83.8235308,7.61029422 85.0367661,8.49264717 L86.4705896,7.05882359 C84.9264719,5.73529422 82.9411776,4.96323538 80.7352953,4.96323538 C75.8823543,4.96323538 71.9117661,8.82352972 71.9117661,13.5661769 C71.9117661,18.3088241 75.8823543,22.1691184 80.7352953,22.1691184 C82.9411776,22.1691184 84.9264719,21.3970591 86.4705896,20.0735297 L85.0367661,18.8602939 Z" id="Path"/>
                        <path d="M1.9852941,5.18382359 L1.9852941,8.16176486 C3.52941179,6.28676486 5.84558797,5.18382359 8.27205849,5.18382359 C12.7941175,5.18382359 16.544117,8.93382359 16.544117,13.6764708 C16.544117,18.4191179 12.7941175,22.2794125 8.27205849,22.3897066 C5.84558797,22.3897066 3.52941179,21.2867651 1.9852941,19.4117651 L1.9852941,28.5661764 L0,28.5661764 L0,5.18382359 L1.9852941,5.18382359 Z M8.16176462,7.27941179 C4.74264693,7.27941179 1.875,10.1470587 1.875,13.7867646 L1.875,14.0073528 C1.98529412,17.5367646 4.74264693,20.2941175 8.16176462,20.2941175 C11.6911764,20.2941175 14.4485292,17.3161764 14.4485292,13.7867646 C14.4485292,10.2573528 11.5808823,7.27941179 8.16176462,7.27941179 Z" id="Shape"/>
                        <path d="M31.6544113,5.07352924 L31.6544113,15.2205877 C31.6544113,17.9779406 29.4485292,20.1838238 26.5808821,20.2941179 C23.8235292,20.2941179 21.6176469,18.0882349 21.6176469,15.2205877 L21.6176469,5.07352924 L19.6323528,5.07352924 L19.6323528,15.2205877 C19.6323528,19.0808818 22.720588,22.2794123 26.5808821,22.2794123 C30.4411762,22.2794123 33.6397057,19.0808818 33.6397057,15.2205877 L33.6397057,5.07352924 L31.6544113,5.07352924 Z" id="Path"/>
                        <path d="M39.7058828,0 L39.7058828,8.05147076 C41.2500005,6.17647076 43.5661767,5.07352924 45.9926472,5.07352924 C50.5147061,5.07352924 54.2647057,8.93382406 54.2647057,13.7867651 C54.2647057,18.4191179 50.5147061,22.2794113 45.9926472,22.2794113 C43.5661767,22.2794113 41.2500005,21.1764698 39.7058828,19.3014698 L39.7058828,22.2794113 L37.7205887,22.2794113 L37.7205887,0 L39.7058828,0 Z M46.2148277,7.27657213 L45.9926474,7.27941175 C42.5735297,7.27941175 39.8161769,10.0367646 39.7058828,13.5661764 L39.7058828,13.7867646 C39.7058828,17.3161764 42.5735297,20.2941179 45.9926474,20.2941179 C49.4117651,20.2941179 52.279412,17.4264705 52.279412,13.7867646 C52.279412,10.1470587 49.4117651,7.16911763 45.9926474,7.27941175 Z" id="Shape"/>
                        <path d="M66.9485294,2.64705873 C67.610294,2.64705873 68.2720587,2.09558821 68.2720587,1.32352936 C68.2720587,0.551470518 67.7205882,0 66.9485294,0 C66.2867647,0 65.625,0.551470518 65.625,1.32352936 C65.625,2.09558821 66.1764705,2.64705873 66.9485294,2.64705873 Z" id="Path"/>
                        <rect id="Rectangle" x="65.9558792" y="5.07352924" width="1.9852941" height="17.205883"/>
                        <path d="M92.2058841,2.64705873 C92.8676488,2.64705873 93.5294135,2.09558821 93.5294135,1.32352936 C93.5294135,0.551470518 92.9779429,0 92.2058841,0 C91.5441194,0 90.8823547,0.551470518 90.8823547,1.32352936 C90.8823547,2.09558821 91.4338253,2.64705873 92.2058841,2.64705873 Z" id="Path"/>
                        <rect id="Rectangle" x="91.2132339" y="5.07352924" width="1.9852941" height="17.205883"/>
                        <path d="M108.198532,14.0073528 C107.830885,13.7132356 107.463238,13.4926475 107.095591,13.3455887 C106.54412,13.1250004 105.772062,12.7941177 104.007356,12.4632354 C103.786767,12.3529413 103.566179,12.3529415 103.345591,12.3529415 C102.24265,12.0220592 101.360297,11.6911765 100.698532,11.25 C100.036767,10.6985294 99.8161793,10.2573531 99.8161793,9.70588255 C99.8161793,9.04411787 100.257356,8.49264723 100.91912,7.94117665 C101.691179,7.38970608 102.79412,7.05882381 104.007356,7.16911793 C105.441179,7.27941205 106.54412,7.94117677 107.647061,8.82352972 L107.757356,8.93382382 L109.191179,7.61029434 C108.970591,7.3897061 108.970591,7.38970605 108.529414,7.0588237 C107.426473,6.28676486 105.99265,5.40441199 104.007356,5.40441199 C102.352944,5.29411787 100.91912,5.62500024 99.7058849,6.39705908 C98.4926497,7.27941203 97.7205909,8.49264729 97.7205909,9.70588255 C97.7205909,10.6985296 97.9411792,11.5808824 98.8235321,12.4632354 C99.9264733,13.5661765 101.801473,14.1176469 103.345591,14.4485292 C104.779415,14.6691175 105.992649,15.2205889 106.654414,15.7720594 C107.426473,16.4338241 107.757356,16.985294 107.757356,17.7573528 C107.757356,18.4191175 107.205885,19.1911764 106.433826,19.6323528 C105.661768,20.1838234 104.448532,20.5147057 103.345591,20.5147057 C101.801473,20.4044115 100.147062,19.7426475 98.4926498,18.5294123 L98.3823557,18.4191179 L96.9485321,19.7426472 L97.0588262,19.8529415 C98.9338262,21.5073533 101.029414,22.3897059 103.235297,22.5 C104.889709,22.6102941 106.323532,22.169118 107.536767,21.2867651 C108.860296,20.4044122 109.632356,19.1911765 109.632356,17.8676472 C110.073532,16.2132354 109.411767,14.8897058 108.198532,14.0073528 Z" id="Path"/>
                        <rect id="Rectangle" x="58.0147057" y="0.110294119" width="1.9852941" height="22.169117"/>
                    </g>
                    <g id="Group" transform="translate(57.7941, 31.4338)">
                        <path d="M1.32352936,2.64705873 C1.98529404,2.64705873 2.64705873,2.09558821 2.64705873,1.32352936 C2.64705873,0.551470518 2.09558821,0 1.32352936,0 C0.661764681,0 0,0.551470518 0,1.32352936 C0,2.09558821 0.551470518,2.64705873 1.32352936,2.64705873 Z" id="Path"/>
                        <rect id="Rectangle" x="0.330882341" y="5.07352924" width="1.9852941" height="17.205883"/>
                    </g>
                    <path d="M32.4264698,36.5073547 L32.4264698,53.7132378 L30.4411764,53.7132378 L30.4411764,50.7352962 C28.8970587,52.6102962 26.5808818,53.7132378 24.1544113,53.7132378 C19.6323524,53.7132378 15.8823528,49.8529429 15.8823528,45.0000019 C15.8823528,40.3676491 19.6323524,36.5073547 24.1544113,36.5073547 C26.5808818,36.5073547 28.8970587,37.610296 30.4411764,39.485296 L30.4411764,36.5073547 L32.4264698,36.5073547 Z M24.1544116,38.6029429 C20.7352939,38.6029429 17.8676469,41.4705899 17.8676469,45.1102958 C17.8676469,48.7500017 20.7352939,51.7279427 24.1544116,51.6176486 C27.5735292,51.6176486 30.3308821,48.8602958 30.4411762,45.330884 L30.4411762,45.1102958 C30.4411762,41.580884 27.5735292,38.6029429 24.1544116,38.6029429 Z" id="Shape"/>
                    <path d="M39.8161771,36.6176453 L39.8161771,39.5955865 C41.3602948,37.7205865 43.676471,36.6176453 46.1029415,36.6176453 C50.6250005,36.6176453 54.375,40.3676453 54.375,45.1102924 C54.375,49.8529396 50.6250005,53.7132342 46.1029415,53.8235283 C43.676471,53.8235283 41.3602948,52.7205868 39.8161771,50.8455868 L39.8161771,59.9999981 L37.830883,59.9999981 L37.830883,36.6176453 L39.8161771,36.6176453 Z M46.1029418,38.7132335 C42.6838241,38.7132335 39.8161771,41.5808804 39.8161771,45.2205863 L39.8161771,45.4411745 C39.9264712,48.9705863 42.6838241,51.7279391 46.1029418,51.7279391 C49.5220594,51.7279391 52.3897064,48.7499981 52.3897064,45.2205863 C52.3897064,41.6911745 49.5220594,38.7132335 46.1029418,38.7132335 Z" id="Shape"/>
                    <path d="M92.0955896,36.5073547 C90.2205896,36.5073547 88.3455895,37.2794135 87.0220602,38.713237 L87.0220602,36.5073547 L85.0367661,36.5073547 L85.0367661,53.7132378 L87.0220602,53.7132378 L87.0220602,43.5661783 C87.1323543,40.8088255 89.3382368,38.6029429 92.0955896,38.6029429 C94.8529425,38.6029429 97.0588245,40.8088255 97.0588245,43.5661783 L97.0588245,53.7132378 L99.0441189,53.7132378 L99.0441189,43.5661783 C99.154413,39.7058842 95.9558837,36.5073547 92.0955896,36.5073547 Z" id="Path"/>
                    <path d="M109.632352,51.7279415 L109.411764,51.7279415 C109.191175,51.7279415 108.860293,51.8382339 108.419117,51.8382339 C107.647058,51.8382339 107.205882,51.2867635 107.205882,50.0735283 L107.205882,38.3823524 L109.632352,38.3823524 L109.632352,36.3970585 L107.205882,36.3970585 L107.205882,30.6617641 L105.110293,30.6617641 L105.110293,36.3970585 L102.683823,36.3970585 L102.683823,38.3823524 L105.110293,38.3823524 L105.110293,50.1838226 C105.110293,51.507352 105.330882,52.2794105 105.882352,52.8308811 C106.323529,53.3823517 107.095587,53.6029415 107.867646,53.6029415 C108.529411,53.6029415 109.080882,53.4926469 109.522058,53.3823528 L109.632352,53.3823528 L109.632352,51.7279415 L109.632352,51.7279415 Z" id="Path"/>
                    <path d="M72.6838207,36.7279396 C77.0955853,36.7279396 80.6249969,40.1470571 80.9558792,44.669116 L80.9558792,44.7794104 C80.9558792,45.2205868 80.5147036,45.6617632 79.963233,45.6617632 L66.3970561,45.6617632 C66.6176443,49.0808809 69.3749971,51.7279396 72.6838207,51.7279396 C74.889703,51.7279396 76.8749975,50.6249981 77.9779387,48.7499981 L79.63235,49.9632339 C78.0882323,52.3897045 75.4411736,53.8235283 72.6838207,53.8235283 C68.0514679,53.8235283 64.3014679,50.0735283 64.3014679,45.3308811 C64.3014679,40.5882339 68.0514679,36.7279396 72.6838207,36.7279396 Z M72.7941148,38.6029396 C69.7058794,38.6029396 67.2794091,40.6985276 66.5073502,43.6764688 L78.8602917,43.6764688 C78.3088211,40.6985276 75.7720561,38.6029396 72.7941148,38.6029396 Z" id="Shape"/>
                    <path d="M11.25,45.4411755 C10.8823527,45.1470582 10.5147055,44.9264701 10.1470585,44.7794113 C9.59558791,44.5588231 8.82352948,44.2279404 7.05882359,43.897058 C6.83823535,43.7867639 6.6176472,43.7867641 6.39705896,43.7867641 C5.29411781,43.4558818 4.41176468,43.1249991 3.75,42.6838226 C3.08823532,42.1323521 2.86764717,41.6911758 2.86764717,41.1397052 C2.86764717,40.4779405 3.30882353,39.9264699 3.97058821,39.3749993 C4.74264705,38.8235287 5.84558833,38.4926464 7.05882359,38.6029406 C8.49264717,38.7132347 9.59558809,39.3749994 10.6985292,40.2573524 L10.8088236,40.3676465 L12.2426472,39.044117 C12.0220589,38.8235287 12.0220585,38.8235287 11.5808821,38.4926463 C10.4779409,37.7205875 9.04411769,36.8382346 7.05882359,36.8382346 C5.40441179,36.7279405 3.97058809,37.0588229 2.75735283,37.8308817 C1.54411757,38.7132347 0.772058845,39.9264699 0.772058845,41.1397052 C0.772058845,42.1323522 0.992647052,43.0147051 1.875,43.897058 C2.97794116,44.9999992 4.85294127,45.5514695 6.39705896,45.8823519 C7.83088255,46.1029401 9.04411739,46.6544115 9.70588207,47.2058821 C10.4779409,47.8676468 10.8088236,48.4191166 10.8088236,49.1911755 C10.8088236,49.8529401 10.2573532,50.624999 9.48529434,51.0661755 C8.7132355,51.617646 7.5,51.9485283 6.39705896,51.9485283 C4.85294127,51.8382342 3.19852948,51.1764702 1.54411769,49.9632349 L1.43382359,49.8529406 L0,51.1764698 L0.110294119,51.2867641 C1.98529412,52.9411759 4.08088231,53.8235285 6.28676462,53.9338226 C7.94117641,54.0441168 9.37499964,53.6029407 10.5882349,52.7205877 C11.9117643,51.8382348 12.6838236,50.6249992 12.6838236,49.3014698 C13.1250001,47.647058 12.3529412,46.3235284 11.25,45.4411755 Z" id="Path"/>
                </g>
            </g>
        </g>
    </g>
</svg>