<svg width="243" height="117" viewBox="0 0 243 117" fill="none" xmlns="http://www.w3.org/2000/svg">
<rect x="3" y="3" width="43" height="114" rx="5" fill="#D9D9D9"/>
<rect x="200" y="3" width="43" height="114" rx="5" fill="#D9D9D9"/>
<rect x="58" y="3" width="129" height="114" rx="5" fill="#D9D9D9"/>
<rect width="43" height="114" rx="5" fill="#05A8AB"/>
<rect x="197" width="43" height="114" rx="5" fill="#05A8AB"/>
<rect x="56" width="129" height="114" rx="5" fill="#05A8AB"/>
<path d="M13 58.5L25.75 51.1388L25.75 65.8612L13 58.5Z" fill="white"/>
<path d="M13 58.5L25.75 51.1388L25.75 65.8612L13 58.5Z" fill="white"/>
<path d="M13 58.5L25.75 51.1388L25.75 65.8612L13 58.5Z" fill="white"/>
<path d="M227 57.5L214.25 64.8612L214.25 50.1388L227 57.5Z" fill="white"/>
</svg>
