<svg width="298" height="170" viewBox="0 0 298 170" fill="none" xmlns="http://www.w3.org/2000/svg">
<path d="M0 5C0 2.23858 2.23858 0 5 0H293C295.761 0 298 2.23858 298 5V165C298 167.761 295.761 170 293 170H5C2.23858 170 0 167.761 0 165V5Z" fill="black" fill-opacity="0.73"/>
<rect x="70" y="29" width="160" height="103" rx="5" fill="#05A8AB"/>
<path d="M196.613 42H194.187C194.107 42 194.059 42.089 194.104 42.1555L196.63 45.9445C196.652 45.9781 196.652 46.0219 196.63 46.0555L194.104 49.8445C194.059 49.911 194.107 50 194.187 50H196.613C196.647 50 196.678 49.9833 196.696 49.9555L197.917 48.1248C197.956 48.0654 198.044 48.0654 198.083 48.1248L199.304 49.9555C199.322 49.9833 199.353 50 199.387 50H201.813C201.893 50 201.941 49.911 201.896 49.8445L199.37 46.0555C199.348 46.0219 199.348 45.9781 199.37 45.9445L201.896 42.1555C201.941 42.089 201.893 42 201.813 42H199.387C199.353 42 199.322 42.0167 199.304 42.0445L198.083 43.8752C198.044 43.9346 197.956 43.9346 197.917 43.8752L196.696 42.0445C196.678 42.0167 196.647 42 196.613 42Z" fill="white"/>
</svg>
