<svg xmlns="http://www.w3.org/2000/svg" xmlns:xlink="http://www.w3.org/1999/xlink" width="300" zoomAndPan="magnify" viewBox="0 0 224.87999 225" height="300" preserveAspectRatio="xMidYMid meet" version="1.0"><defs><clipPath id="b1200f5907"><path d="M 22.488281 45.035156 L 202.390625 45.035156 L 202.390625 179.964844 L 22.488281 179.964844 Z M 22.488281 45.035156 " clip-rule="nonzero"/></clipPath></defs><g clip-path="url(#b1200f5907)"><path fill="#05a8ab" d="M 179.914062 45.03125 L 29.992188 45.03125 C 25.851562 45.03125 22.496094 48.386719 22.496094 52.527344 L 22.496094 157.472656 L 33.742188 157.472656 L 33.742188 56.277344 L 179.914062 56.277344 Z M 63.902344 101.253906 C 63.902344 110.566406 71.453125 118.121094 80.769531 118.121094 C 90.085938 118.121094 97.636719 110.566406 97.636719 101.253906 C 97.636719 91.9375 90.085938 84.386719 80.769531 84.386719 C 71.453125 84.386719 63.902344 91.9375 63.902344 101.253906 Z M 191.15625 124.117188 L 168.792969 101.253906 L 132.078125 135.8125 L 112.429688 119.582031 L 56.230469 168.71875 L 56.230469 78.765625 L 191.15625 78.765625 Z M 44.984375 75.015625 L 44.984375 172.464844 C 44.984375 176.605469 48.339844 179.960938 52.480469 179.960938 L 194.90625 179.960938 C 199.046875 179.960938 202.402344 176.605469 202.402344 172.464844 L 202.402344 75.015625 C 202.402344 70.878906 199.046875 67.519531 194.90625 67.519531 L 52.480469 67.519531 C 48.339844 67.519531 44.984375 70.878906 44.984375 75.015625 " fill-opacity="1" fill-rule="nonzero"/></g></svg>