<svg width="131" height="93" viewBox="0 0 131 93" fill="none" xmlns="http://www.w3.org/2000/svg">
<rect x="3" y="3" width="128" height="55" rx="5" fill="#D9D9D9"/>
<path d="M44 67L37.9378 56.5L50.0622 56.5L44 67Z" fill="#D9D9D9"/>
<rect width="128" height="55" rx="5" fill="#05A8AB"/>
<path d="M41 64L34.9378 53.5L47.0622 53.5L41 64Z" fill="#05A8AB"/>
<path d="M12 15H34" stroke="white" stroke-width="3" stroke-linecap="round"/>
<path d="M46 15H68" stroke="white" stroke-width="3" stroke-linecap="round"/>
<path d="M78 15H120" stroke="white" stroke-width="3" stroke-linecap="round"/>
<path d="M12 27H54" stroke="white" stroke-width="3" stroke-linecap="round"/>
<path d="M64 27H86" stroke="white" stroke-width="3" stroke-linecap="round"/>
<path d="M95 27H117" stroke="white" stroke-width="3" stroke-linecap="round"/>
<path d="M12 40H34" stroke="white" stroke-width="3" stroke-linecap="round"/>
<path d="M43 40H87" stroke="white" stroke-width="3" stroke-linecap="round"/>
<path d="M98 40H120" stroke="white" stroke-width="3" stroke-linecap="round"/>
<circle cx="44" cy="81" r="12" fill="#D9D9D9"/>
<circle cx="41" cy="79" r="12" fill="#C3C0C0"/>
<path d="M42.2178 80.9531C42.1436 81.1882 42.1034 81.5531 42.0972 82.0479H39.5923C39.6294 81.0026 39.7284 80.2821 39.8892 79.8862C40.05 79.4842 40.4644 79.0234 41.1323 78.5039L41.8096 77.9751C42.0322 77.8081 42.2116 77.6257 42.3477 77.4277C42.5951 77.0876 42.7188 76.7134 42.7188 76.3052C42.7188 75.8351 42.5796 75.4084 42.3013 75.0249C42.0291 74.6353 41.5282 74.4404 40.7983 74.4404C40.0809 74.4404 39.5706 74.6785 39.2676 75.1548C38.9707 75.631 38.8223 76.1258 38.8223 76.6392H36.1411C36.2153 74.8765 36.8307 73.6271 37.9873 72.8911C38.7171 72.4211 39.6139 72.186 40.6777 72.186C42.0755 72.186 43.2352 72.52 44.1567 73.188C45.0845 73.856 45.5483 74.8455 45.5483 76.1567C45.5483 76.9608 45.3473 77.638 44.9453 78.1885C44.7103 78.5225 44.2588 78.9492 43.5908 79.4688L42.9321 79.979C42.5734 80.2573 42.3353 80.582 42.2178 80.9531ZM42.292 86H39.5273V83.3188H42.292V86Z" fill="white"/>
</svg>
